<?xml version="1.0" encoding="UTF-8" standalone="no"?>
<svg
   width="218.27361"
   zoomAndPan="magnify"
   viewBox="0 0 163.61789 124.61016"
   height="166.14688"
   preserveAspectRatio="xMidYMid"
   version="1.0"
   id="svg2"
   sodipodi:docname="dog-nosework-hover.svg"
   inkscape:version="1.4 (86a8ad7, 2024-10-11)"
   xmlns:inkscape="http://www.inkscape.org/namespaces/inkscape"
   xmlns:sodipodi="http://sodipodi.sourceforge.net/DTD/sodipodi-0.dtd"
   xmlns="http://www.w3.org/2000/svg"
   xmlns:svg="http://www.w3.org/2000/svg">
  <sodipodi:namedview
     id="namedview2"
     pagecolor="#ffffff"
     bordercolor="#000000"
     borderopacity="0.25"
     inkscape:showpageshadow="2"
     inkscape:pageopacity="0.0"
     inkscape:pagecheckerboard="0"
     inkscape:deskcolor="#d1d1d1"
     inkscape:zoom="3.89"
     inkscape:cx="108.99743"
     inkscape:cy="83.419023"
     inkscape:window-width="2560"
     inkscape:window-height="1369"
     inkscape:window-x="-8"
     inkscape:window-y="-8"
     inkscape:window-maximized="1"
     inkscape:current-layer="svg2" />
  <defs
     id="defs1">
    <clipPath
       id="5615f1ade6">
      <path
         d="M 30.402344,49.980469 H 194.56641 V 175 H 30.402344 Z m 0,0"
         clip-rule="nonzero"
         id="path1" />
    </clipPath>
  </defs>
  <g
     clip-path="url(#5615f1ade6)"
     id="g2"
     transform="translate(-30.58353,-49.980469)">
    <path
       fill="#f5ded2"
       d="m 193.53906,160.26172 c -2.52734,-5.48047 -3.80469,-11.53906 -3.71484,-17.57031 0.0117,-1.23829 0.0859,-2.53907 -0.44141,-3.67579 -0.52344,-1.16406 -1.58594,-1.96484 -2.63672,-2.70312 -1.91406,-1.32813 -3.92968,-2.55469 -5.58203,-4.20313 -1.65234,-1.65234 -2.9414,-3.8164 -2.9414,-6.15624 -0.0234,-8.35938 -0.98829,-17.39063 -5.95313,-24.125 -1.11328,-1.51172 -2.55469,-2.76563 -3.70312,-4.253911 -1.15235,-1.488281 -2.01563,-3.363281 -1.69141,-5.214844 0.375,-2.152344 1.07812,-4.128906 1.77734,-6.195313 0.75,-2.214843 0.71485,-4.617187 0.38672,-6.929687 C 167.55078,68.824219 159.79297,59.5625 149.82031,56.25 c -5.11719,-1.703125 -11.13281,-2.179688 -14.64844,-6.269531 -0.5,3.226562 1.3125,6.457031 3.77735,8.609375 2.46484,2.152344 5.53125,3.464844 8.44531,4.941406 4.23047,2.125 8.49609,4.855469 10.52344,9.121094 0.98828,2.078125 1.36328,4.339844 1.52734,6.644531 -0.0156,0 -0.0273,0 -0.0391,0 0.0391,0.324219 0.0625,0.660156 0.0859,0.988281 0.0391,0.976563 0.0508,1.949219 0.0625,2.914063 0.0156,0.914062 0,1.890625 -0.5,2.652343 -0.42578,0.636719 -1.13672,1.027344 -1.83985,1.300782 -2.40234,0.953125 -5.0039,0.9375 -7.61718,0.828125 -0.76563,-0.164063 -1.55079,-0.300781 -1.97657,-0.152344 -0.0391,0.01172 -0.0625,0.02734 -0.0898,0.05078 -0.625,-0.02344 -1.25,-0.05078 -1.875,-0.05078 -1.81641,-0.01172 -3.62891,0.136719 -5.44531,0.351563 0.0156,-0.03906 0.0273,-0.07422 0.0391,-0.101563 l -0.39844,0.136719 c 0.0117,-0.0625 0.0352,-0.136719 0.0469,-0.199219 -12.41016,1.652344 -43.101565,8.996094 -44.539065,9.234375 -0.953125,0.148438 -2.214844,0.363281 -3.242187,0.800781 -0.136719,0.02344 -0.273438,0.05078 -0.425782,0.07422 -3.664062,0.539062 -6.894531,1.203125 -8.921875,2.027339 -3.527343,1.41407 -10.472656,7.00782 -14.738281,10.59766 -0.398438,0.33984 -0.761719,0.71484 -1.085938,1.11328 -0.953124,0.77735 -1.902343,1.52735 -2.878906,2.22656 -0.789062,0.5625 -9.222656,11.03516 -12.324218,13.875 -0.863282,0.78907 -2.003907,0.26563 -3.003907,0.87891 -1.101562,0.6875 -2.328125,1.14844 -3.402343,1.88672 -1.152344,0.80078 -1.726563,3.28125 -2.742188,4.30469 -0.03516,0.0391 -0.08594,0.0742 -0.125,0.125 -0.222656,0.19921 -0.4375,0.375 -0.636719,0.53906 -0.636719,0.51172 -1.339843,0.97656 -1.976562,1.48828 -0.363281,0.27734 -0.6875,0.53906 -1,0.85156 -0.402344,0.36328 -0.828125,0.8125 -0.964844,1.22656 -0.710937,1.125 -1.476563,2.85157 -2.539063,5.89063 -0.5,1.44141 -0.527343,2.69141 -0.351562,3.85547 -0.601562,0.5 -0.664062,1.39062 -0.222656,2.03906 0.824218,1.22656 1.523437,4.01563 1.585937,4.64063 0,0.17578 -0.01172,0.35156 -0.03516,0.53906 -0.203125,1.97656 -1.566406,3.58984 -2.667969,5.2539 -1.285156,1.94141 -2.464844,4.16797 -3.074218,6.42188 -0.164063,0.51172 0.01172,1.09766 0.335937,1.52344 0.363281,0.47656 0.875,0.78906 1.375,1.08984 0.914063,0.53906 1.867187,1.05078 2.816406,1.52734 0.964844,0.64844 1.964844,1.21094 3.039063,1.66407 2.640625,1.08593 5.78125,1.30078 8.257812,-0.125 0.214844,-0.125 0.414063,-0.26563 0.625,-0.39063 0.765625,-0.10937 1.503906,-0.54687 2.105469,-1.03515 0.335937,-0.10157 0.6875,-0.1875 1.035156,-0.28907 1.679688,-0.47656 3.503907,-1.35156 3.980469,-3.02734 0.714844,0.11328 1.425781,0.16016 2.140625,0.13672 1.199219,0.0508 2.402344,-0.0508 3.539063,-0.44922 1.265624,-0.45313 2.378906,-1.25391 3.355468,-2.16406 0.01172,-0.0156 0.02344,-0.0273 0.04687,-0.0508 1.050781,-0.86329 1.941407,-1.89063 2.605469,-3.07813 0.136719,0.0117 0.410156,-0.5 0.738281,-1.33984 1.125,-2.125 1.851563,-4.48047 2.175781,-6.90625 0.664063,-2.46485 1.136719,-4.65625 1,-5.15625 1.851563,-0.0625 3.652344,-1.125 4.59375,-2.71485 1.226563,2.07813 5.203126,1.15235 8.195313,0.0781 1.625,-0.58985 3.277344,0.76172 3.027344,2.46484 -0.08984,0.59766 -0.1875,1.1875 -0.289063,1.73828 -0.726562,3.31641 -1.761718,6.56641 -3.078125,9.70703 -1.023437,2.41407 -2.539062,5.03125 -5.117187,5.57032 -0.824219,0.17578 -1.664063,0.0977 -2.5,0.17578 -2.066406,0.1875 -4.03125,1.3125 -5.242188,3 -0.550781,0.77734 -0.929687,1.91406 -0.300781,2.6289 0.3125,0.35157 0.785156,0.5 1.25,0.58594 1.476563,0.28906 2.988281,0.15235 4.464844,-0.125 3.691406,-0.67578 7.269531,-2.19922 10.125,-4.6289 0.773437,-0.66407 1.8125,-1.42579 2.6875,-0.91407 0.339843,0.20313 0.601562,0.58985 1.003906,0.61328 0.3125,0.0273 0.597656,-0.19921 0.800781,-0.44921 0.722656,-0.90235 0.800782,-2.14063 0.960938,-3.30469 0.6875,-2.14844 1.1875,-3.66406 1.714844,-5.00391 0.386718,-0.86328 0.789062,-1.73828 1.175781,-2.60156 0.613281,-1.1875 1.390625,-2.46484 2.492187,-4.19141 0.296875,-0.47656 1.175782,-2.91406 1.726563,-4.58984 -0.203125,4.50391 -0.08984,9.45703 3.02734,12.66016 2.33985,2.40234 5.89063,3.21484 9.2461,3.11718 3.35156,-0.10156 6.60547,-1.0039 9.92187,-1.53906 0.98828,-0.16406 2.07422,-0.33984 2.6875,-1.12891 0.66406,-0.85156 0.47656,-2.15234 -0.13672,-3.03906 -0.625,-0.88672 -1.58984,-1.46484 -2.51562,-2.02734 -1.5,-0.88672 -3.15235,-1.8125 -4.87891,-1.5625 -1.85156,0.26172 -3.5664,1.85156 -5.34375,1.30078 -0.16015,-0.89063 -1.21094,-1.50391 -2.0625,-1.20313 0.48828,-3.33984 1.28906,-6.6289 2.36328,-9.83203 0.0508,-0.15234 0.10157,-0.28906 0.16407,-0.4375 l 11.41015,-7.07031 c 2.10156,-1.15234 3.48047,-1.73828 5.05469,-2.52734 1.50391,-0.66407 3.1289,-1.65235 4.54297,-2.58985 1.27734,-0.8125 2.51562,-1.67578 3.66406,-2.65234 1.31641,0.92578 1.35156,2.80078 1.85156,4.32812 1.11328,3.32813 4.76953,5.28125 5.95703,8.58204 0.67578,1.89062 0.46485,3.98046 0.0234,5.94531 -0.42187,1.96484 -1.07422,3.9414 -2.375,5.48047 -1.39062,1.65234 -3.39062,2.64062 -5.33203,3.58984 -1.51172,0.73828 -3.08984,1.5 -4.77734,1.5625 -0.5625,0.0273 -1.14063,-0.0352 -1.66407,0.16406 -0.52734,0.19922 -0.97656,0.76172 -0.80078,1.30078 0.14844,0.46485 0.66406,0.67579 1.125,0.83985 2.02735,0.69922 4.08985,1.41406 6.23047,1.58984 2.14063,0.17188 4.41797,-0.23828 6.09375,-1.57812 0.96484,-0.77735 1.6875,-1.80078 2.47656,-2.76563 2.66797,-3.24219 6.1836,-5.67969 9.09766,-8.69531 0.67578,-0.6875 1.32422,-1.4375 1.6875,-2.32813 0.625,-1.52734 0.3125,-3.28906 -0.33594,-4.80468 -0.65234,-1.51172 -1.64062,-2.86328 -2.41406,-4.31641 -1.14063,-2.11328 -1.85156,-4.66797 -0.97656,-6.90625 0.66406,-1.6875 2.125,-2.92578 3.53906,-4.07812 0.40234,-0.32422 0.83984,-0.66407 1.32812,-0.77735 0,0 3,1.75391 4.39063,3.41797 0.14844,0.21094 0.30078,0.41016 0.44922,0.625 1.39062,2.46484 3.74219,4.83984 6.19531,6.24219 0,0 0,0 0.0117,0 0.57422,0.39062 1.17578,0.76562 1.77734,1.125 3.44141,2.0664 7.19532,3.76953 10.32032,6.26953 3.40625,2.72656 6.01953,6.40625 7.48437,10.52344 0.61328,1.73828 0.97656,3.85156 -0.16406,5.3164 -0.5625,0.73828 -1.42578,1.17578 -2.11328,1.78907 -0.6875,0.61328 -1.25,1.57812 -0.91407,2.4414 2.61329,0.5 5.29297,0.63672 7.95704,0.5625 1.3125,-0.0391 2.8789,-0.3125 3.39062,-1.52734 0.33984,-0.97656 -0.13672,-2.05078 -0.57422,-3 z m 0,0"
       fill-opacity="1"
       fill-rule="nonzero"
       id="path2" />
  </g>
</svg>
