<?xml version="1.0" encoding="UTF-8" standalone="no"?>
<svg
   width="184.61331"
   zoomAndPan="magnify"
   viewBox="0 0 138.38613 91.566788"
   height="122.08905"
   preserveAspectRatio="xMidYMid"
   version="1.0"
   id="svg2"
   sodipodi:docname="dog-treningi-miejskie.svg"
   inkscape:version="1.4 (86a8ad7, 2024-10-11)"
   xmlns:inkscape="http://www.inkscape.org/namespaces/inkscape"
   xmlns:sodipodi="http://sodipodi.sourceforge.net/DTD/sodipodi-0.dtd"
   xmlns="http://www.w3.org/2000/svg"
   xmlns:svg="http://www.w3.org/2000/svg">
  <sodipodi:namedview
     id="namedview2"
     pagecolor="#ffffff"
     bordercolor="#000000"
     borderopacity="0.25"
     inkscape:showpageshadow="2"
     inkscape:pageopacity="0.0"
     inkscape:pagecheckerboard="0"
     inkscape:deskcolor="#d1d1d1"
     inkscape:zoom="3.89"
     inkscape:cx="88.817481"
     inkscape:cy="60.796915"
     inkscape:window-width="2560"
     inkscape:window-height="1369"
     inkscape:window-x="-8"
     inkscape:window-y="-8"
     inkscape:window-maximized="1"
     inkscape:current-layer="svg2" />
  <defs
     id="defs1">
    <clipPath
       id="224d2f3e35">
      <path
         d="M 45,66.296875 H 184.77734 V 158.49609 H 45 Z m 0,0"
         clip-rule="nonzero"
         id="path1" />
    </clipPath>
  </defs>
  <g
     clip-path="url(#224d2f3e35)"
     id="g2"
     transform="translate(-45.888923,-66.929305)">
    <path
       fill="#3e745f"
       d="m 184.08594,146.76953 c -0.60547,-1.82812 -4.25782,-1.62109 -5.87891,-3.24219 -1.62109,-1.62109 -3.44531,-3.84765 -4.46094,-7.29687 -1.01562,-3.44531 -11.35547,-13.99219 -13.99218,-17.4375 -2.63672,-3.44922 -7.91016,-8.51563 -9.1211,-10.54688 -2.44922,-4.08593 -2.75781,-4.92187 -5.8789,-8.718746 0,0 -5.87891,-5.980469 -6.39063,-6.585938 -0.50391,-0.605468 -0.80859,-0.914062 -0.80859,-0.914062 0,0 -0.3086,-1.519532 -1.01563,-2.429688 -0.71094,-0.914062 -2.73828,-2.636718 -3.34375,-3.039062 -0.60937,-0.410156 -6.6914,-2.328125 -8.01172,-2.328125 -1.32421,0 -2.53515,1.980469 -3.1914,1.980469 -0.65625,0 -1.01563,0.304687 -2.03125,0.101562 -1.01563,-0.207031 -3.60156,-1.570312 -4.05469,-1.117188 -0.44922,0.449219 -0.80859,1.117188 -0.80859,1.117188 l -0.10157,0.398438 -0.76171,1.164062 c -0.16016,0.246094 -1.46485,-0.660156 -2.01954,-0.660156 -0.55468,0 -0.71093,0.308594 -0.96484,0.761718 -0.25781,0.449219 -0.20703,0.707032 -0.75781,1.015626 -0.55469,0.304687 -1.6211,0.910156 -1.72656,1.824218 -0.10157,0.914063 0.20703,6.535156 -0.15235,7.046875 -0.35937,0.503907 -3.94922,5.980469 -4.15625,6.238279 -0.20312,0.25391 -3.24219,2.17578 -3.64844,2.08203 -0.40234,-0.10546 -1.12109,-0.91406 -1.519528,-1.41796 -0.402343,-0.50391 -0.964843,-0.75782 -0.964843,-1.06641 0,-0.30859 -0.101563,-0.30859 -0.554688,-1.51953 -0.46875,-1.25391 -1.449219,-6.796878 -1.671875,-7.199221 -0.453125,-0.8125 -0.207031,-2.082031 -0.207031,-2.082031 0,0 4.667965,-3.140626 5.726565,-3.191407 1.0664,-0.05078 3.65234,0.05078 4.46094,0.65625 0.8125,0.605469 1.51953,0.453125 1.72656,0.101563 0.20312,-0.355469 0.35547,-1.671875 0.35547,-1.671875 0,0 0.20703,-0.628907 0.5039,-0.578125 0.3086,0.05078 0.4375,0.05078 0.53125,-0.230469 0.10157,-0.28125 0.125,-0.582031 0.125,-0.582031 0,0 0.38672,0.02734 0.45313,-0.28125 0.0781,-0.304688 0.0508,-0.628906 0.1289,-0.808594 0.0742,-0.179688 0.0508,-0.359375 0.25391,-0.359375 0.20703,0 0.66016,0.257813 0.94141,-0.07813 0.28125,-0.332031 0.39843,-0.527344 0.33203,-0.679688 -0.0781,-0.15625 -0.50391,-2.535156 -0.4375,-2.84375 0.0781,-0.304687 0.17969,-0.5 0.30859,-0.628906 0.12891,-0.128906 0.86328,-0.835937 0.91406,-1.246094 0.043,-0.316406 0.17969,-1.03125 0.35547,-2.097656 0.0195,0.167969 0.0273,0.3125 0.043,0.433594 0,-0.222656 -0.008,-0.417969 -0.008,-0.613281 0.043,-0.238281 0.0781,-0.480469 0.12109,-0.761719 0.0859,-0.527344 0.13672,-0.953125 0.16797,-1.296875 0.0352,1.136719 -0.0664,2.570313 -0.375,4.378906 0.0703,-0.28125 0.15625,-0.691406 0.25,-1.195312 -0.0195,0.109375 -0.0352,0.222656 -0.0508,0.339843 0.13672,-0.570312 0.375,-1.703124 0.44922,-3.15625 l 0.0352,0.257813 c -0.0234,0.902344 -0.14454,1.945313 -0.33204,3.148437 0.11719,-0.488281 0.3086,-1.367187 0.41797,-2.507812 0.0156,0.160156 0.043,0.324219 0.0586,0.484375 -0.008,0.546875 -0.043,1.125 -0.0937,1.757813 0.043,-0.316407 0.0937,-0.800782 0.13672,-1.417969 0.0937,0.769531 0.17187,1.382812 0.24609,1.75 -0.0742,-0.894531 -0.15234,-1.671875 -0.21094,-2.363281 0.008,-0.179688 0.008,-0.359376 0.008,-0.554688 0.16407,1.136719 0.27344,2.03125 0.35938,2.519531 -0.12891,-1.214843 -0.23828,-2.269531 -0.35938,-3.167969 l -0.008,-0.253906 c 0.20313,1.382813 0.375,2.542969 0.46875,3.179688 l -0.0352,-0.347656 c 0.0625,0.511718 0.12109,0.921874 0.17187,1.195312 -0.16406,-1.707031 -0.30859,-3.089844 -0.45312,-4.226562 -0.0234,-0.195313 -0.0508,-0.375 -0.0742,-0.554688 0.10937,0.257812 0.21093,0.480469 0.28906,0.625 -0.11328,-0.289062 -0.21484,-0.554688 -0.31641,-0.8125 -0.0703,-0.441406 -0.1289,-0.835938 -0.19531,-1.183594 -0.0195,-0.05078 -0.0273,-0.09375 -0.043,-0.152344 -0.0703,-0.128906 -0.13672,-0.273437 -0.20703,-0.421874 0,-0.05859 -0.008,-0.125 -0.008,-0.1875 0.0781,0.171874 0.15625,0.324218 0.21484,0.453124 0.0234,0.07813 0.0586,0.144532 0.0742,0.207032 -0.0156,-0.05078 -0.0234,-0.08594 -0.0391,-0.136719 0.0312,0.06641 0.0664,0.136719 0.0937,0.1875 -0.0703,-0.15625 -0.1211,-0.28125 -0.17188,-0.425781 -0.0586,-0.199219 -0.1289,-0.394532 -0.1875,-0.574219 0,-0.02344 -0.008,-0.05859 -0.008,-0.08594 0.15234,0.335937 0.28125,0.605468 0.38281,0.804687 0.008,0.01563 0.0156,0.03125 0.0156,0.04297 l -0.008,-0.02734 c 0,0.0078 0.008,0.01563 0.008,0.01563 0.0781,0.214844 0.13672,0.410156 0.1875,0.554687 -0.0312,-0.136718 -0.0664,-0.261718 -0.10938,-0.390624 0.0664,0.144531 0.12891,0.273437 0.17188,0.367187 -0.0937,-0.257813 -0.17969,-0.46875 -0.26563,-0.699219 -0.1875,-0.640625 -0.39453,-1.1875 -0.59765,-1.648437 -0.29688,-0.878907 -0.69141,-1.910157 -2.02344,-2.867188 -3.86328,-2.761719 -9.01563,-2.773437 -12.839845,-0.347656 -3.976563,2.523437 -4.050781,5.929687 -4.042969,8.136719 -0.394531,0.402344 -0.84375,0.847656 -1.375,1.367187 -0.02344,-0.230469 -0.02344,-0.488281 0.01953,-0.800781 -0.03516,0.101562 -0.07031,0.246094 -0.09375,0.425781 l 0.0078,-0.121093 c -0.04297,0.144531 -0.09375,0.375 -0.09375,0.648437 -0.01953,0.01953 -0.03516,0.03516 -0.05078,0.05078 0.01563,-0.01563 0.03125,-0.03125 0.05078,-0.04297 0,0.07031 0,0.136718 0.0078,0.214843 -0.01562,0 -0.03516,0.0078 -0.05859,0.0078 -0.04297,-0.253906 -0.0625,-0.546875 -0.02734,-0.894532 -0.05859,0.1875 -0.128906,0.503907 -0.09375,0.902344 L 92.0625,78.480469 c -0.05078,-0.171875 -0.09375,-0.359375 -0.121094,-0.5625 -0.0078,0.109375 0.0078,0.273437 0.04297,0.476562 -0.171875,-0.195312 -0.332031,-0.359375 -0.433594,-0.445312 0.203125,0.273437 0.355469,0.480469 0.484375,0.648437 l 0.0078,0.03516 c -0.02344,0.0078 -0.05078,0.0078 -0.07422,0.01563 -0.214844,-0.21875 -0.394531,-0.40625 -0.503906,-0.511719 -0.171875,-0.519531 -0.273438,-1.148438 -0.246094,-1.882813 -0.03516,0.160156 -0.0625,0.398438 -0.05469,0.707032 0,-0.06641 -0.0078,-0.136719 -0.0078,-0.203126 -0.03516,0.269532 -0.03516,0.757813 0.09375,1.347657 -0.02344,-0.02734 -0.05859,-0.0625 -0.08594,-0.08594 -0.101562,-0.410156 -0.1875,-0.855469 -0.195312,-1.367187 -0.04297,0.308594 -0.04297,0.871094 0.121094,1.570312 L 90.925781,77.96875 c -0.109375,-0.316406 -0.203125,-0.675781 -0.273437,-1.058594 0.01953,0.195313 0.0625,0.503906 0.15625,0.871094 -0.230469,-0.386719 -0.4375,-0.726562 -0.582032,-0.972656 0.238282,0.511718 0.46875,0.945312 0.691407,1.339844 0.04297,0.101562 0.07813,0.210937 0.121093,0.324218 -0.417968,-0.589844 -0.71875,-1.09375 -0.890624,-1.375 0.359374,0.714844 0.71875,1.28125 1.050781,1.75 0.0078,0.0078 0.0078,0.01563 0.01953,0.03125 -0.01172,0 -0.01953,0.01172 -0.02734,0.01172 -0.527344,-0.683594 -0.894531,-1.289063 -1.101562,-1.605469 l 0.101562,0.203125 c -0.152344,-0.28125 -0.289062,-0.527343 -0.390625,-0.707031 0.425781,0.921875 0.835938,1.628906 1.21875,2.183594 -0.203125,0.101562 -0.417969,0.238281 -0.640625,0.386718 -0.636718,0.03125 -1.398437,0.03906 -2.34375,0.0078 0.195313,0.03125 0.484375,0.06641 0.835938,0.09375 -0.07813,0 -0.152344,-0.0078 -0.238282,-0.0078 0.304688,0.05078 0.816407,0.101563 1.441407,0.125 -0.03516,0.02734 -0.05859,0.05078 -0.09375,0.07031 -0.445313,0 -0.914063,0 -1.476563,-0.02734 0.289063,0.05078 0.769532,0.101563 1.347656,0.128907 -0.05078,0.04297 -0.101562,0.08594 -0.152343,0.128906 -0.292969,0.02344 -0.597657,0.05078 -0.941407,0.08594 0.207032,0.0078 0.503907,0 0.878907,-0.02734 -0.0078,0.0078 -0.01563,0.01562 -0.02344,0.02734 -0.433593,0.152344 -0.777343,0.296875 -0.972656,0.40625 0.296875,-0.101562 0.546875,-0.175781 0.820313,-0.261719 -0.07031,0.06641 -0.136719,0.144532 -0.199219,0.210938 -0.136719,0.0625 -0.253907,0.113281 -0.339844,0.15625 0.101563,-0.04297 0.195313,-0.07031 0.296875,-0.113281 -0.05859,0.07031 -0.117188,0.136719 -0.167969,0.207031 -0.179687,0.07422 -0.34375,0.144531 -0.453125,0.203125 0.152344,-0.05859 0.28125,-0.09375 0.417969,-0.144531 -0.152344,0.222656 -0.257813,0.445312 -0.28125,0.65625 -0.101563,0.964844 -0.101563,1.117187 0.05078,1.621094 -0.121094,-0.0078 -0.222656,-0.0078 -0.351562,-0.02344 0.08594,0.02344 0.214844,0.05859 0.367187,0.08203 0,0 0,0.01172 0,0.01172 -0.0078,0 -0.01563,0 -0.01563,0 0.0078,0 0.01563,0 0.02734,0.0078 0.01563,0.05859 0.03125,0.117188 0.04297,0.167969 -0.04297,0 -0.07031,0 -0.113281,-0.0078 0.03516,0.0078 0.07812,0.01953 0.121093,0.02734 0.02344,0.109376 0.04297,0.203126 0.05078,0.28125 -0.707031,0.04297 -1.554687,0.01563 -2.535156,-0.09375 0.238282,0.04297 0.570313,0.09375 0.972656,0.144532 -0.08594,-0.0078 -0.179687,-0.01563 -0.273437,-0.02734 0.367187,0.07813 1.03125,0.179688 1.871094,0.179688 0,0.03516 0,0.0625 0,0.0625 -0.609375,0.02344 -1.273438,0.0078 -2.050781,-0.07031 0.394531,0.07813 1.101562,0.1875 2.007812,0.195313 -0.128906,0.03516 -0.25,0.07031 -0.375,0.105468 -0.429688,0.03125 -0.890625,0.05078 -1.394531,0.05859 0.257812,0.01563 0.640625,0.02344 1.128906,0.01563 -0.597656,0.164063 -1.066406,0.292969 -1.347656,0.394531 0.707031,-0.164062 1.304687,-0.300781 1.832031,-0.417968 0.02734,0 0.0625,-0.0078 0.08594,-0.0078 0.03516,0.0078 0.05078,0.01563 0.08594,0.02344 0,0.0078 0,0.0078 -0.0078,0.01563 -0.699218,0.207031 -1.296874,0.386718 -1.671874,0.496093 0.605468,-0.144531 1.132812,-0.28125 1.628906,-0.417969 -0.0078,0.02734 -0.02734,0.05078 -0.04297,0.07813 -0.605469,0.1875 -1.101563,0.324218 -1.390625,0.417968 l 0.273438,-0.07031 c -0.402344,0.105468 -0.71875,0.199218 -0.921876,0.265625 0.726563,-0.160157 1.375,-0.316407 1.953126,-0.46875 -0.0078,0.0078 -0.0078,0.01563 -0.01563,0.03516 -0.359374,0.554687 -2.261718,0.980469 -2.261718,0.980469 -0.734375,-0.214844 -6.375,1.152344 -8.675782,3.445312 -2.304687,2.296875 -5.332031,5.015625 -5.332031,5.015625 0,0 -13.898437,14.003911 -16.203125,17.140631 -2.296875,3.14062 -3.8125,4.25 -5.273437,5.71093 -10.777344,10.77344 -2.890625,20.17578 7.601562,26.47266 1.519531,0.91406 9.53125,3.75391 9.53125,3.75391 l -11.355469,-3.44532 -3.242187,-1.72265 c 0,0 -1.144531,-0.77735 -2.664063,1.65234 -1.515624,2.43359 -0.988281,8.58594 -1.089843,10.20313 -0.101563,1.62109 0,2.33203 0.203125,3.14062 0.207031,0.8125 2.328125,1.41797 4.15625,1.51953 1.824218,0.10156 2.03125,-0.5039 1.722656,-1.62109 -0.308594,-1.11719 -1.417969,-2.125 -0.707031,-3.03906 0.707031,-0.91016 0.808593,-1.11719 1.519531,-1.11719 0.707031,0 6.789062,1.41797 11.25,2.53515 4.464844,1.11719 13.386719,2.4336 16.117188,2.83985 2.738277,0.4023 6.085933,-1.82426 6.085933,-1.82426 0,0 2.164063,0.13672 3.179687,-1.1875 1.015626,-1.3125 0.648438,-3.11328 0.136719,-3.52344 -2.003906,-1.60156 -2.472656,-0.52734 -3.695312,-2.27734 -0.707031,-1.01563 -3.984375,-5.28125 -3.574219,-6.60156 0.402344,-1.31641 7.695312,-13.09766 8.917969,-14.61719 1.21875,-1.51953 1.9375,-4.34375 1.9375,-5.75781 0,-1.41797 -0.308594,-2.32813 -0.308594,-2.32813 l -0.308594,-0.71094 c -0.03125,-0.0859 3.140625,-0.9375 6.007809,-2.73828 1.66407,-1.03906 2.10547,-1.98047 2.10547,-1.98047 0,0 1.46875,1.1211 2.17578,1.36719 0.71094,0.25391 0.86329,0.25391 0.96485,0.10156 0.10156,-0.15234 0.46094,0.0781 0.63281,0 0.17969,-0.0781 0.30469,-0.1289 0.30469,-0.1289 l 0.99219,0.25781 c 0,0 1.26953,0.75 1.52734,0.44141 0.25391,-0.30469 1.08203,-0.54297 1.18359,-0.75 0.10547,-0.20313 0.6836,-0.55469 0.6836,-0.55469 0,0 6.28906,6.33984 7.70312,8.01172 1.41797,1.67187 3.29297,2.89453 3.65235,3.65234 0.35937,0.75781 1.67187,0.78516 2.38281,0.9375 0.70703,0.15625 2.0039,-0.125 2.22656,-0.28125 0.23047,-0.15234 0.83594,-0.30469 0.83594,-0.30469 0,0 2.35547,4.5625 4.28125,7.19922 1.92968,2.63672 3.14062,3.85547 3.14062,3.85547 0,0 -1.16797,8.01172 -1.41797,9.27344 -0.2539,1.26562 0.15625,1.72656 -0.35547,2.48437 -0.5039,0.75782 -2.35546,4.82032 -2.74218,5.04297 -0.38282,0.23047 -2.6875,0.41016 -3.36719,0.96485 -0.68359,0.55468 -1.34766,0.98828 -1.59766,1.39062 -0.2539,0.41016 -0.5039,0.43359 -0.2539,0.60547 0.2539,0.17969 0.68359,0.23047 0.68359,0.23047 l 0.33203,0.33203 c 0,0 -0.0508,0.17969 0.55469,0.20312 0.52734,0.0273 5.07422,-0.0156 6.27734,-0.0234 0.0625,-0.043 0.15625,-0.10157 0.28907,-0.17969 0.83984,-0.47656 1.09375,-0.33203 1.14453,-0.88672 0.0508,-0.55469 -0.0508,-1.85937 0.63281,-2.71484 l 1.16016,-1.44141 c 0,0 0.008,0.40234 0.76562,0.90625 0.76172,0.5 2.77344,0.55469 4.04688,0.30469 0.5625,-0.10938 0.92968,-0.41797 1.26953,-0.57031 0.42578,-0.1875 0.77734,-0.21485 1.23047,-0.21485 0.80859,0 1.21875,0.10156 2.27734,0.25781 1.06641,0.15235 1.26953,0.20313 2.08203,0.25391 0.80859,0.0508 2.03125,-0.60547 2.83984,0.10547 0.8125,0.70703 1.06641,0.96094 2.37891,1.82422 1.32422,0.86328 9.18359,2.08203 13.64453,1.67187 4.46094,-0.40234 5.87891,-3.24218 6.89453,-4.46093 1.01563,-1.22266 2.22657,-3.85938 2.22657,-3.85938 0,0 2.83984,0.8125 4.25781,-0.20312 1.43359,-0.98829 2.24219,-0.78516 1.63672,-2.60938 z m -70.77344,-70.003905 0.0117,-0.121094 0.008,0.257813 z M 80.117188,131.05469 c -0.554688,1.01172 -1.324219,3.03515 -1.519532,3.80468 -0.203125,0.75782 -0.304687,0.44922 -0.65625,0.50391 -0.359375,0.0508 -0.8125,-0.76172 -1.417968,-1.46875 -0.605469,-0.70703 -1.875,-1.36719 -2.378907,-1.57031 -0.503906,-0.20313 -1.21875,-0.50391 -1.21875,-0.50391 0,0 0.65625,-0.40234 1.066407,-0.45312 0.410156,-0.0508 6.996093,-2.73828 7.40625,-2.83985 -0.01953,-0.008 -0.726563,1.51172 -1.28125,2.52735 z M 91.667969,78.710938 c 0,0 0,-0.0078 -0.0078,-0.0078 0.0078,0 0.0078,0.0078 0.0078,0.0078 0.0078,0 0,0 0,0 z m 0.8125,-0.488282 c 0.167969,-0.144531 0.359375,-0.316406 0.578125,-0.503906 -0.06641,0.07031 -0.144532,0.136719 -0.210938,0.207031 0.230469,-0.179687 0.585938,-0.46875 1.003906,-0.84375 0,0.03906 0,0.09375 0,0.136719 -0.304687,0.296875 -0.636718,0.613281 -1.003906,0.953125 0.230469,-0.179687 0.585938,-0.46875 1.003906,-0.84375 0,0.0078 0,0.02344 0,0.03516 0,0.152344 -0.06641,0.21875 -0.125,0.347657 -0.144531,0.171874 -0.28125,0.324218 -0.445312,0.503906 0.101562,-0.101563 0.246094,-0.246094 0.410156,-0.410156 -0.02734,0.07812 -0.04297,0.179687 -0.04297,0.316406 0,0.316406 -0.503907,0.359375 -1.101563,0.425781 -0.03125,-0.09375 -0.05078,-0.195313 -0.06641,-0.324219 z m -0.605469,0.4375 c -0.02734,0.0078 -0.05078,0.0078 -0.07813,0.01563 -0.09375,-0.101562 -0.1875,-0.1875 -0.253906,-0.265625 -0.03516,-0.08594 -0.07031,-0.179687 -0.09766,-0.261718 0.15625,0.1875 0.292969,0.355468 0.429688,0.511718 z m -0.648438,-0.523437 c 0.03125,0.179687 0.08594,0.359375 0.144532,0.554687 l -0.09375,-0.125 c -0.05859,-0.164062 -0.101563,-0.359375 -0.144532,-0.539062 0.04297,0.03516 0.06641,0.06641 0.09375,0.109375 z m -0.105468,0.402343 0.04297,0.07031 0.02734,0.07422 z m 5.472656,34.468748 c -0.308594,0.10157 -1.519531,0.60547 -2.082031,0.60547 -0.554688,0 -1.367188,-0.5039 -1.367188,-0.5039 0.0078,0.0508 -0.253906,-2.57422 -0.253906,-3.08594 0,0 1.066406,0.91015 1.671875,1.26953 0.605469,0.35937 2.839844,1.46875 2.839844,1.46875 0,0 -0.511719,0.14453 -0.808594,0.24609 z m 32.74219,-3.80468 c 0,1.01562 -0.70703,1.62109 -1.11719,2.6875 -0.39844,1.0664 -2.63672,5.375 -3.03516,5.77734 -0.41015,0.39844 -1.57031,-0.0547 -3.24218,-0.8125 -1.67188,-0.75781 -6.84375,-5.67188 -7.75782,-6.33984 -0.91015,-0.65625 -1.85937,-1.30469 -3.22265,-2.01172 -1.36719,-0.70703 -3.00391,-0.84375 -3.00391,-0.84375 0,0 3.48828,-7.33203 3.69531,-7.62891 0.20313,-0.308594 0.8086,-1.519531 1.26954,-2.328125 0.45312,-0.8125 0.65625,-3.089844 0.75781,-3.347656 0,0 0.9414,0.734375 1.36719,1.066406 0.42578,0.335937 2.05468,1.246094 3.24218,1.878906 1.19532,0.632813 4.51172,2.945309 6.44141,4.511719 1.92578,1.57031 3.89844,4.15625 4.45312,4.86328 0.55469,0.69922 0.15235,1.51172 0.15235,2.52735 z m 20.17187,40.20312 c -0.30859,0 -1.27344,-0.25781 -3.5,-0.51172 -2.22656,-0.25781 -3.1914,0.30469 -3.89844,0.60547 -0.70703,0.29687 -2.13281,1.05469 -2.59375,1.64453 -0.0273,0.0352 0.21485,-2.19141 0.25782,-2.35547 0.20312,-0.75781 0.39843,-2.02734 1.01172,-3.59765 0.60937,-1.57032 1.32421,-2.79297 1.46875,-3.14063 0,0 2.73828,1.57031 3.60156,2.08203 0.85937,0.50391 3.29297,3.44531 3.49609,3.70313 0.20703,0.2539 0.25781,0.39843 0.60547,1.01562 0.36719,0.60547 -0.14453,0.55469 -0.44922,0.55469 z m 0,0"
       fill-opacity="1"
       fill-rule="nonzero"
       id="path2" />
  </g>
</svg>
