
<svg xmlns="http://www.w3.org/2000/svg" xmlns:xlink="http://www.w3.org/1999/xlink" width="300" zoomAndPan="magnify" viewBox="0 0 224.87999 225" height="300" preserveAspectRatio="xMidYMid meet" version="1.0"><defs><clipPath id="2c95e5e8c2"><path d="M 30.707031 35 L 194.035156 35 L 194.035156 186 L 30.707031 186 Z M 30.707031 35 " clip-rule="nonzero"/></clipPath></defs><g clip-path="url(#2c95e5e8c2)"><path fill="#22c55e" d="M 54.824219 71.609375 C 55.917969 73.199219 47.15625 81.601562 45.117188 85.621094 C 44.839844 86.164062 43.457031 88.164062 43.050781 89.675781 C 42.457031 91.929688 42.011719 92.339844 41.71875 94.074219 C 40.890625 98.859375 42.414062 105.480469 40.542969 108.835938 C 39.785156 110.082031 38.414062 109.84375 37.195312 110.753906 C 35.910156 111.710938 34.980469 113.488281 33.722656 114.679688 C 33.085938 115.277344 32.25 115.617188 31.863281 116.390625, C 31.296875 117.53125 31.871094 118.839844 33.425781 120.570312 C 34.566406 121.847656 35.339844 122.457031 37.230469 122.457031 C 38.488281 122.457031 39.785156 122.03125 41.082031 122.3125 C 43.046875 122.738281 44.363281 124.140625 46.007812 125.195312 C 47.929688 126.429688 50.570312 125.761719 52.839844 125.449219 C 56.578125 126.148438 58.210938 127.953125 58.21875 131.898438 C 58.3125 132.847656 58.230469 133.980469 58.488281 136.28125 C 58.992188 136.304688 60.421875 137.90625 60.710938 138.582031 C 61.34375 140.054688 60.035156 141.207031 61.765625 142.789062 C 62.417969 143.382812 63.113281 143.574219 63.8125 143.554688 C 65.453125 143.515625 64.351562 140.109375 64.773438 138.988281 C 64.839844 138.816406 64.972656 138.707031 65.070312 138.558594 C 67.574219 135.003906 69.753906 132.167969 72.71875 129.242188 C 73.84375 128.132812 74.84375 127.089844 76.292969 126.3125 C 77.753906 127.5 79.828125 126.996094 81.558594 126.5625 C 83.40625 126.3125 86.09375 125.085938 87.214844 123.804688 C 88.347656 122.496094 88.972656 120.3125 89.558594 118.839844 C 90.707031 115.996094 91.453125 113.066406, C 92.695312 111.300781 93.171875 111.1875 94.648438 108.75 C 95.46875 107.425781 95.984375 106.472656 97.285156 106.179688 C 99.34375 105.714844 101.226562 105.078125 103.28125 105.628906 C 109.179688 107.078125 116.496094 113.003906 122.019531 114.164062 C 125.097656 114.8125 128.339844 115.363281 130.738281 113.378906 C 133.933594 110.753906 133.214844 106.46875 132.109375 102.964844 C 131.53125 101.136719 130.53125 99.722656 129.214844 98.375 C 127.929688 97.058594 128.414062 95.628906 128.9375 94.109375 C 129.808594 91.613281 130.253906 88.804688 131.976562 86.699219 C 133.214844 85.195312 134.820312 82.761719 136.113281 80.941406 C 137.679688 78.789062 139.3125 77.296875 140.894531 74.960938 C 141.839844 73.5625 141.714844 73.363281 143.214844 72.40625 C 144.832031 71.378906 146.515625 70.667969 148.273438 69.902344 C 150.359375 68.984375 151.921875 68.121094 154.21875 67.589844 C 156.054688 67.167969 158.695312 67.0625 160.632812 67.554688 C 162.613281 68.058594 164.476562 69.394531 166.539062 70.125 C 170.058594 71.320312 173.261719 70.9375 175.335938 74.089844 C 177.203125 77 177.230469 81.445312 176.90625 84.929688 C 176.632812 87.757812 175.789062 90.539062 175.453125 93.367188 C 175.0625 96.578125 176.503906 99.429688 177.644531 102.371094 C 178.828125 105.441406 178.414062 108.75 179.8125 111.730469 C 180.894531 114.101562 179.753906 115.808594 181.976562 117.996094 C 183.027344 119.03125 184.507812 119.738281 185.753906 120.445312 C 187.414062 121.398438 187.84375 123.835938 188.25 125.644531 C 188.8125 128.082031 189.679688 129.980469 189.808594 132.660156 C 190.246094 141.421875 189.472656 143.855469 193.519531 152.230469 C 194.21875 153.628906, C 195.066406 156.382812 191.207031 155.40625 189.457031 155.617188 C 185.976562 156.035156 187.617188 160.320312 186.3125 161.125 C 185.191406 161.816406 183.832031 161.734375 183.113281 162.808594 C 182.25 164.101562 182.941406 165.113281 182.46875 166.511719 C 182.25 167.085938 181.808594 167.613281 181.285156 167.980469 C 180.203125 168.761719 178.789062 168.984375 177.507812 168.800781 C 174.648438 168.390625 172.160156 166.972656 169.238281 166.917969 C 165.011719 166.835938 160.75 167.742188 156.535156 168.046875 C 150.015625 168.503906 143.433594 169.0625 136.855469 169.03125 C 134.867188 169.019531 132.824219 169.113281 130.84375 168.910156 C 126.402344 168.453125 121.964844 167.980469 117.621094 166.835938 C 117.621094 166.835938 117.621094 166.835938 117.582031 166.835938 C 116.136719 166.511719 110.847656 165.328125 108.820312 164.855469 C 105.296875 164.003906 102.441406 163.753906 99.511719 161.324219 C 98.777344 160.722656 98.230469 159.867188 97.5 159.292969 C 96.191406 158.253906 94.839844 157.558594 93.914062 156.214844 C 92.183594 153.730469 93.6875 150.59375 93.65625 147.632812 C 93.640625 144.886719 92.503906 143.066406 91.125 140.71875 C 91.003906 140.515625 90.882812 140.3125 90.761719 140.121094 C 89.988281 139.832031 89.214844 139.488281 88.539062 138.953125 C 86.839844 137.582031 85.632812 133.925781 85.230469 131.152344 C 83.722656 131.226562 82.214844 131.285156 80.75 131.519531 C 78.90625 131.789062 76.980469 132.394531 75.085938 132.339844 C 73.054688 132.273438 71.667969 131.125 69.953125 130.214844 C 68.253906 129.324219 66.417969 128.566406 64.671875 127.761719 C 63.722656 127.339844 62.757812 126.9375 61.859375 126.429688 C 61.003906 125.941406 60.265625 124.96875 59.246094 124.933594 C 54.726562 124.828125 53.546875 130.785156 52.757812 133.5 C 51.609375 137.679688 51.0625 142.171875 49.300781 146.132812 C 47.910156 149.234375 46.246094 152.613281 46.269531 156.011719 C 46.285156 157.515625 46.738281 159.03125 46.589844 160.519531 C 46.429688 162.058594 45.816406 163.515625 44.886719 164.804688 C 43.132812 167.269531 40.566406 169.035156 37.957031, C 174.199219 36.675781 176.144531 38.820312 176.945312 40.589844 175.085938 C 41.425781 174.300781 42.9375 174.835938 44.183594 175.589844 C 46.074219 176.726562 47.992188 177.8125 49.90625 178.914062 C 51.84375 180.035156 54.253906 180.515625 56.339844 181.273438 C 57.714844 181.792969 58.5 183.101562 59.996094 184.191406 C 60.253906 184.375 60.542969 184.488281 60.84375 184.5625 C 61.148438 184.632812 61.460938 184.652344 61.777344 184.625 C 65.320312 184.390625 68.863281 184.15625 72.367188 183.632812 C 72.59375 183.589844 72.8125 183.515625 73.027344 183.414062 C 73.238281 183.3125 73.425781 183.183594 73.597656 183.035156 C 74.070312 182.625 74.453125 182.113281 74.730469 181.558594 C 76.003906 179.257812 76.226562 177.59375 76.777344 175.164062 C 77.066406 173.855469 77.804688 172.054688 78.320312 169.859375 C 79.0625 171.269531 80.746094 172.824219 82.09375 173.722656 C 83.121094 173.894531 83.472656 170.910156 83.765625 169.777344 C 84.628906 166.734375 85.449219 163.65625 86.113281 160.558594 C 87.117188 156.089844 87.625 151.324219 86.757812 146.808594 C 86.476562 145.265625 85.871094 143.027344 84.726562 141.742188 C 83.554688 140.421875 83.875 139.257812 84.136719 137.785156 C 84.4375 136.09375 84.203125 134.332031 84.507812 132.644531 C 84.554688 132.339844 84.652344 132.046875 84.78125 131.765625 C 85.382812, C 132.113281 86.644531 132.800781 87.355469 133.472656 C 86.738281 136.332031 88.179688 137.898438 90.625 137.0625 C 94.066406 135.890625 93.628906 132.742188 93.589844 130.09375 C 93.546875 128.5 94.15625 126.957031 96.546875 128.027344 C 99.0625 129.152344 100.890625 136.335938 99.777344 138.566406 C 99.542969 139.117188 99.277344 139.65625 98.945312 140.160156 C 98.867188 140.285156 98.828125 140.429688 98.835938 140.574219 C 98.835938 140.722656 98.882812 140.871094 98.976562 140.992188 C 99.0625 141.121094 99.1875 141.222656 99.339844 141.285156 C 99.488281 141.34375 99.65625 141.363281 99.820312 141.34375 C 100.546875 141.257812 101.269531 141.171875 101.996094 141.117188 C 103.027344 141.035156 104.078125 141.09375 105.101562 141.285156 C 106.117188 141.472656 107.089844 141.847656 108.082031 142.046875 C 110.066406 142.449219 112.070312 141.816406 113.050781 139.949219 C 113.371094 139.339844 113.636719 138.527344 113.554688 137.855469 C 113.40625 136.664062 112.390625 135.828125 111.414062 135.21875 C 111.117188 135.03125 110.804688 134.859375 110.476562 134.714844 C 110.058594 134.507812 109.640625 134.324219 109.199219 134.167969 C 108.121094 133.890625 107.074219 133.636719 105.988281 133.4375 C 104.917969 133.234375 103.859375 133.03125 102.800781 132.851562 C 101.722656 132.675781 100.644531 132.523438 99.5625 132.386719 C 98.46875 132.25 97.375 132.128906 96.277344 132.019531 C 94.09375 131.804688 91.910156 131.667969 89.71875 131.515625 C 89.222656 131.484375 88.738281 131.671875 88.359375 131.96875 C 87.980469 132.273438 87.730469 132.675781 87.644531 133.121094 C 87.566406 133.570312 87.664062 134.03125 87.925781 134.410156 C 88.183594 134.789062 88.578125 135.066406 89.03125 135.195312 C 90.191406 135.558594 91.246094 135.625 92.433594 135.761719 C 93.628906 135.902344 94.820312 136.042969 96.015625 136.1875 C 97.207031 136.332031 98.402344 136.472656 99.59375 136.617188 C 100.785156 136.761719 101.980469 136.902344 103.175781 137.042969 C 104.070312 137.144531 104.980469 137.257812, C 105.835938 137.359375 C 105.265625 136.3125 103.761719 133.859375 103.066406 132.824219 C 103.066406 132.824219 102.558594 131.992188 101.339844 130.34375 C 99.660156 130.0625 98.136719 129.128906 97.769531 127.570312 C 96.609375 122.675781 101.496094 122.234375 104.957031 122.1875 C 105.203125 122.1875 105.429688 122.1875 105.628906 122.1875 C 106.941406 122.421875 110.125 123.273438 110.230469 124.773438 C 110.40625 127.320312 107.996094 128.378906 106.019531 129.21875 C 106.691406 129.683594 107.328125 130.132812 108.074219 130.605469 C 109.261719 131.367188 110.476562 132.113281 111.730469 132.808594 C 113.675781 133.910156 115.683594 135.03125 118.042969 135.195312 C 122.414062 135.503906 124.722656 131.382812 127.871094 129.046875 C 129.09375 128.132812 130.511719 127.570312 132.03125 127.503906 C 134.722656 127.378906 137.414062 127.207031 140.097656 127.0625 C 142.785156 126.910156 145.476562 126.757812 148.15625 126.617188 C 149.500781 126.550781 150.847656 126.484375 152.1875 126.515625 C 154.90625 126.582031 157.777344 126.792969 160.363281 125.996094 C 163.214844 125.113281 159.730469 122.265625 158.0625 121.03125 C 156.019531 119.480469 153.828125 118.109375 151.578125 116.851562 C 150.332031 116.207031 149.039062 115.667969 147.707031 115.203125 C 146.378906 114.753906 145.003906 114.378906 143.625 114.042969 C 140.839844 113.378906 138.003906 113.003906 135.207031 112.597656 C 133.835938 112.40625 132.445312 112.234375 131.054688 112.125 C
132.753906 114.65625 136.148438 116.0625 136.828125 119.328125 C 137.273438 121.476562 136.441406 123.742188 135.097656 125.421875 C 133.214844 127.742188 130.296875 127.929688 127.226562, C 129.300781 C 127.21875 129.300781 127.207031 129.300781 127.203125 129.300781 C 125.433594 129.914062 122.679688 131.5625 121.863281 133.371094 C 121.332031 134.53125 121.257812 135.828125 121.582031 137.0625 C 121.925781 138.378906 122.734375 139.511719 123.40625 140.683594 C 123.753906 141.300781 124.121094 141.910156 124.433594 142.542969 C 124.753906 143.164062 125.019531 143.804688 125.273438 144.460938 C 125.777344 145.761719 126.28125 147.066406 126.882812 148.339844 C 127.480469 149.613281 128.15625 150.84375 128.789062 152.097656 C 129.445312 153.355469 130.121094 154.574219 130.605469 155.902344 C 131.097656 157.242188 131.367188 158.636719 131.558594 160.035156 C 131.96875 162.832031 132.097656 165.699219 133.023438 168.382812 C 131.632812 167.496094 129.890625 166.957031 128.367188 166.207031 C 126.503906 165.3125 124.734375 164.207031 122.863281 163.324219 C 121.054688 162.480469 119.246094 161.636719 117.414062 160.867188 C 116.496094 160.472656 115.5625 160.089844 114.648438 159.695312 C 113.734375 159.3125 112.824219 158.90625 111.914062 158.503906 C 110.078125 157.707031 108.285156 156.835938 106.621094 155.761719 C 104.226562 154.171875 103.203125 153.007812 101.9375 150.851562 C 101.417969 149.941406 101.144531 148.972656 100.734375 148.03125 C 100.429688 147.242188 99.878906 146.632812 99.433594 145.929688 C 98.542969 144.546875 97.6875 143.136719 96.859375 141.722656 C 96.453125 141.003906 96.046875 140.285156 95.648438 139.5625 C 95.433594 139.203125 95.242188 138.816406 94.949219 138.503906 C
94.464844 138.03125 93.703125 137.957031 93.15625 137.550781 C 91.757812 136.472656 91.6875 134.3125 91.625 132.59375 C 91.570312 131.246094 91.625 129.890625 91.613281 128.535156 C 91.601562 127.214844 91.636719 125.886719 91.742188 124.566406 C 91.941406 122.3125 92.34375 119.683594 94.179688 118.109375 C 94.351562 117.964844 94.539062 117.828125 94.730469 117.722656 C 94.925781 117.613281 95.121094 117.53125 95.335938 117.46875 C 95.535156 117.40625 95.75 117.359375 95.964844 117.3125 C 96.171875 117.269531 96.394531 117.210938 96.605469 117.183594 C 97.027344 117.121094 97.457031 117.078125 97.882812 117.050781 C 98.3125 117.023438 98.742188 117.015625 99.167969 117.007812 C 100.0625 116.992188 100.945312 116.992188 101.835938 117.019531 C 102.734375 117.042969 103.621094 117.105469 104.511719 117.171875 C 104.960938 117.207031 105.382812 117.328125 105.804688 117.375 C 106.230469 117.410156 106.652344 117.4375 107.066406 117.453125 C 107.898438 117.488281 108.722656 117.488281 109.554688 117.480469 C 111.230469 117.453125 112.875 117.332031 114.515625 117.121094 C 115.339844 117.023438 116.152344 116.890625 116.960938 116.742188 C 117.765625 116.597656 118.5625 116.421875 119.359375 116.238281 C 120.953125 115.871094 122.515625 115.425781 124.023438 114.835938 C 125.0625 114.433594 126.089844 114.007812 127.089844 113.511719 C 128.097656 113.019531 129.054688 112.5625 129.867188 111.828125 C 130.679688 111.097656 131.339844 110.214844 131.707031 109.203125 C 132.082031 108.164062 132.140625 107.046875 131.925781 105.984375 C 131.515625 104.03125 130.3125 102.304688 129.050781 100.808594 C 126.429688 97.734375 123.972656 94.546875 121.300781 91.503906 C 121.226562 91.412719 121.148438 91.328125 121.074219 91.238281, C 119.992188 89.976562 119.953125 85.808594 118.246094 82.746094 C 118.246094 82.746094 118.246094 82.746094 118.238281 82.746094 C 117.28125 81.007812 116.175781 79.347656 114.933594 77.808594 C 113.179688 75.675781, C 111.4375 74.070312 109.675781 72.285156 C 108.691406 71.296875 107.71875 70.300781 106.738281 69.3125 C 105.769531 68.324219 104.75 67.40625 103.667969 66.554688 C 102.585938 65.703125 101.457031 64.917969 100.234375 64.300781 C 99.027344 69.632812 100.179688 66.132812 93.0625 65.339844 C 92.5625 65.277344 92.113281 65.816406 92.121094 66.261719 C 92.15625 68.277344 92.652344 70.195312 94 71.820312 C 94.957031 72.964844 96.097656 73.703125 96.972656 74.929688 C 99.121094 77.910156 98.8125 82.734375 95.632812 84.984375 C 90.34375 88.730469 85.980469 84.605469 80.222656 83.144531 C 77.875 82.539062 75.351562 82.78125 72.960938 83.160156 C 71.785156 83.347656 70.613281 83.550781 69.449219 83.785156 C 68.875 83.894531 68.300781 84.011719 67.734375 84.136719 C 67.164062 84.265625 66.597656 84.390625 66.046875 84.550781 C 65.5 84.714844 64.972656 84.886719 64.449219 85.085938 C 63.921875 85.285156 63.40625 85.519531 62.910156 85.78125 C 60.265625 87.015625 48.9375 87.625 55.742188 75.113281 C 57.132812 72.351562 62.125 67.488281 62.640625 64.5 C 63.023438 62.25 63.824219 60.582031 66 59.515625 C 67.835938 58.613281 69.859375 58.089844 71.839844 57.65625 C 71.839844 57.65625 71.839844 57.648438 71.839844 57.648438 C 72.691406 57.464844 73.550781 57.300781 74.421875 57.167969 C 76.109375 56.910156 77.769531 56.789062 78.792969 55.324219 C 79.964844 53.652344 81.738281 52.433594 83.375 51.132812 C 86.171875 48.941406 85.183594 45.644531 88.109375 44.019531 C 88.769531 43.644531 89.476562 43.339844 90.195312 43.09375 C 92.113281 42.484375 94.203125 42.265625 96.046875 41.585938 C 96.972656 41.25 97.851562 40.832031 98.742188 40.460938 C 99.628906 40.085938 100.539062 39.734375 101.433594 39.417969 C 103.214844 38.773438 105.015625 38.207031 106.835938 37.691406 C 108.644531 37.171875 110.460938 36.679688 112.324219 36.445312 C 113.25 36.335938 114.1875 36.269531 115.125 36.347656 C 116.050781 36.425781 116.976562 36.632812 117.820312 37.035156 C 119.515625 37.859375 120.539062 39.496094 120.675781 41.3125 C 120.722656 42.558594 120.15625 43.785156 120.027344 44.964844 C 119.992188 45.332031 120.03125 45.695312 120.054688 46.054688 C 118.269531 46.210938 116.484375 46.371094 114.695312 46.515625 C 114.082031 46.5625 113.464844 46.617188 112.855469 46.710938 C 112.25 46.808594 111.660156 46.957031 111.09375 47.179688 C 109.960938 47.632812 109.03125 48.488281 108.347656 49.496094 C 107.992188 50.011719 107.714844 50.582031 107.511719 51.167969 C 107.300781 51.75 107.167969 52.351562 107.046875 52.953125 C 106.804688 54.140625 106.605469 55.332031 106.402344 56.53125 C 106.378906 56.632812 106.359375 56.722656 106.335938 56.808594 C 105.753906 57.097656 105.171875 57.386719 104.59375 57.6875 C 103.4375 58.285156 102.335938 58.9375 101.195312 59.589844 C 99.019531 60.882812 96.507812 62.5625 94.953125 64.609375 C 93.933594 65.960938 93.617188 67.617188 92.96875 69.171875 C 91.871094 71.757812 89.164062 74.597656 87.75 78.058594 C 86.335938 81.507812 86.652344 85.386719 87.152344 89.105469 C 87.242188 89.785156 87.351562 90.464844 87.429688 91.148438 C 87.4375 91.226562 87.4375 91.3125 87.4375 91.394531 C 87.460938 91.710938 87.480469 92.03125 87.5 92.347656 C 87.660156 93.847656 87.804688 95.355469 87.761719 96.8125 C 87.742188 97.449219 87.636719 98.074219 87.535156 98.707031 C 87.433594 99.324219 87.3125 99.945312 87.171875 100.558594 C 86.875 101.777344 86.527344 102.984375 86.125 104.167969 C 85.734375 105.347656 85.277344 106.503906 84.765625 107.632812 C 84.25 108.753906 83.675781 109.855469 83.058594 110.925781 C 82.4375 111.992188 81.753906 113.039062 81.027344 114.042969 C 79.550781 116.0625 77.925781 117.996094 76.089844 119.738281 C 74.253906 121.460938 72.222656 123.042969 69.960938 124.359375 C 67.738281 125.625 65.46875 126.8125 62.964844 127.453125 C 60.851562 127.988281 58.601562 128.148438 56.476562 128.53125 C 56.722656 129.257812 57.28125 129.84375 58.375 130.125 C 58.707031 130.214844 59.058594 130.257812 59.402344 130.292969 C 59.742188 130.328125 60.097656 130.347656 60.4375 130.363281 C 61.121094 130.398438 61.804688 130.414062 62.488281 130.421875 C 63.863281 130.441406 65.234375 130.410156 66.613281 130.390625 C 68 130.363281 69.390625 130.3125 70.785156 130.261719 C 70.785156 130.261719 70.785156 130.261719 70.789062 130.261719 C 69.109375 127.609375 67.664062 124.332031 66.875 121.304688 C 65.546875 121.515625 64.222656 121.695312 62.929688 122.109375 C 61.667969 122.519531 60.492188 123.164062 59.308594 123.816406 C 58.21875 124.195312 57.152344 124.527344 56.054688 124.773438 C 56.027344 124.554688 55.984375 124.324219 55.933594 124.089844 C 55.457031 121.8125 53.96875 119.851562 52.417969 118.273438 C 51.636719 117.488281 50.789062 116.761719 49.90625 116.109375 C 49.019531 115.445312 48.074219 114.828125 47.175781 114.164062 C 46.347656 113.546875 45.539062 112.894531 44.753906 112.210938 C 43.960938 111.527344 43.214844 110.785156 42.558594 109.964844 C 43.160156 108.292969 44.125 106.765625 45.300781 105.425781 C 46.074219 104.542969 46.949219 103.75 47.867188 103.035156 C 48.78125 102.3125 49.746094 101.660156 50.734375 101.066406 C 52.589844 99.960938 54.53125 99.035156 56.386719 97.996094 C 58.191406 96.976562 59.921875 95.84375 61.523438 94.546875 C 63.113281 93.242188 64.566406 91.757812 65.785156 90.058594 C 67.019531 88.328125 67.957031 86.402344 68.558594 84.347656 C 69.007812 82.828125 69.269531 81.328125 68.972656 79.761719 C 68.867188 79.136719 68.65625 78.523438 68.3125 78 C 67.964844 77.476562 67.480469 77.054688 66.917969 76.808594 C 65.78125 76.328125 64.660156 77.171875 64.125 78.148438 C 63.589844 79.136719 63.59375 80.285156 63.582031 81.402344 C 63.5625 81.96875 63.523438 82.527344 63.449219 83.089844 C 63.375 83.652344 63.253906 84.210938 63.082031 84.753906 C 62.570312 86.324219 61.566406 87.730469 60.351562 88.847656 C 58.0625 90.945312 55.195312 92.332031 52.414062 93.671875 C 49.625 95.007812 46.828125 96.30625 44.160156 97.84375 C 41.464844 99.398438 38.78125 101.074219 36.578125 103.386719 C 35.480469 104.535156 34.570312 105.964844 34.054688 107.492188 C 33.789062 108.269531 33.644531 109.078125 33.566406 109.894531 C 33.492188 110.714844 33.476562 111.53125 33.503906 112.34375 C 33.550781 113.972656 33.777344 115.59375 34.101562 117.195312 C 34.425781 118.8125 34.882812 120.40625 35.5 121.929688 C 36.121094 123.453125 36.945312 124.90625 38.003906 126.183594 C 38.9375 127.339844 40.0625 128.328125 41.027344 129.476562 C 41.480469 130.035156 41.886719 130.652344 42.101562 131.363281 C 42.320312 132.078125 42.335938 132.835938 42.25 133.574219 C 42.078125 135.039062 41.667969 136.457031 41.121094 137.820312 C 40.578125 139.183594 39.886719 140.480469 39.136719 141.738281 C 38.367188 143.011719 37.542969 144.242188 36.691406 145.464844 C 35.90625 146.589844 35.171875 147.75 34.734375 149.035156 C 33.886719 151.507812 34.25 153.761719 34.933594 156.097656 C 35.617188 158.433594 36.613281 160.75 37.386719 163.121094 C 37.78125 164.277344 38.132812 165.457031 38.402344 166.652344 C 38.675781 167.847656 38.863281 169.0625 38.921875 170.308594 C 39.027344 172.84375 38.644531 175.042969 37.246094 177.058594 C 36.542969 178.0625 35.628906 178.96875 34.582031 179.691406 C 33.546875 180.410156 32.375 180.949219 31.1875 181.355469 C 30.5625 181.574219 30.335938 182.324219 30.863281 182.820312 C 31.75 183.660156 32.800781 184.316406 33.988281 184.6875 C 35.175781 185.0625 36.480469 185.15625 37.78125 185.164062 C 38.4375 185.167969 39.097656 185.15625 39.757812 185.140625 C 40.421875 185.125 41.082031 185.109375 41.742188 185.09375 C 43.070312 185.0625 44.398438 185.03125 45.726562 185.003906 C 47.0625 184.980469 48.398438 184.957031 49.734375 184.929688 C 52.410156 184.882812 55.085938 184.835938 57.761719 184.789062 C 58.9375 184.769531 60.121094 184.742188 61.304688 184.796875 C 62.480469 184.859375 63.667969 185 64.792969 185.335938 C 66.445312 185.824219 67.753906 186.644531 69.347656 185.742188 C 70.0625 185.347656 70.613281 184.6875 70.9375 183.953125 C 71.257812 183.21875 71.3125 182.402344 71.1875 181.628906 C 71.066406 180.859375 70.753906 180.144531 70.371094 179.492188 C 69.628906 178.183594 68.683594 176.980469 67.769531 175.78125 C 66.84375 174.570312 65.945312 173.351562 65.128906 172.074219 C 64.304688 170.796875 63.546875 169.433594 63.285156 167.953125 C 63.046875 166.582031 63.296875 165.1875 63.664062 163.855469 C 64.035156 162.527344 64.539062 161.242188 65.113281 159.996094 C 65.691406 158.75 66.324219 157.515625 67.042969 156.34375 C 67.761719 155.171875 68.558594 154.046875 69.46875 153.042969 C 71.285156 151.042969 73.4375 149.425781 75.808594 148.277344 C 78.179688 147.128906 80.777344 146.445312 83.0625 145.199219 C 83.761719 144.816406 84.417969 144.367188 85.007812 143.824219 C 85.59375 143.269531 86.113281 142.625 86.503906 141.898438 C 87.28125 140.445312 87.429688 138.710938 87.035156 137.097656 C 86.632812 135.515625 85.785156 134.074219 84.855469 132.722656 C 83.929688 131.363281 82.929688 130.0625 82.089844 128.636719 C 81.664062 127.929688 81.269531 127.195312 80.976562 126.421875 C 80.828125 126.035156 80.710938 125.636719 80.632812 125.230469 C 80.597656 125.019531 80.578125 124.808594 80.566406 124.597656 C 80.554688 124.390625 80.578125 124.191406 80.589844 123.929688 C 80.613281 123.40625 80.664062 122.878906 80.722656 122.351562 C 80.84375 121.296875 81 120.253906 81.171875 119.207031 C 81.351562 118.164062 81.546875 117.128906 81.78125 116.101562 C 82.246094 114.042969 82.867188 112.011719 83.625 110.035156 C 85.167969 106.070312 87.28125 102.285156 89.035156 98.429688 C 89.863281 96.558594 90.636719 94.664062 91.363281 92.75 C 92.09375 90.835938 92.777344 88.90625 93.382812 86.9375 C 93.6875 85.960938 93.957031 84.972656 94.203125 83.976562 C 94.347656 83.476562 94.488281 82.980469 94.589844 82.464844 C 94.648438 82.203125 94.6875 81.945312 94.722656 81.675781 C 94.757812 81.410156 94.765625 81.132812 94.757812 80.867188 C 94.742188 80.324219 94.636719 79.800781 94.453125 79.304688 C 94.074219 78.308594 93.386719 77.507812 92.597656 76.816406 C 91.816406 76.136719 90.941406 75.582031 90.066406 75.015625 C 89.519531 74.671875 88.96875 74.324219 88.441406 73.945312 C 87.914062 73.5625 87.402344 73.164062 86.929688 72.71875 C 85.996094 71.84375 85.175781 70.84375 84.546875 69.726562 C 83.921875 68.609375 83.496094 67.375 83.289062 66.105469 C 83.28125 66.039062 83.28125 65.980469 83.277344 65.916016 C 83.28125 65.851562 83.292969 65.792969 83.3125 65.730469 C 83.332031 65.675781 83.359375 65.625 83.390625 65.574219 C 83.425781 65.527344 83.46875 65.492188 83.511719 65.460938 C 83.597656 65.390625 83.722656 65.339844 83.832031 65.351562 C 84.050781 65.375 84.230469 65.511719 84.402344 65.640625 C 84.75 65.894531 85.070312 66.179688 85.371094 66.480469 C 85.914062 67.035156 86.445312 67.609375 86.964844 68.191406 C 87.480469 68.773438 87.992188 69.367188 88.5 69.964844 C 89.515625 71.160156 90.503906 72.386719 91.480469 73.625 C 92.460938 74.859375 93.421875 76.109375 94.390625 77.355469 C 97.28125 81.085938 100.320312 85.101562 93.691406 87.4375 C 91.375 88.222656 89.617188 87.578125 88.152344 85.578125 C 86.867188 83.804688 87.355469 81.058594 88.832031 79.472656 C 89.242188 79.03125 89.71875 78.640625 90.207031 78.285156 C 88.582031 76.546875 86.871094 74.882812 85.042969 73.339844 C 83.171875 71.765625 81.164062 70.367188 78.910156 69.355469 C 77.445312 68.6875 75.894531 68.25 74.328125 67.863281 C 72.75 67.472656 71.171875 67.136719 69.582031 66.894531 C 66.40625 66.410156 63.261719 66.238281 60.085938 66.175781 C 56.914062 66.121094 53.75 66.210938 50.570312 66.277344 C 47.421875 66.34375 44.210938 66.398438 41.089844 67.179688 C 39.535156 67.582031 37.996094 68.09375 36.5625 68.859375 C 35.84375 69.246094 35.152344 69.683594 34.519531 70.183594 C 33.878906 70.683594 33.296875 71.242188 32.777344 71.847656 C 31.742188 73.050781 30.925781 74.453125 30.707031 75.97265625 C 32.683594 76.730469 35.964844 76.667969 38.0625 75.828125 C 39.226562 75.359375 40.800781 75.136719 41.15625 73.871094 C 42.589844 72.792969 43.722656 72.183594 44.863281 72.117188 C 48.378906 71.929688 52.65625 72.058594 54.824219 71.609375 Z M 54.824219 71.609375 " fill-opacity="1" fill-rule="nonzero"/></g></svg>
