<?xml version="1.0" encoding="UTF-8" standalone="no"?>
<svg
   width="145.18661"
   zoomAndPan="magnify"
   viewBox="0 0 108.83188 175.09314"
   height="233.45752"
   preserveAspectRatio="xMidYMid"
   version="1.0"
   id="svg2"
   sodipodi:docname="14.svg"
   inkscape:version="1.4 (86a8ad7, 2024-10-11)"
   xmlns:inkscape="http://www.inkscape.org/namespaces/inkscape"
   xmlns:sodipodi="http://sodipodi.sourceforge.net/DTD/sodipodi-0.dtd"
   xmlns="http://www.w3.org/2000/svg"
   xmlns:svg="http://www.w3.org/2000/svg">
  <sodipodi:namedview
     id="namedview2"
     pagecolor="#ffffff"
     bordercolor="#000000"
     borderopacity="0.25"
     inkscape:showpageshadow="2"
     inkscape:pageopacity="0.0"
     inkscape:pagecheckerboard="0"
     inkscape:deskcolor="#d1d1d1"
     inkscape:zoom="3.89"
     inkscape:cx="71.979434"
     inkscape:cy="116.83805"
     inkscape:window-width="2560"
     inkscape:window-height="1369"
     inkscape:window-x="-8"
     inkscape:window-y="-8"
     inkscape:window-maximized="1"
     inkscape:current-layer="svg2" />
  <defs
     id="defs1">
    <clipPath
       id="be42157624">
      <path
         d="M 58,24.695312 H 167.64453 V 200.10156 H 58 Z m 0,0"
         clip-rule="nonzero"
         id="path1" />
    </clipPath>
  </defs>
  <g
     clip-path="url(#be42157624)"
     id="g2"
     transform="translate(-58.35933,-24.943775)">
    <path
       fill="#f5ded2"
       d="m 58.617188,180.05078 c 1.082031,3.92578 3.527343,6.80078 7.433593,8.08594 2.191407,0.72265 4.691407,1.05078 6.980469,1.23437 2.320312,0.19532 4.570312,0.16797 6.875,-0.30078 3.652344,-0.73437 8,-2.36328 10.730469,-4.90625 1.464843,0.94922 2.816406,2.33985 3.726562,3.76953 -0.503906,0.625 -0.773437,1.41797 -1.003906,2.1836 -0.257813,0.88672 -0.570313,2.17968 0.08594,2.98828 0.613282,0.75781 1.886719,0.74609 2.777344,0.98828 1.800782,0.5 3.40625,1.46484 5.171871,2.05078 0.3086,0.43359 0.5586,0.87891 1.00391,1.27734 0.48047,0.4336 1.04297,0.72657 1.54687,1.14844 1.21485,1.01563 1.47266,1.73047 2.6211,0.71094 0.85547,0.0859 1.83203,-0.004 2.46875,0.20312 0.59765,0.19532 1.33593,0.78516 2.00781,0.45313 0.26562,-0.12891 0.48437,-0.48047 0.58984,-0.82813 1.26563,0.21485 2.14063,0.88282 2.0586,-1.27734 -0.0977,-2.67578 -1.54297,-4.67969 -4.14063,-5.51953 -1.35937,-0.4375 -2.83984,-0.4375 -4.11719,-1.11328 -0.9375,-0.49219 -1.55468,-1.25781 -2.14453,-2.0625 0.30469,-0.53125 0.6836,-1.03125 1.08203,-1.39844 1.48438,-1.38672 3.58985,-1.91797 5.15625,-3.16797 0.76172,-0.60937 2.51172,-2.6289 2.97266,-4.14844 0.66016,0.10938 1.34766,0.0273 2.13672,0.008 3.46094,-0.10157 8.72266,-2.30078 12.29297,-0.94922 1.3164,1.98828 1.92578,4.375 2.58203,6.61719 0.60547,2.07421 1.26562,4.17968 3.68359,4.69531 2.53516,0.54297 5.01172,1.05469 7.50781,1.78515 2.30079,0.66797 4.33594,1.96875 6.76954,2.26954 1.26562,0.15625 2.45703,-0.13282 3.67968,0.33203 1.17969,0.4414 1.66016,0.74609 1.86719,-0.41797 0.86328,0.29297 1.76172,0.48047 2.67969,0.48437 1.33203,0.004 1.40625,-0.67187 1.10937,-1.53906 0.38672,0.008 0.69141,-0.11328 0.85938,-0.65625 0.26562,-0.84375 -0.32422,-1.73437 -0.86719,-2.30469 -2.46484,-2.58203 -6.41797,-1.6289 -9.77734,-2.10156 -1.875,-0.26172 -3.64453,-0.91016 -5.36328,-1.64062 -0.75391,-0.3125 -1.54297,-0.4375 -2.28907,-0.73047 -0.76953,-0.30469 -1.35547,-0.89844 -2.09375,-1.25 -0.49609,-1.51563 -0.70703,-3.07422 -0.63672,-4.73828 0.10157,-2.40235 0.95704,-4.66797 0.76954,-7.11329 -0.16407,-2.10156 -1.25,-4.83203 -2.3125,-6.66015 -1.98438,-3.40625 -5.76954,-5.41406 -8.27344,-8.48828 0.44141,-3.21485 1.64062,-6.11328 3.59375,-8.9336 1.17969,-1.70703 2.20703,-3.50781 3.37109,-5.21875 1.1875,-1.74218 2.66016,-3.24609 3.83985,-4.99218 1.11328,-1.64844 1.84765,-3.48829 2.89843,-5.16407 1.00391,-1.60547 2.27735,-3.08203 3.375,-4.61328 2.1211,-2.96875 2.8086,-7.0664 3.92969,-10.45703 0.60156,-1.8125 1.02734,-3.67187 1.30859,-5.55469 0.10547,-0.71484 0.62891,-3.17578 0.46094,-4.46093 0.10938,-1.08203 0.0312,-2.29297 0.0625,-3.20703 0.0469,-1.49219 -0.13672,-2.87891 -0.16406,-4.3125 0.78125,0.41406 1.44922,0.88281 2.19922,1.39453 0.76172,0.51953 1.21875,1.21093 1.875,1.72656 0.8164,0.64844 1.49609,0.71094 2.18359,1.57812 0.625,0.80079 1.36328,1.50782 2.4336,1.64844 0.58203,0.0781 1.53515,-0.43359 2.17968,-0.58203 1.78516,0.77344 2.94141,-0.16016 4.3086,-1.14062 0.88672,0.0586 2.13281,-0.0117 2.3789,-0.3125 0.35938,-0.4375 -0.082,-1.27344 -0.60156,-1.78907 0.10547,-1.21875 -1.81641,-2.40625 -2.65234,-3.0625 -1.40235,-1.10156 -3.04297,-1.898435 -4.48438,-2.949216 -1.57031,-1.144532 -3.30859,-1.75 -4.99609,-2.703125 -1.46875,-0.828125 -2.74219,-1.816407 -4.07031,-2.835938 -0.7461,-0.574219 -1.40625,-0.886719 -2.32422,-1.148437 -0.3086,-0.08984 -0.67578,-0.113282 -1.04688,-0.128906 -0.24609,-0.980469 -0.77734,-2.371094 -0.96484,-3.015626 -0.26563,-0.902343 -0.63281,-1.707031 -1.28125,-2.429687 -0.14844,-0.164063 -0.33985,-0.441406 -0.55078,-0.71875 0.76562,-1.367187 1.63672,-2.777344 2.59375,-3.964844 1.01562,-1.257812 2.0039,-2.460937 3.27343,-3.492187 1.3086,-1.0625 2.70313,-1.917969 3.03125,-3.605469 0.51954,-2.703125 1.14454,-5.332031 1.49219,-8.039063 l 0.0234,0.0039 c 0.26953,-1.40625 0.81641,-2.722657 1.24609,-4.09375 0.77344,-2.488281 1.13282,-5.117188 2.09766,-7.589844 0.42578,-1.089844 0.96484,-2.117187 1.45703,-3.152344 0.49219,-1.027343 -0.0469,-2.136719 -0.37109,-3.15625 0.0195,-0.492187 0.0117,-1.007812 0.0977,-1.378906 0.0977,-0.429687 0.62891,-1.789063 0.3711,-1.925781 L 159.25,44.195312 c 0.42969,-0.605468 0.85937,-1.15625 0.98437,-1.921874 0.17969,-1.089844 0.25391,-1.585938 0.89063,-2.542969 0.50391,-0.757813 0.97266,-1.535157 0.83594,-2.476563 -0.0664,-0.4375 -0.32422,-0.816406 -0.4375,-1.183594 -0.082,-0.253906 -0.10157,-0.582031 -0.16016,-0.867187 0.96484,-1.316406 0.20703,-3.195313 -1.4375,-3.785156 l -0.21484,0.03125 C 159.60547,30.84375 159.42969,30.253906 159,29.679688 c -0.44922,-0.589844 -1.65625,-1.457032 -2.64453,-1.46875 -0.16797,-0.644532 -0.53516,-1.257813 -1.32031,-0.976563 -0.80079,0.285156 -1.33204,1.792969 -1.5625,2.488281 -0.58594,1.742188 -0.71485,4.195313 -0.5625,6.011719 0.17578,2.074219 -0.21875,4.3125 -0.54297,6.375 -0.32422,2.011719 -1.41797,3.808594 -2.08203,5.734375 -0.5625,1.621094 -1.37891,2.957031 -1.83985,4.484375 -2.0039,1.425781 -2.10547,4.648437 -2.8164,6.714844 -0.3711,1.082031 -1.09375,2.070312 -1.57422,3.140625 -0.53125,1.175781 -0.94141,2.304687 -1.70703,3.378906 -0.50391,0.699219 -1.00782,1.285156 -1.42969,1.949219 -1.95703,0.332031 -4.35938,0.527343 -6.13672,0.140625 -1.91016,-0.414063 -3.61328,-1.304688 -5.53125,-1.503906 -0.35156,-0.625 -0.59375,-1.304688 -0.76563,-1.964844 -0.22265,-0.875 -0.58984,-1.667969 -0.93749,-2.507813 -0.21094,-0.519531 -0.37891,-1.441406 -0.73438,-2.023437 0.44141,-0.910156 0.78906,-1.863282 0.92578,-2.839844 0.37109,-2.738281 0.082,-5.734375 -0.38281,-8.351562 -0.23047,-1.300782 -0.67578,-2.648438 -1.11328,-3.90625 -0.35938,-1.039063 -0.98438,-2.382813 -0.98047,-3.542969 1.27344,-0.824219 2.51953,-1.652344 3.40234,-2.902344 0.98438,-1.394531 1.875,-3.140625 2.14453,-4.882813 0.82032,-0.132812 1,-0.691406 1.34766,-1.609374 0.19922,-0.527344 0.40234,-1.042969 0.65625,-1.535157 1.25,-0.113281 2.1875,0.160157 3.43359,0.519531 1.00782,0.285157 3.21485,0.582032 3.58594,-0.796874 0.625,-2.316407 -4.61328,-3.136719 -6.10937,-3.148438 -0.66016,-0.0039 -1.30469,0.04297 -1.94141,0.136719 -3.16797,-0.847657 -6.48437,-2.089844 -9.80469,-1.808594 -3.64843,0.3125 -5.39843,3.621094 -7.1914,6.214844 -0.78907,1.140625 -1.73438,2.136719 -2.52344,3.265625 -2.53125,-0.01172 -5.03906,0.417968 -7.20313,1.808594 -1.13281,0.730468 -2.15234,1.332031 -3.48437,1.746093 -1.41797,0.441407 -2.851564,0.660157 -4.128908,1.453125 -1,0.621094 -1.9375,1.417969 -2.589843,2.375 -4.449219,-1.183594 -8.441407,-2.640625 -12.890625,-0.546875 -2,0.941407 -3.800782,1.707031 -5.039063,3.5625 -1.359375,2.039063 -2.730469,3.195313 -4.734375,4.625 -2.117187,1.503907 -2.5,3.796875 -2.847656,6.160157 2.664062,1.300781 4.320312,-3.054688 6.296875,-4.558594 0.734375,0.636718 2.078125,1.113281 2.808594,1.433594 1.09375,0.472656 1.996093,0.359374 2.992187,0.238281 0.449219,0.511719 1.007813,0.992187 1.296875,1.265625 1.347657,1.269531 2.660157,2.042968 4.570313,2.246094 0.96875,0.105468 1.984375,0.03906 2.949218,0.0039 0.664063,-0.02344 1.375,-0.195313 2.0625,-0.265625 0.914063,1.933593 1.554688,3.964843 2.410157,5.9375 1.148437,2.652343 2.503906,4.101562 4.839843,5.84375 0.664068,0.492187 1.335938,1.109375 2.058598,1.617187 0.46093,2.101563 0.92578,4.214844 1.6875,6.1875 0.84375,2.183594 2.21875,4.285156 3.01953,6.5 0.16797,0.460938 0.45312,1.261719 0.63672,2.003906 -0.73438,1.34375 -0.84766,3.070313 -1.12891,4.519532 -0.32031,1.605468 -0.47656,3.429687 -0.54297,5.066406 -0.15234,3.546875 0.0703,7.035156 0.54297,10.523436 0.16797,1.24609 0.26172,2.42187 0.28516,3.64453 -0.48828,1.18359 -1.05078,2.4375 -1.36719,3.66797 -0.50781,1.97656 -0.96094,3.89453 -1.60938,5.82031 -1.55468,4.62109 -2.63281,9.37891 -4.507809,13.89062 -2,4.8086 -4.285156,9.45704 -6.113281,14.33594 -1.332031,3.5586 -2.632812,7.20313 -3.660156,10.85938 -0.5625,1.99609 -1.226563,4.01953 -1.867188,5.99609 -0.0078,0.0312 -0.01563,0.0586 -0.02344,0.0859 -0.917969,1.51172 -1.832031,3.13281 -2.273438,4.77734 -0.640625,2.39063 -0.296875,5.16406 0.3125,7.48828 0.05859,0.24219 0.101563,0.48828 0.132813,0.73438 -1.117188,4.19531 -3.707032,6.45312 -8.527344,7.14062 -4.070312,0.58203 -9.617188,0.72657 -11.9375,-3.17968 -1.292969,-2.19141 -1.039062,-4.45704 -0.296875,-6.76563 l -0.07422,-0.043 c 0.402344,-0.73047 0.933594,-1.36328 1.566406,-1.96875 0.480469,-0.46094 1.789063,-1.24609 1.867188,-1.96484 0.21875,-2.03906 -3.773438,-0.39844 -4.527344,0.0781 -3.589844,2.26953 -5.777344,7.00782 -4.605468,11.24219 z M 130.89062,32.035156 c 0.0117,0.04297 0.008,0.07422 0,0.08984 0,-0.03125 0,-0.0625 0,-0.08984 z m 0,0"
       fill-opacity="1"
       fill-rule="nonzero"
       id="path2" />
  </g>
</svg>
