<svg xmlns="http://www.w3.org/2000/svg" xmlns:xlink="http://www.w3.org/1999/xlink" width="300" zoomAndPan="magnify" viewBox="0 0 224.87999 225" height="300" preserveAspectRatio="xMidYMid meet" version="1.0"><defs><clipPath id="ab2449085c"><path d="M 30.449219 38.847656 L 194.613281 38.847656 L 194.613281 186 L 30.449219 186 Z M 30.449219 38.847656 " clip-rule="nonzero"/></clipPath></defs><g clip-path="url(#ab2449085c)"><path fill="#f5ded2" d="M 174.210938 81.148438 C 173.273438 80.746094 172.246094 80.445312 171.445312 80.066406 C 170.625 79.683594 169.726562 79.277344 168.8125 78.96875 C 167.988281 76.679688 165.574219 75.558594 163.769531 74.03125 C 163.105469 72.296875 162.699219 70.867188 161.21875 69.425781 C 159.613281 67.867188 158.054688 66.816406 157.390625 64.691406 C 156.410156 61.554688 155.1875 57.753906 153.128906 54.945312 C 154.921875 52.460938 157.964844 50.875 158.9375 47.902344 C 159.582031 45.945312 159.609375 43.078125 157.238281 42.128906 C 154.992188 41.230469 154.167969 42.667969 153.003906 43.789062 C 151.222656 43.796875 149.457031 43.808594 147.757812 43.488281 C 146.046875 43.15625 145.179688 43.082031 143.992188 43.355469 C 142.5 42.464844 140.300781 42.246094 138.746094 41.949219 C 136.414062 41.5 133.859375 41.621094 131.496094 41.949219 C 129.601562 42.214844 127.011719 42.601562 125.363281 43.664062 C 123.457031 44.894531 122.898438 46.417969 122.199219 48.226562 C 119.035156 48.703125 111.363281 50.324219 113.289062 52.925781 C 112.515625 54.480469 113.007812 56.976562 114.070312 58.128906 C 115.652344 59.839844 118.207031 58.617188 118.527344 61.625 C 118.640625 62.664062 118.445312 63.660156 117.785156 64.574219 C 117.136719 65.484375 116.109375 65.664062 116.203125 66.964844 C 116.324219 68.617188 117.984375 71.003906 119.640625 71.460938 C 121.160156 71.882812 122.554688 71.582031 123.90625 70.996094 C 124.457031 70.761719 125.199219 70.558594 125.941406 70.316406 C 126.445312 70.726562 126.933594 71.164062 127.53125 71.3125 C 128.703125 71.609375 129.800781 70.78125 130.90625 71.410156 C 131.738281 71.886719 132.605469 72.871094 133.296875 73.964844 C 133.460938 74.808594 133.550781 75.667969 133.542969 76.53125 C 133.515625 78.625 132.46875 80.828125 131.929688 82.800781 C 130.726562 87.191406 130.277344 91.910156 130.824219 96.671875 C 131.070312 98.828125 131.539062 100.871094 132.132812 102.972656 C 132.671875 104.90625 133.609375 106.394531 134.492188 108.199219 C 135.296875 109.847656 136.496094 111.867188 136.226562 113.734375 C 136.035156 115.097656 135.429688 116.671875 134.855469 118.21875 C 134.105469 117.121094 132.847656 115.839844 132.320312 115.085938 C 131.136719 113.378906 130.410156 111.324219 129.394531 109.464844 C 128.585938 107.980469 127.667969 106.546875 126.75 105.125 C 126.132812 104.164062 125.503906 102.9375 124.761719 101.84375 C 124.84375 100.171875 124.917969 98.484375 124.382812 96.96875 C 121.839844 89.761719 116.242188 83.878906 112.824219 77.054688 C 112.59375 73.460938 113.179688 69.660156 112.5 66.265625 C 111.96875 63.605469 111.15625 60.765625 110.34375 58.101562 C 111.871094 56.015625 106.480469 48.46875 105.230469 47.207031 C 103.707031 45.667969 101.449219 44.875 100.011719 43.355469 C 99.039062 42.324219 97.308594 38.925781 95.644531 38.855469 C 95.394531 38.847656 95.105469 38.835938 94.871094 38.890625 C 94.429688 40.667969 96.707031 42.109375 97.496094 43.507812 C 98.496094 45.289062 98.144531 46.851562 98.03125 48.648438 C 96.894531 48.71875 95.632812 48.523438 94.566406 49.054688 C 93.449219 49.609375 92.554688 50.550781 91.648438 51.433594 C 89.882812 53.152344 87.6875 53.960938 86.140625 55.726562 C 84.070312 55.03125 82.265625 56.144531 80.742188 57.734375 C 80.355469 58.140625 79.929688 58.777344 79.476562 59.460938 C 78.085938 60.289062 76.8125 61.410156 75.292969 62.117188 C 73.609375 62.902344 71.050781 63.351562 69.570312 64.539062 C 67.390625 66.292969 71.773438 67.503906 73.363281 67.425781 C 74.425781 67.375 76.527344 66.28125 77.714844 65.042969 C 78.949219 66.054688 80.113281 67.859375 81.453125 68.492188 C 82.839844 69.152344 83.519531 68.980469 84.855469 68.5 C 85.640625 68.214844 86.335938 68.070312 87.078125 67.996094 C 87.070312 68.710938 87.128906 69.414062 87.457031 70.039062 C 87.890625 70.863281 88.882812 71.40625 89.316406 72.21875 C 90.082031 73.652344 89.992188 75.410156 89.578125 77.054688 C 88.148438 77.859375 86.609375 78.941406 85.410156 80.152344 C 81.707031 80.554688 67.433594 82.710938 57.742188 92.65625 C 56.8125 89.390625 53.894531 85.871094 50.898438 84.710938 C 48.691406 83.859375 46.046875 84.175781 43.820312 83.605469 C 41.78125 83.089844 40 81.796875 37.984375 81.148438 C 35.453125 80.328125 32.800781 80.890625 30.460938 79.589844 C 32.953125 82.96875 36.859375 86.957031 40.984375 87.753906 C 45.511719 88.625 51.101562 87.863281 51.6875 93.75 C 51.875 95.632812 51.9375 99.378906 52.875 102.058594 C 52.75 103.714844 53.082031 105.746094 52.828125 106.972656 C 52.371094 109.238281 51.453125 111.332031 51.871094 113.898438 C 52.175781 115.761719 53.4375 117.875 54.125 119.695312 C 54.992188 121.984375 55.480469 124.035156 55.707031 126.460938 C 55.9375 128.917969 56.757812 131.386719 57.554688 133.886719 C 57.523438 136.839844 57.378906 139.699219 56.773438 142.480469 C 56.332031 144.488281 55.378906 146.726562 55.671875 148.789062 C 56.007812 151.140625 56.734375 153.480469 57.453125 155.695312 C 58.191406 157.984375 58.253906 160.292969 58.671875 162.625 C 58.921875 164.015625 60.847656 167.105469 62.269531 165.574219 C 62.835938 166.09375 63.546875 166.210938 64.515625 166.160156 C 65.152344 166.125 66.152344 165.972656 66.421875 165.519531 C 66.925781 165.808594 67.5 165.996094 67.992188 165.929688 C 68.621094 165.84375 68.886719 165.539062 68.964844 165.144531 C 69.628906 165.148438 70.171875 164.453125 70.207031 163.699219 C 70.242188 163.003906 69.578125 161.78125 69.097656 161.238281 C 67.929688 159.9375 66.625 158.984375 65.5 157.515625 C 62.984375 154.226562 63.015625 149.839844 63.421875 145.875 C 63.667969 143.445312 63.578125 140.984375 64.210938 138.648438 C 64.777344 136.539062 65.535156 134.472656 66.21875 132.457031 C 67.492188 128.695312 68.953125 125.203125 68.722656 121.375 C 70.003906 122.179688 71.269531 123.460938 72.136719 124.300781 C 73.625 125.742188 74.875 127.730469 74.941406 129.722656 C 75.011719 131.792969 73.53125 134.542969 72.570312 136.335938 C 71.570312 138.207031 69.621094 139.730469 70.710938 141.988281 C 71.523438 143.671875 73.25 145.101562 74.1875 146.75 C 75.339844 148.773438 75.980469 150.542969 77.941406 151.898438 C 79.550781 153.019531 81.160156 154.109375 82.523438 155.550781 C 84.25 157.371094 84.445312 158.925781 87.261719 159.085938 C 88.726562 159.171875 89.933594 159.320312 91.371094 159.394531 C 91.828125 159.417969 92.25 159.355469 92.59375 159.226562 C 93.921875 159.75 95.617188 159.71875 96.898438 159.242188 C 98.128906 158.785156 98.210938 158.320312 97.796875 157.804688 C 99.328125 157.390625 95.78125 154.898438 95.160156 154.628906 C 94.234375 154.226562 92.816406 154.632812 91.636719 154.722656 C 88.933594 154.234375 85.777344 151.269531 84.140625 149.519531 C 81.5625 146.757812 79.589844 144.5 80.503906 140.367188 C 81.40625 136.304688 85.710938 133.8125 87.460938 129.914062 C 88.382812 127.867188 89.1875 125.765625 89.628906 123.574219 C 90.011719 121.703125 89.363281 119.953125 89.089844 118.167969 C 90.582031 119.160156 92.566406 119.855469 93.863281 120.695312 C 96.015625 122.097656 96.980469 123.621094 96.585938 126.195312 C 96.207031 128.664062 96.609375 130.539062 97.566406 132.917969 C 97.796875 133.496094 98.851562 135.25 99.765625 135.933594 C 100.242188 137.066406 102.648438 138.332031 103.703125 137.570312 C 103.707031 137.570312 103.707031 137.570312 103.707031 137.570312 C 104.867188 137.980469 105.832031 136.023438 105.996094 134.683594 C 107.992188 133.710938 106.226562 126.558594 105.933594 125.109375 C 105.539062 123.140625 105.121094 120.882812 104.375 118.8125 C 107.078125 117.671875 109.6875 117.242188 111.710938 114.625 C 113.351562 112.496094 114.464844 108.957031 117.113281 107.8125 C 117.539062 108.699219 117.980469 109.578125 118.5 110.386719 C 120.777344 113.945312 124.324219 116.3125 126.785156 119.695312 C 128.980469 122.722656 129.433594 126.195312 131.066406 129.3125 C 130.421875 130.539062 129.6875 131.710938 128.960938 132.808594 C 127.488281 135.027344 126.851562 135.894531 127.257812 138.640625 C 127.589844 140.867188 128.007812 143.328125 129.394531 145.253906 C 130.734375 147.105469 132.160156 148.804688 132.875 150.9375 C 133.582031 153.046875 133.652344 155.738281 133.855469 158.011719 C 134.039062 160 133.917969 162.628906 135.792969 163.96875 C 139.433594 166.570312 144.164062 158.472656 142.53125 156.121094 C 144.328125 154.132812 140.695312 150.605469 139.8125 148.976562 C 138.714844 146.9375 138.613281 144.238281 136.554688 142.785156 C 137.011719 141.667969 136.976562 140.191406 136.355469 139.328125 C 136.859375 138.90625 137.277344 138.472656 137.753906 137.882812 C 138.308594 138.492188 138.992188 138.996094 139.738281 139.222656 C 140.554688 139.46875 142.121094 139.042969 142.589844 138.492188 C 143.933594 138.90625 144.664062 136.355469 143.777344 134.992188 C 145.117188 134.257812 143.625 131.59375 142.371094 130.558594 C 144.308594 127.011719 147.785156 123.167969 148.953125 119.570312 C 149.824219 120.347656 150.414062 121.78125 150.636719 122.769531 C 151.175781 125.199219 150.773438 127.640625 150.917969 130.183594 C 151.183594 134.941406 152.359375 139.921875 153.761719 144.320312 C 154.640625 147.066406 155.882812 149.6875 157.515625 152.046875 C 158.121094 152.925781 158.925781 153.8125 159.753906 154.722656 C 160.085938 155.8125 160.3125 156.953125 160.519531 157.738281 C 161.097656 159.984375 161.097656 162.316406 161.21875 164.742188 C 161.433594 169.074219 160.53125 173.734375 158.976562 177.621094 C 158.003906 178.140625 156.835938 178.511719 156.433594 179.359375 C 156.332031 179.398438 156.230469 179.449219 156.128906 179.496094 C 153.722656 180.660156 153.28125 183.417969 155.5 184.878906 C 157.421875 186.132812 160.34375 185.304688 162.605469 185.222656 C 165.375 185.121094 167.035156 184.605469 167.660156 181.839844 C 168.0625 180.085938 167.859375 178.382812 167.734375 176.597656 C 168.054688 175.503906 168.289062 174.371094 168.484375 173.417969 C 169.378906 168.953125 170.71875 164.675781 170.660156 159.855469 C 170.628906 157.121094 169.46875 155.917969 168.292969 153.703125 C 167.40625 152.027344 166.417969 149.828125 165.957031 147.984375 C 164.824219 143.460938 166.28125 138.542969 167.816406 134.488281 C 169 131.335938 170.839844 127.292969 174.394531 126.078125 C 174.625 126.214844 174.863281 126.34375 175.121094 126.460938 C 176.261719 126.949219 177.613281 126.492188 178.515625 127.304688 C 179.769531 128.4375 180.5 131.578125 181.359375 133.148438 C 183.472656 137 184.144531 141.726562 184.570312 146.011719 C 184.789062 148.261719 184.679688 150.515625 184.609375 152.792969 C 184.265625 153.832031 183.929688 154.878906 183.929688 156.011719 C 183.925781 158.476562 184.5625 160.796875 184.5625 163.390625 C 184.5625 165.996094 184.246094 168.117188 183.578125 170.464844 C 183.117188 172.070312 181.765625 176.027344 183.574219 177.265625 C 184.050781 177.589844 184.847656 177.578125 185.574219 177.503906 C 186.535156 178.296875 187.417969 179.320312 188.667969 179.378906 C 189.53125 179.421875 191.152344 178.824219 192.191406 178.21875 C 192.96875 178.308594 193.734375 177.929688 194.039062 177.226562 C 194.429688 176.324219 193.945312 174.515625 193.730469 173.683594 C 193.183594 171.539062 192.332031 169.585938 192.300781 167.234375 C 192.269531 164.761719 192.484375 162.214844 192.613281 159.699219 C 192.738281 157.234375 192.484375 155.132812 191.976562 152.792969 C 191.710938 151.578125 191.269531 150.460938 190.921875 149.304688 C 190.960938 147.789062 191.039062 146.285156 191.195312 144.789062 C 191.449219 142.382812 192.253906 140.230469 192.617188 137.871094 C 192.980469 135.496094 193.203125 133.191406 193.082031 130.800781 C 192.984375 128.941406 192.605469 127.117188 192.488281 125.324219 C 193.335938 122.269531 193.394531 118.746094 193.238281 115.742188 C 193.035156 111.757812 192.730469 107.992188 192.132812 104.050781 C 191.816406 101.933594 190.886719 100.304688 189.929688 98.367188 C 188.992188 96.476562 188.324219 94.363281 187.050781 92.558594 C 185.078125 89.773438 182.015625 87.402344 179.527344 85.015625 C 179.8125 83.9375 180.125 82.894531 180.136719 81.757812 C 180.167969 79.480469 179.621094 76.917969 179.382812 74.652344 C 178.953125 70.570312 177.277344 65.039062 178.40625 61.292969 C 177.207031 64.90625 174.308594 67.253906 174.292969 71.304688 C 174.289062 73.226562 174.769531 75.082031 174.769531 77.148438 C 174.769531 78.605469 174.59375 79.898438 174.210938 81.148438 Z M 174.210938 81.148438 " fill-opacity="1" fill-rule="nonzero"/></g></svg>