<?xml version="1.0" encoding="UTF-8" standalone="no"?>
<svg
   width="173.77229"
   zoomAndPan="magnify"
   viewBox="0 0 130.25971 168.08749"
   height="224.11665"
   preserveAspectRatio="xMidYMid"
   version="1.0"
   id="svg2"
   sodipodi:docname="dog-spotkania-psiarzy-hover.svg"
   inkscape:version="1.4 (86a8ad7, 2024-10-11)"
   xmlns:inkscape="http://www.inkscape.org/namespaces/inkscape"
   xmlns:sodipodi="http://sodipodi.sourceforge.net/DTD/sodipodi-0.dtd"
   xmlns="http://www.w3.org/2000/svg"
   xmlns:svg="http://www.w3.org/2000/svg">
  <sodipodi:namedview
     id="namedview2"
     pagecolor="#ffffff"
     bordercolor="#000000"
     borderopacity="0.25"
     inkscape:showpageshadow="2"
     inkscape:pageopacity="0.0"
     inkscape:pagecheckerboard="0"
     inkscape:deskcolor="#d1d1d1"
     inkscape:zoom="3.89"
     inkscape:cx="86.632391"
     inkscape:cy="111.95373"
     inkscape:window-width="2560"
     inkscape:window-height="1369"
     inkscape:window-x="-8"
     inkscape:window-y="-8"
     inkscape:window-maximized="1"
     inkscape:current-layer="svg2" />
  <defs
     id="defs1">
    <clipPath
       id="44321db591">
      <path
         d="M 47,28.171875 H 178 V 196.82812 H 47 Z m 0,0"
         clip-rule="nonzero"
         id="path1" />
    </clipPath>
  </defs>
  <g
     clip-path="url(#44321db591)"
     id="g2"
     transform="translate(-47.448354,-28.589702)">
    <path
       fill="#f5ded2"
       d="m 175.89844,181.25391 c -0.46094,-0.67188 -1.34375,-0.49219 -1.34375,-0.49219 0,0 -0.70313,-0.1875 -1.32032,-3.52344 -0.60937,-3.33594 -2.79296,-16.25781 -4.46875,-20.30859 -1.6875,-4.03907 -4.35546,-6.55469 -5.20312,-8.29688 -0.85938,-1.73828 -0.24219,-7.5625 -0.24219,-7.5625 l 1.40625,0.0937 c 0,0 1.00781,-4.59375 1.375,-8.02344 0.36719,-3.42968 6.125,-23.21093 5.75781,-28.53906 -0.36718,-5.328122 -0.89062,-8.69531 0.0937,-11.179685 0.97657,-2.476563 4.22657,-8.695313 4.78516,-17.707031 0.55469,-9 -0.52734,-11.210938 -1.99609,-13.046875 -1.46875,-1.835938 -3.28125,-2.484375 -3.46094,-2.519531 -0.17578,-0.03125 -0.57422,0.03516 -0.57422,0.03516 l -0.94531,-0.609375 c -0.043,-0.0625 -0.21875,-0.316407 -0.45313,-0.660157 0.0234,0.0078 0.043,0.03125 0.0664,0.03906 0.008,0.01172 0.008,0.02344 0.008,0.02344 v -0.01172 c 0,0 0.0117,0 0.0117,0.01172 l 0.21875,0.386719 c 0,0 -0.0312,-0.105469 -0.082,-0.292969 0.23047,0.148438 0.38672,0.210938 0.38672,0.210938 0,0 -0.21875,-0.199219 -0.47266,-0.515625 0,-0.01953 -0.008,-0.03125 -0.008,-0.05078 0.1875,0.167968 0.33594,0.25 0.33594,0.25 0,0 -0.19922,-0.28125 -0.41016,-0.671875 -0.0547,-0.08203 -0.0937,-0.1875 -0.14844,-0.28125 -0.008,-0.02344 -0.008,-0.04297 -0.0195,-0.0625 0.043,0 0.082,0 0.125,-0.01172 0.0742,0.07422 0.14844,0.148438 0.22266,0.21875 0.0508,0.04297 0.0937,0.08594 0.14453,0.128906 0.0547,0.1875 0.0859,0.300782 0.0859,0.300782 0,0 0.008,-0.08203 0.008,-0.21875 0.22266,0.1875 0.36719,0.304687 0.36719,0.304687 l -0.13672,-0.21875 c 0.32812,0.175781 0.59765,0.21875 0.58984,0.21875 0,0 -0.27344,-0.167969 -0.54687,-0.484375 0.0625,0.04297 0.125,0.09766 0.17968,0.128906 0.33594,0.230469 0.59766,0.417969 0.59766,0.417969 0,0 -0.15625,-0.28125 -0.41016,-0.609375 l -0.16796,-0.21875 c 0.0117,-0.07422 0.0117,-0.148438 0.0117,-0.242188 0.0195,0.04297 0.043,0.07422 0.0625,0.105469 0.21094,0.355469 0.34766,0.648438 0.34766,0.648438 0,0 -0.0117,-0.292969 -0.0859,-0.679688 0,0.01172 0.0117,0.01953 0.0195,0.03125 0.24219,0.378907 0.45313,0.648438 0.45313,0.648438 l -0.10547,-0.386719 c 0.043,0.04297 0.0937,0.07422 0.125,0.105469 0.125,0.09375 0.21094,0.136719 0.21094,0.136719 0,0 -0.0625,-0.07422 -0.14844,-0.1875 -0.082,-0.128907 -0.1875,-0.304688 -0.26953,-0.515626 -0.043,-0.105468 -0.0977,-0.21875 -0.12891,-0.335937 0.0234,-0.01172 0.0312,-0.01953 0.0547,-0.01953 0.0195,0.03125 0.0391,0.0625 0.0625,0.09375 0.0625,0.105468 0.125,0.199218 0.1875,0.292968 0.0547,0.08203 0.10547,0.15625 0.14844,0.230469 0.125,0.472657 0.16797,0.828125 0.16797,0.828125 0,0 0.0312,-0.210937 0.0508,-0.523437 0.0625,0.09375 0.10547,0.148437 0.10547,0.148437 l -0.0937,-0.328125 c 0.0117,0.01172 0.0195,0.02344 0.0195,0.02344 0,0 -0.008,-0.02344 -0.0195,-0.05469 0.10547,0.08594 0.17578,0.125 0.17578,0.125 0,0 -0.082,-0.125 -0.17578,-0.324219 0,-0.03125 0,-0.0625 0,-0.09375 0,-0.105468 -0.0117,-0.199218 -0.0234,-0.304687 0,0.01172 0.0117,0.01172 0.0234,0.02344 0.30468,0.417969 0.5664,0.699219 0.5664,0.699219 0,0 -0.0937,-0.199219 -0.22265,-0.511719 0.22265,0.28125 0.43359,0.523438 0.58984,0.691407 0.043,0.1875 0.0625,0.347656 0.0742,0.484375 0.0195,0.199218 0.0195,0.324218 0.0195,0.324218 0,0 0.0312,-0.117187 0.0625,-0.324218 0.0117,-0.08594 0.0195,-0.167969 0.0312,-0.273438 0.043,0.04297 0.0625,0.0625 0.0625,0.0625 0,0 -0.0195,-0.04297 -0.0625,-0.105468 0.0117,-0.15625 0.0117,-0.324219 0,-0.511719 0,-0.04297 0,-0.08594 -0.0117,-0.136719 0.043,0.03906 0.0664,0.0625 0.0664,0.0625 0,0 -0.0234,-0.04297 -0.043,-0.105469 0.043,0.03125 0.0742,0.07422 0.10547,0.09375 0.0625,0.242188 0.10547,0.386719 0.10547,0.386719 0,0 0,-0.113281 -0.0117,-0.3125 0,0 0.0117,0.01172 0.0117,0.01172 0,0 0,0 -0.0117,-0.01172 -0.0117,-0.179688 -0.0312,-0.429688 -0.0625,-0.722656 0.082,0.21875 0.14453,0.417968 0.17578,0.574218 0.0547,0.230469 0.0547,0.390626 0.0547,0.390626 0,0 0.0312,-0.148438 0.0312,-0.398438 0,-0.06641 0,-0.136719 -0.0117,-0.210938 0.0117,0.01953 0.0234,0.03125 0.0234,0.04297 0.0312,0.199219 0.0312,0.324219 0.0312,0.324219 0,0 0.0195,-0.07422 0.0312,-0.210938 0.008,0.01953 0.0195,0.04297 0.0312,0.05469 0.008,0.05078 0.008,0.09375 0.008,0.132812 0.0234,0.253907 0,0.398438 0,0.398438 0,0 0.0547,-0.144531 0.0859,-0.398438 0.0117,-0.125 0.0195,-0.269531 0.0195,-0.429687 0,-0.03906 0.0117,-0.08203 0.0117,-0.136719 0.0117,-0.21875 -0.0117,-0.542968 -0.0937,-0.890625 0.0742,-0.144531 0.10546,-0.28125 0.10546,-0.28125 0,0 -1.59765,-4.226562 -1.89843,-6.253906 -0.30474,-2.023398 -1.77349,-8.390586 -4.5938,-10.382774 -2.82422,-1.992187 -5.66407,-2.203124 -8.29688,-1.59375 -2.63281,0.609376 -5.79297,2.875 -6.46094,5.632813 -0.67187,2.757813 0.15625,7.65625 0.69922,9.953125 0.5586,2.296875 -0.42968,4.070312 0.92578,6.617188 1.33985,2.539062 2.14063,3.253906 2.14063,3.253906 0,0 -0.43359,-0.640625 -0.69531,-1.449219 0.29297,0.683594 0.5664,1.175781 0.5664,1.175781 0,0 -0.0742,-0.242187 -0.17578,-0.609375 0.23047,0.359375 0.46875,0.640625 0.67969,0.820313 0.24219,0.21875 0.41016,0.324218 0.41016,0.324218 0,0 -0.14844,-0.125 -0.35547,-0.378906 -0.19922,-0.25 -0.44141,-0.628906 -0.63282,-1.089844 -0.11328,-0.292968 -0.21875,-0.617187 -0.30078,-0.953124 0.0312,0.0625 0.0625,0.125 0.0937,0.175781 0.19922,0.359375 0.42969,0.691406 0.66016,0.988281 0,0.05078 0.0117,0.105469 0.0117,0.144531 0.008,0.261719 -0.0234,0.429688 -0.0234,0.429688 0,0 0.0625,-0.144531 0.10547,-0.417969 0,-0.01172 0,-0.01953 0,-0.03125 0.0859,0.09375 0.15625,0.1875 0.23047,0.261719 0.0312,0.304687 0.043,0.492187 0.043,0.492187 0,0 0.0312,-0.144531 0.0508,-0.386718 0.1289,0.125 0.23047,0.230468 0.3164,0.3125 0.0117,0.265624 0,0.496093 -0.043,0.664062 -0.0625,0.269531 -0.17579,0.40625 -0.17579,0.40625 0,0 0.13282,-0.113281 0.25,-0.375 0.082,-0.179688 0.13672,-0.429688 0.16797,-0.714844 0,0.01172 0.0117,0.01172 0.0117,0.01953 0.0195,0.179687 0.0312,0.335937 0.0195,0.472656 0,0.285156 -0.0742,0.453125 -0.0742,0.453125 0,0 0.0937,-0.160157 0.14844,-0.441407 0.0195,-0.09375 0.0312,-0.210937 0.043,-0.324218 0.0195,-0.07422 0.0391,-0.160156 0.0625,-0.273438 0.0391,-0.210937 0.0703,-0.492187 0.0703,-0.820312 0.16797,0.304687 0.31641,0.558594 0.39844,0.671875 0.0352,0.167969 0.0664,0.328125 0.0742,0.453125 -0.0195,0.125 -0.0312,0.199218 -0.0312,0.199218 0,0 0.0234,-0.04297 0.043,-0.125 0.0195,0.21875 0.0312,0.34375 0.0312,0.34375 0,0 0.0312,-0.175781 0.0312,-0.472656 0,-0.03125 0,-0.0625 0,-0.09375 0.0117,-0.04297 0.0195,-0.08203 0.0312,-0.125 0.0742,-0.304687 0.14844,-0.734375 0.13672,-1.226562 0,-0.136719 -0.0117,-0.285156 -0.0195,-0.421875 0,-0.0078 0,-0.03125 0,-0.03906 0.0508,0.113282 0.10156,0.21875 0.15625,0.335938 0.0508,0.101562 0.0937,0.21875 0.13671,0.3125 0.043,0.230468 0.0508,0.429687 0.043,0.597656 -0.0117,0.285156 -0.0664,0.460938 -0.0664,0.460938 0,0 0.0859,-0.15625 0.14843,-0.449219 0.0117,-0.07422 0.0312,-0.148438 0.043,-0.222657 0.0195,0.04297 0.0312,0.07422 0.043,0.117188 0,0.0625 0.008,0.117188 0.008,0.167969 0.0117,0.292969 -0.008,0.460937 -0.008,0.460937 0,0 0.0391,-0.15625 0.082,-0.417968 0.043,0.113281 0.0742,0.1875 0.0742,0.1875 0,0 -0.0117,-0.125 -0.0547,-0.347657 0.0312,-0.28125 0.0547,-0.648437 0.0234,-1.066406 -0.0117,-0.191406 -0.043,-0.390625 -0.0742,-0.589844 0.125,0.222657 0.23047,0.441407 0.32422,0.660157 0.16797,0.398437 0.26172,0.777343 0.29297,1.050781 0.0312,0.273437 0.0234,0.449219 0.0234,0.449219 0,0 0.0391,-0.167969 0.0625,-0.449219 0,-0.02344 0,-0.03125 0,-0.05469 0.0117,0.03125 0.0117,0.04297 0.0117,0.04297 0,0 0,-0.04297 -0.0117,-0.105469 0,-0.269531 -0.0312,-0.628906 -0.125,-1.015625 -0.0234,-0.08594 -0.043,-0.15625 -0.0742,-0.242187 0,-0.03125 -0.0117,-0.0625 -0.0234,-0.09375 0.043,0.04297 0.0742,0.08203 0.11719,0.125 0.125,0.335937 0.1875,0.566406 0.1875,0.566406 0,0 0,-0.125 -0.0195,-0.335937 0.15625,0.242187 0.29297,0.460937 0.3789,0.640624 0.11329,0.242188 0.17579,0.386719 0.17579,0.386719 0,0 -0.0195,-0.15625 -0.10547,-0.417969 -0.0312,-0.105468 -0.0703,-0.230468 -0.125,-0.378906 0.13672,0.117188 0.23047,0.179688 0.23047,0.179688 0,0 -0.13672,-0.15625 -0.32422,-0.410156 -0.0508,-0.125 -0.11719,-0.261719 -0.1875,-0.398438 -0.0547,-0.113281 -0.11719,-0.230469 -0.17969,-0.34375 -0.0117,-0.05469 -0.0195,-0.09766 -0.043,-0.148438 -0.008,-0.04297 -0.0312,-0.09375 -0.0391,-0.136718 0.0391,0.05469 0.0937,0.117187 0.13281,0.167968 0.29688,0.367188 0.53516,0.691407 0.69531,0.933594 0.0195,0.03125 0.0312,0.05078 0.0508,0.07422 0.0117,0.01953 0.0117,0.05078 0.0234,0.07422 0.0703,0.25 0.0937,0.40625 0.0937,0.40625 0,0 0,-0.105469 -0.0117,-0.304688 0.0508,0.09766 0.082,0.148438 0.082,0.148438 0,0 -0.0312,-0.09375 -0.0937,-0.25 0,-0.01172 0,-0.01172 0,-0.02344 0,0 0,-0.0078 0,-0.0078 0.0625,0.08203 0.0937,0.125 0.0937,0.125 0,0 -0.0391,-0.07422 -0.10156,-0.199219 -0.0234,-0.148437 -0.043,-0.335937 -0.0977,-0.523437 0.0977,0.144531 0.1914,0.28125 0.2539,0.398437 0.11328,0.199219 0.17969,0.332031 0.17969,0.332031 0,0 -0.0117,-0.07031 -0.0547,-0.199218 0.0625,0.105468 0.125,0.191406 0.17969,0.265624 0.14453,0.207032 0.25,0.3125 0.25,0.3125 0,0 -0.0742,-0.136718 -0.17578,-0.355468 -0.0977,-0.199219 -0.19922,-0.460938 -0.30469,-0.765625 0.125,0.1875 0.23828,0.34375 0.34375,0.480469 0.28516,0.789062 0.39844,1.667968 0.19922,2.003906 -0.23828,0.429687 -1.19531,0.609375 -1.40234,0.828125 -0.21094,0.210937 -0.60938,0.398437 -0.60938,0.398437 0,0 -0.89062,-0.09375 -1.59375,0.609375 -0.70312,0.703125 -4.38672,11.578125 -4.69141,12.492188 -0.30078,0.921875 -0.42968,1.226562 -0.42968,1.226562 0,0 -0.33594,0.03125 -0.49219,0.367188 -0.15625,0.335937 -0.0625,0.734375 -0.0625,0.734375 0,0 -0.33594,0.242187 -0.46094,0.609375 -0.125,0.367187 -0.1914,0.703125 -0.1914,0.703125 l -0.55469,1.320312 c 0,0 -0.15625,-0.09375 -0.46094,0.429688 -0.30469,0.527344 -0.15625,0.859375 -0.15625,0.859375 0,0 -1.92969,4.355469 -2.07812,5.855469 -0.15625,1.5 0.0937,2.453124 0.73437,3.15625 0.64063,0.703124 2.17188,0.703124 2.9375,0.367187 0.76563,-0.335937 1.34375,-0.554687 1.34375,-0.554687 l 1.37109,1.898437 c 0,0 -3.76562,9.156253 -4.625,13.625003 -0.85937,4.46875 -0.85937,8.02343 -0.79687,9.98437 0.043,1.47656 0.0742,9.42969 -0.043,13.8125 -0.125,-0.91016 -0.46094,-1.5625 -0.69141,-1.94141 -0.30468,-0.49218 -0.30468,-5.82031 0.125,-7.96093 0.42969,-2.14844 0.30469,-4.78125 0.42969,-5.9961 0.12891,-1.23047 0,-2.50781 -0.125,-3.30468 -0.125,-0.79688 -0.49219,-1.29297 -0.85937,-1.66016 -0.36719,-0.36719 -0.42969,-7.84375 -0.0625,-8.94531 0.36718,-1.10157 -0.0625,-1.65625 0.49218,-3.250002 0.55469,-1.59375 0.24219,-1.773437 -0.36718,-3.128906 -0.60938,-1.339844 -0.30469,-3.363281 -0.24219,-4.226562 0.0664,-0.859376 0.24219,-1.164063 0.30469,-3.492188 0.0625,-2.328125 -0.125,-1.339844 -0.1875,-2.328125 -0.0625,-0.976563 0.30468,-0.976563 0.42968,-1.835937 0.125,-0.859376 0.55469,-1.40625 0.92188,-2.390626 0.36719,-0.976562 0.49609,-0.976562 0.55859,-1.59375 0.0625,-0.609374 0.60547,-0.921874 0.67188,-3.304687 0.0625,-2.390625 0.54297,-1.226563 0.54297,-1.835937 0,-0.609376 0.55468,-1.59375 0.67187,-2.203126 0.125,-0.605468 0.73438,-1.339843 1.34375,-3.1875 0.60547,-1.835937 0.73438,-2.328124 0.85938,-4.78125 0.125,-2.457031 0.73437,-3.558593 0,-5.265624 -0.73438,-1.710938 -1.22657,-3.191407 -2.82032,-4.660157 -1.59765,-1.464843 -4.23046,-2.664062 -4.92968,-2.996093 -0.70313,-0.335938 -1.16407,-0.578126 -1.46875,-0.640626 -0.30469,-0.0625 -0.27344,-0.179687 -0.57813,-0.335937 -0.30469,-0.15625 -0.73437,-0.273437 -1.19531,-0.398437 -0.46094,-0.125 -0.85938,0.03125 -1.00781,0.125 -0.15625,0.09375 -1.375,-0.304688 -2.39063,-1.289063 -1.00781,-0.976563 -1.40625,-3.589844 -1.46875,-4.019531 -0.0625,-0.429688 -0.1875,-0.910156 0.1875,-2.023438 0.36719,-1.101562 1.34375,-4.164062 1.22656,-5.632812 -0.125,-1.46875 -0.42968,-4.53125 -1.22656,-5.632813 -0.79687,-1.101562 -1.22656,-1.164062 -1.76953,-1.289062 -0.0664,-0.01172 -0.10547,-0.03125 -0.16016,-0.0625 0,-0.242188 -0.0312,-0.515625 -0.0937,-0.734375 -0.082,-0.292969 -0.21093,-0.484375 -0.21093,-0.484375 0,0 0,0.222656 -0.0508,0.503906 -0.0117,0.07422 -0.0312,0.136719 -0.043,0.210937 -0.14453,-0.273437 -0.33594,-0.597656 -0.72266,-0.902343 -0.79687,-0.617188 -4.78516,-1.226563 -6.125,-0.492188 -0.15625,0.08203 -0.35547,0.199219 -0.59765,0.324219 -0.47266,0.07422 -0.96485,0.199219 -1.38672,0.347656 -0.32422,0.113282 -0.59766,0.230469 -0.78516,0.34375 -0.125,0.07422 -0.21094,0.136719 -0.25391,0.167969 -0.58593,0.09375 -1.09765,0.179687 -1.09765,0.179687 0,0 0.26172,0.05078 0.63672,0.105469 -0.0937,0.01953 -0.1875,0.03906 -0.26953,0.0625 -0.12891,0.03125 -0.24219,0.05078 -0.35938,0.08203 -0.0508,-0.0078 -0.0937,-0.01953 -0.0937,-0.01953 0,0 0.0117,0.01172 0.043,0.03125 -0.34766,0.07422 -0.57813,0.125 -0.57813,0.125 0,0 0.14844,0.01172 0.37891,0.02344 -0.0117,0.03906 -0.0312,0.113281 -0.0625,0.21875 l -0.25391,0.05078 c -0.043,0 -0.0937,0 -0.125,0.01172 -0.24218,0.01172 -0.38671,0 -0.38671,0 0,0 0.13671,0.04297 0.375,0.07422 0.0742,0.01172 0.16015,0.01953 0.2539,0.03125 -0.28515,0.03125 -0.48437,0.04297 -0.48437,0.04297 0,0 0.14843,0.03906 0.39843,0.08203 -0.0391,0.02344 -0.0742,0.03125 -0.10546,0.04297 -0.21875,0.04297 -0.46094,0.08203 -0.66797,0.113282 -0.39063,0.05469 -0.69532,0.06641 -0.69532,0.06641 0,0 0.0117,0 0.0234,0.0078 -0.0625,0 -0.0937,-0.0078 -0.0937,-0.0078 0,0 0.125,0.07031 0.33203,0.144531 -0.008,0.01172 -0.0195,0.01172 -0.0391,0.02344 -0.0312,0.01953 -0.0742,0.05078 -0.11719,0.08203 -0.008,0 -0.0195,0 -0.0312,0.01172 -0.0937,-0.02344 -0.14453,-0.04297 -0.14453,-0.04297 0,0 0.0312,0.01953 0.082,0.05078 -0.0117,0 -0.0195,0 -0.0312,0.01172 -0.41015,0.105468 -0.74609,0.167968 -0.74609,0.167968 0,0 0.0117,0 0.0234,0 -0.0625,0 -0.0937,0 -0.0937,0 0,0 0.1875,0.09375 0.48047,0.167969 -0.0625,0.01953 -0.11329,0.04297 -0.17969,0.0625 -0.35547,0.125 -0.66016,0.199219 -0.73438,0.222657 -0.0625,0 -0.0937,0 -0.0937,0 0,0 0.0859,0.03906 0.22266,0.09375 -0.0117,0.01953 -0.0234,0.0625 -0.043,0.125 0,0.01953 -0.0117,0.03125 -0.0117,0.05078 -0.0508,0 -0.10547,0.01172 -0.14453,0.01172 -0.0234,-0.03125 -0.0312,-0.0625 -0.0312,-0.0625 0,0 0,0.01953 -0.0117,0.0625 -0.17969,0.01172 -0.29297,0.01172 -0.29297,0.01172 0,0 0.11328,0.05078 0.29297,0.105469 0,0.09375 0.0117,0.207031 0.043,0.34375 0.0312,0.148437 0.0937,0.292969 0.16797,0.429687 -0.043,-0.03125 -0.0859,-0.05078 -0.11719,-0.08203 -0.26172,-0.210937 -0.38672,-0.492187 -0.38672,-0.492187 0,0 0,0.07031 0.0195,0.1875 0.0117,0.0625 0.0195,0.136718 0.0547,0.210937 -0.21094,-0.253906 -0.30469,-0.484375 -0.30469,-0.484375 0,0 0,0.105469 0.0391,0.261719 0.043,0.167969 0.1289,0.390625 0.28515,0.621094 0.15625,0.230469 0.39844,0.4375 0.67969,0.585937 0.23438,0.125 0.49609,0.199219 0.72656,0.230469 0.008,0.01172 0.0312,0.01953 0.0391,0.03125 0.0547,0.03125 0.10546,0.05469 0.16015,0.07422 0.0195,0.378906 -0.0937,1.027344 -0.2539,1.855468 -0.20704,1.101563 -0.70313,2.539063 -0.76563,3.261719 -0.0625,0.726563 0.56641,0.996094 0.80859,1.34375 0.24219,0.355469 0.10547,0.640625 -0.0742,1.40625 -0.1875,0.765625 -0.98438,2.054688 -0.95313,2.328125 0.043,0.273438 0.23047,0.441406 0.67969,0.472656 0.45312,0.03906 1.3125,-0.07422 1.3125,-0.07422 0,0 0.0625,0.03125 0.125,0.210937 0.0625,0.1875 -0.19922,0.605469 -0.0937,0.953125 0.10547,0.335938 0.16797,0.230469 0.42969,0.242188 0.26171,0.0078 1.63671,-0.07422 1.63671,-0.07422 0,0 -0.0625,0.105469 -0.52343,0.398437 -0.46094,0.292969 -1.00782,0.230469 -1.14453,0.410157 -0.13672,0.1875 -0.15625,0.261719 0.0937,0.628906 0.24218,0.367187 0.36718,0.859375 0.16015,1.5625 -0.21094,0.703125 -0.0977,1.65625 0.5,1.867187 0.60156,0.210938 1.32422,-0.125 1.94141,-0.136718 0.6289,-0.01172 2.26562,-0.105469 2.84375,0.261718 0.57812,0.367188 0.55468,1.101563 0.55468,1.101563 0,0 -0.55468,0.609375 -0.85937,0.921875 -0.30469,0.304688 -0.33594,0 -1.22656,0.429688 -0.89063,0.429687 -1.74219,0.894531 -2.82031,1.292968 -1.07032,0.398438 -3.03125,1.257813 -3.98829,1.59375 -0.95312,0.335938 -0.76562,0.460938 -1.19531,1.40625 -0.42969,0.953125 -1.28906,3 -1.28906,3 0,0 -0.60938,-0.179687 -1.00781,-0.304687 -0.39844,-0.128907 -0.82813,-0.128907 -0.91407,0.367187 -0.0937,0.492188 1.00782,1.71875 1.00782,1.71875 l -0.61719,2.140625 c 0,0 -1.92969,-0.03125 -2.875,0.0625 -0.95313,0.09375 -0.79688,-0.0625 -1.32031,-0.09375 -0.52344,-0.03125 -1.08985,-0.01172 -1.32422,-0.09375 -0.23047,-0.07422 -0.33203,-0.242187 -0.85938,-0.398437 -0.52343,-0.160156 -1.23828,-0.09766 -1.46875,0.09375 -0.23047,0.1875 -0.23047,0.691406 -0.23047,0.691406 0,0 -0.33593,0.242188 -0.23828,0.703125 0.0937,0.460937 0.59766,0.734375 0.66797,0.921875 0.0742,0.1875 0.57813,0.671875 0.96485,0.933594 0.3789,0.261718 1.86718,0.734375 1.86718,0.734375 0,0 0.37891,0.410156 0.44141,0.585937 0.0625,0.167969 0.77734,0.695313 1.17578,0.839844 0.39844,0.15625 1.65625,0.734375 1.65625,0.734375 0,0 -0.57812,2.140625 -0.92187,2.875 -0.33594,0.734375 -0.125,1.625 -0.39844,2.085937 -0.27344,0.460938 -0.5586,0.796876 -0.85938,1.40625 -0.30468,0.609376 0.0625,2.601563 0.0625,2.96875 0,0.367188 -0.30468,1.40625 -0.85937,2.203126 -0.5586,0.796874 -0.19141,1.101562 -0.6211,2.140624 -0.42968,1.035157 1.03907,3.367188 1.16407,4.164063 0.125,0.796875 0.125,0.667969 0.0625,1.101563 -0.0625,0.429687 0.97656,1.464843 1.96093,1.035156 0.98829,-0.429688 1.72266,-0.765625 1.92969,-0.765625 0.21094,0 2.14063,-0.03125 2.14063,-0.03125 0,0 0.0937,0.398437 -0.0625,0.925781 -0.15625,0.523438 -0.30469,0.605469 -0.67188,1.464844 -0.36719,0.863281 0.36719,3.652344 -0.79687,6.703125 -1.16407,3.062498 1.03906,1.468748 1.16406,2.089838 0.125,0.61719 0.62109,2.8711 0.79687,3.36719 0.19141,0.49219 -0.17578,1.53125 -0.17578,2.56641 0,1.03906 -0.79687,2.9375 -0.92578,5.69531 -0.125,2.76172 0.97656,13.72266 1.03906,15.92187 0.0625,2.20313 0.92188,4.10157 1.28907,6.5586 0.36718,2.45312 0.97656,3.85937 1.59765,5.75781 0.60547,1.89844 1.03516,2.14062 0.97266,4.28906 -0.0625,2.14063 0.86328,16.14063 0.92578,16.35156 0.0625,0.21094 0.60547,1.19532 0.85938,2.02344 0.24218,0.83203 0.27343,1.9961 0.0937,3.09766 -0.17969,1.09765 -0.1875,2.85156 -0.24219,3.33203 -0.0625,0.49609 0,0.55859 0.0625,1.34375 0.0625,0.79687 0.24219,1.46875 -0.125,2.08594 -0.36719,0.60937 -0.67188,0.54687 -0.97656,1.29297 -0.30079,0.73437 0,1.96093 -0.0625,2.32812 -0.0625,0.36719 -0.42969,0.61719 -0.85938,1.10156 -0.42969,0.49219 -1.16406,1.59375 -1.53125,2.50391 -0.36719,0.92578 -0.36719,0.80078 -0.85937,1.16797 -0.49219,0.36719 -3.29297,0.32422 -3.29297,0.32422 0,0 -0.13672,-0.82813 -0.52735,-1.19532 -0.38672,-0.36718 -0.40625,-0.1289 -1.625,-0.1289 -1.20703,0 -4.625,-0.85938 -5.35937,-1.65625 -0.73438,-0.79688 -2.20313,-0.89063 -3.42969,-1.5625 -1.22656,-0.67188 -1.22656,-1.25781 -1.22656,-1.25781 0,0 0,-0.92188 -0.97656,-2.82032 -0.97266,-1.89843 -0.97266,-0.79687 -1.33985,-2.14062 -0.36719,-1.34375 -0.0664,-0.97656 -0.24219,-1.71094 -0.17968,-0.73437 0,0 -0.0625,-1.65625 -0.0625,-1.65625 0.23829,-2.08594 0.49219,-5.08594 0.24219,-3 0.1875,-3.62109 -0.24219,-7.41797 -0.42968,-3.79687 -0.125,-7.89843 -0.125,-7.89843 0,0 -0.24218,-0.85938 0,-2.08594 0.24219,-1.22656 0.30469,-1.03906 1.16407,-3.42969 0.85937,-2.39062 0.42968,-2.07812 1.40625,-5.51562 0.97265,-3.4336 0.85937,-6.98828 0.92187,-11.32813 0.0625,-4.35547 0.125,-19.84765 0.125,-19.84765 l 0.30469,-3.79688 c 0,0 0.60937,-0.92187 1.34375,-1.16406 0.73437,-0.24219 -0.24219,-0.972655 -0.85938,-3.187498 -0.62109,-2.203125 -0.95703,-2.085938 -0.92578,-2.507813 0.0312,-0.429687 0.0625,-1.132812 0.0625,-1.867187 0,-0.734375 -0.55468,-3.125 -0.55468,-3.398438 0,-0.273437 0.0312,-1.65625 0.24218,-1.835937 0.21094,-0.1875 0.73438,-0.667969 0.73438,-0.667969 0,0 0.30469,-0.398437 0.49219,-0.671875 0.1875,-0.273438 0.0625,-0.859375 0.0625,-0.859375 0,0 0.57812,-0.273437 0.82812,-1.199219 0.24219,-0.921875 0.16797,-1.488281 0.26172,-1.65625 0.0977,-0.167968 0.57812,-1.164062 0.70312,-1.773437 0.12891,-0.605469 -0.125,-0.703125 -0.4375,-0.691407 -0.32812,0.01172 -0.74609,0.691407 -0.74609,0.691407 l -0.82812,0.273437 c 0,0 1.10156,-1.46875 0.93359,-1.773437 -0.16797,-0.300781 -0.80859,0.03125 -1.40625,0.265625 -0.59766,0.230468 -1.63672,-0.210938 -1.63672,-0.210938 0,0 -0.125,-0.734375 -0.1875,-1.59375 -0.0625,-0.863281 0.0625,-0.976562 0.42969,-2.078125 0.36719,-1.101562 0,-8.453125 0.0625,-9.859375 0.0625,-1.40625 -0.24219,-2.757812 -1.65625,-4.351562 -1.40625,-1.59375 -5.121096,-3.191406 -5.296878,-3.273438 -0.191406,-0.09375 -0.367187,-1.195312 -0.546874,-1.375 -0.1875,-0.175781 -1.164063,-1.121094 -1.164063,-1.121094 0,0 0.242187,-1.175781 0.796875,-1.5625 0.546875,-0.390624 1.730469,-0.230468 2.601562,-0.429687 0.871098,-0.199219 1.300778,-0.335937 1.374998,-1.195313 0.0742,-0.863281 -0.0937,-1.132812 0.008,-1.53125 0.10546,-0.402343 0.21093,-0.390624 0.21093,-0.390624 0,0 0.10547,-0.230469 -0.0312,-0.566407 -0.13672,-0.335937 -1.332029,-0.429687 -1.406248,-0.492187 -0.07031,-0.0625 0.933598,-0.304688 1.101568,-0.367188 0.16796,-0.0625 0.41015,-0.292968 0.36718,-0.746094 l -0.125,-1.203124 c 0,0 2.3086,-0.535157 1.92969,-1.269532 -0.37891,-0.734375 -1.71875,-2.328125 -1.83594,-2.570312 -0.125,-0.242188 0.24219,-0.890625 0.125,-1.898438 -0.125,-1.007812 -2.390622,-3.671875 -2.390622,-3.671875 l 0.640624,0.242188 -0.355468,-0.652344 c 0.144531,0.179687 0.28125,0.347656 0.375,0.484375 0.179687,0.261719 0.242187,0.449219 0.242187,0.449219 0,0 -0.01953,-0.199219 -0.167969,-0.492188 -0.105468,-0.21875 -0.273437,-0.503906 -0.480468,-0.808593 0.101562,0 0.261718,0.01172 0.417968,0.04297 0,0 0.01172,0.01172 0.01172,0.01172 0.1875,0.25 0.3125,0.503906 0.375,0.691406 0.04297,0.113281 0.05469,0.210938 0.06641,0.261719 0,0 0,0 0,0.01172 -0.07422,0.175781 -0.148438,0.28125 -0.148438,0.28125 0,0 0.09375,-0.07422 0.210938,-0.242188 0.0937,-0.132812 0.19922,-0.34375 0.25,-0.597656 0.10547,0.117187 0.17969,0.234375 0.21875,0.328125 -0.0195,0.0625 -0.0508,0.113281 -0.0703,0.167969 -0.11719,0.21875 -0.23047,0.335937 -0.23047,0.335937 0,0 0.13281,-0.08594 0.30078,-0.296875 0.0859,-0.101562 0.16797,-0.238281 0.23437,-0.40625 0.0625,-0.167969 0.10157,-0.378906 0.0937,-0.597656 0,-0.136719 -0.0234,-0.273437 -0.0547,-0.410156 0.0937,0.199219 0.11718,0.335937 0.11718,0.335937 0,0 0.008,-0.148437 -0.0547,-0.390625 -0.0391,-0.164062 -0.11329,-0.375 -0.23047,-0.597656 0.22265,0.148437 0.47265,0.347656 0.5039,0.464844 0.0625,0.207031 0.0937,-0.160157 -0.30468,-0.800781 -0.30469,-0.492188 -1.132816,-1.332032 -2.464847,-1.898438 -0.03125,-0.03906 -0.08203,-0.09375 -0.136719,-0.15625 -0.1875,-0.175781 -0.535156,-0.34375 -0.933593,-0.429688 -0.292969,-0.07422 -0.605469,-0.105468 -0.933594,-0.125 0.359375,-0.105468 0.589844,-0.179687 0.589844,-0.179687 l -1.257813,0.09375 c -0.160156,0.01172 -0.328125,0.02344 -0.496094,0.03125 -0.585937,-0.09375 -1.195312,-0.175781 -1.769531,-0.25 0.367188,-0.03125 0.691407,-0.05078 0.941407,-0.07422 l 0.441406,-0.04297 -0.441406,-0.03906 c -0.273438,-0.03125 -0.660157,-0.07422 -1.101563,-0.09375 -0.4375,-0.03125 -0.933594,-0.04297 -1.425781,-0.01172 -0.15625,0.01172 -0.304688,0.01953 -0.449219,0.04297 -0.07422,0 -0.148437,-0.01172 -0.222656,-0.01172 0.546875,-0.179687 0.964843,-0.261718 0.964843,-0.261718 0,0 -0.535156,-0.03125 -1.238281,0.07422 -0.46875,0.07031 -1.035156,0.207032 -1.519531,0.4375 -0.03125,0 -0.0625,-0.0078 -0.105469,-0.01953 0.07422,-0.08203 0.136719,-0.167969 0.199219,-0.242187 0.261719,-0.3125 0.503906,-0.566407 0.683594,-0.742188 0.179687,-0.179688 0.292968,-0.273438 0.292968,-0.273438 0,0 -0.125,0.07422 -0.335937,0.21875 -0.210937,0.148438 -0.492187,0.367188 -0.796875,0.640626 -0.136719,0.125 -0.28125,0.25 -0.429688,0.398437 -0.148437,0.01172 -0.316406,0.04297 -0.492187,0.105469 -0.558594,0.179687 -1.144531,0.585937 -1.554687,0.976562 -0.636719,0.125 -1.308594,0.3125 -1.78125,0.648438 -1.039063,0.734375 -1.34375,1.289062 -1.59375,2.023437 -0.242188,0.734375 -0.125,1.660157 -0.609376,2.632813 -0.378906,0.765625 -0.691406,3.472656 -0.398437,5.382812 -0.01172,0.175782 -0.01172,0.273438 -0.01172,0.273438 0,0 0.01172,-0.05469 0.03125,-0.148438 0.08594,0.480469 0.210938,0.914063 0.378906,1.226563 0.492188,0.921875 1.699219,2.589843 2.621094,3.839843 0.0625,0.105469 0.117188,0.210938 0.167969,0.3125 -0.07422,0.296876 -0.273437,0.515626 -0.441406,0.652344 -0.1875,0.148438 -0.324219,0.21875 -0.324219,0.21875 0,0 0.148438,-0.03125 0.367188,-0.144531 0.117187,-0.0625 0.242187,-0.136719 0.367187,-0.261719 0.04297,-0.04297 0.07422,-0.08594 0.117187,-0.136718 0.0078,0.199218 -0.01172,0.3125 -0.01172,0.3125 0,0 0.01953,-0.0625 0.04297,-0.1875 0,0.136718 -0.02344,0.25 -0.07422,0.335937 -0.0625,0.105469 -0.125,0.144531 -0.125,0.15625 0,0 0.07422,-0.01953 0.1875,-0.09375 0.01953,-0.01172 0.03125,-0.01953 0.05469,-0.04297 -0.07422,0.179688 -0.160156,0.292969 -0.160156,0.292969 0,0 0.0625,-0.03125 0.160156,-0.101563 0.09375,-0.07422 0.21875,-0.210937 0.324219,-0.378906 -0.02344,0.125 -0.04297,0.242188 -0.07422,0.34375 -0.05078,0.167969 -0.117187,0.316406 -0.179687,0.421875 -0.996094,0.144531 -2.570313,0.417969 -2.527344,0.691407 0.0625,0.398437 -0.703125,2.90625 -0.703125,2.90625 l -0.238281,0.921874 c 0,0 -2.140625,1.039063 -3.734375,2.023438 -1.597657,0.976562 -4.660157,4.660156 -4.898438,3.671875 -0.07422,-0.3125 -0.167969,-0.703125 -0.261719,-1.164063 0,-0.0625 0,-0.113281 0.0078,-0.175781 0.01172,-0.433593 -0.0078,-0.902343 -0.05078,-1.375 0.1875,0.367188 0.367187,0.703125 0.480468,0.964844 0.179688,0.398437 0.261719,0.660156 0.261719,0.660156 0,0 -0.05078,-0.261719 -0.1875,-0.683593 -0.136719,-0.429688 -0.378906,-0.996094 -0.628906,-1.644532 -0.01172,-0.02344 -0.01172,-0.04297 -0.01953,-0.0625 -0.01172,-0.105468 -0.03125,-0.199218 -0.04297,-0.304687 0.0625,0.113281 0.113281,0.21875 0.1875,0.3125 0.136719,0.191406 0.304687,0.304687 0.429687,0.335937 0.128907,0.02344 0.199219,-0.0078 0.199219,0 0,0 -0.07031,0.02344 -0.1875,-0.01953 -0.117187,-0.03125 -0.261719,-0.15625 -0.367187,-0.355469 -0.21875,-0.390625 -0.367188,-1.007812 -0.460938,-1.722656 -0.01953,-0.167969 -0.04297,-0.335938 -0.0625,-0.511719 0.0078,-0.08594 0.0078,-0.179687 0.03125,-0.261719 0.05078,0.1875 0.105469,0.367188 0.167969,0.535157 0.1875,0.53125 0.417969,0.972656 0.617187,1.265625 0.199219,0.296875 0.347657,0.453125 0.347657,0.453125 0,0 -0.125,-0.179688 -0.273438,-0.492188 -0.148437,-0.316406 -0.324219,-0.765625 -0.441406,-1.300781 -0.105469,-0.453125 -0.175781,-0.945312 -0.21875,-1.449219 0.304687,-1.152343 0.742187,-2.347656 0.554687,-4.699219 0.08594,-0.3125 0.15625,-0.660156 0.210938,-1.027343 0.125,-0.847657 0.15625,-1.824219 0.01953,-2.769531 -0.0625,-0.472657 -0.167969,-0.941407 -0.304687,-1.382813 -0.05078,-0.167969 -0.113282,-0.324219 -0.167969,-0.484375 -0.0078,-0.238281 -0.03125,-0.480469 -0.05078,-0.710938 0.08203,0.15625 0.15625,0.324219 0.21875,0.492188 0.296875,0.765625 0.421875,1.605469 0.464844,2.359375 0.08203,1.519531 -0.167969,2.683594 -0.160157,2.675781 0,0 0.08594,-0.285156 0.191407,-0.757812 C 74.4375,48.121094 74.542969,47.4375 74.566406,46.660156 74.585938,45.886719 74.523438,45.003906 74.25,44.164062 74.113281,43.746094 73.9375,43.335938 73.695312,42.980469 73.578125,42.800781 73.453125,42.632812 73.316406,42.488281 72.75,40.945312 71.292969,40 67.578125,39.824219 c -2.632813,-0.128907 -3.1875,0.238281 -3.492187,0.429687 -0.304688,0.175782 -1.164063,-0.191406 -2.820313,0.605469 -0.753906,0.359375 -1.816406,1.3125 -2.875,2.707031 -0.230469,0.179688 -0.472656,0.390625 -0.710937,0.660156 -0.441407,0.484376 -0.871094,1.101563 -1.230469,1.773438 -0.355469,0.671875 -0.628907,1.386719 -0.804688,2.046875 -0.179687,0.660156 -0.261719,1.246094 -0.285156,1.675781 0,0.02344 0,0.03125 0,0.05469 -0.01953,0.09375 -0.04297,0.1875 -0.05078,0.28125 -0.03125,0.117187 -0.0625,0.242187 -0.09375,0.359375 -0.335938,1.4375 -0.621094,3.199219 -0.832032,5.011719 -0.05078,0.179687 -0.09375,0.347656 -0.144531,0.484374 -0.179687,0.523438 -0.335937,0.828126 -0.335937,0.828126 0,0 0.1875,-0.285157 0.410156,-0.796876 0,-0.01172 0.0078,-0.02344 0.0078,-0.03125 -0.144531,1.308594 -0.269531,2.632813 -0.367187,3.847657 -0.03906,0.199219 -0.0625,0.410156 -0.08203,0.609375 -0.02344,0.210937 -0.04297,0.417968 -0.0625,0.628906 -0.09375,0.273438 -0.191406,0.566406 -0.273438,0.890625 -0.01172,0.03125 -0.01172,0.05469 -0.01953,0.08594 -0.01172,0.01953 -0.01172,0.03125 -0.02344,0.05078 -0.199219,0.515625 -0.367188,0.820312 -0.355469,0.820312 0,0 0.125,-0.191406 0.304687,-0.515625 -0.0625,0.28125 -0.117187,0.585938 -0.148437,0.902344 l -0.01953,0.179687 c -0.01172,0.07031 -0.01172,0.125 -0.01172,0.1875 v 0.07422 c -0.144531,0.523438 -0.25,1.058594 -0.335938,1.539063 -0.03125,0.04297 -0.0625,0.08594 -0.09375,0.117187 -0.125,0.136719 -0.21875,0.1875 -0.21875,0.1875 0,0 0.09375,-0.03906 0.230469,-0.167969 0.01953,-0.01953 0.03906,-0.03906 0.07422,-0.07422 -0.09766,0.527344 -0.179688,0.976562 -0.253907,1.3125 -0.07422,0.335937 -0.125,0.535156 -0.125,0.535156 0,0 0.08203,-0.1875 0.210938,-0.511719 0.125,-0.328125 0.269531,-0.777343 0.429688,-1.300781 0.0078,-0.04297 0.03125,-0.09766 0.03906,-0.148438 -0.03125,0.796876 -0.101562,1.582032 -0.28125,2.265626 -0.105469,0.417968 -0.253906,0.796874 -0.429688,1.113281 -0.179687,0.3125 -0.378906,0.574219 -0.578124,0.773437 -0.378907,0.367188 -0.671876,0.527344 -0.691407,0.535156 0.04297,-0.01953 0.347657,-0.144531 0.746094,-0.480468 0.207031,-0.179688 0.449219,-0.429688 0.660156,-0.746094 0.207031,-0.316406 0.398438,-0.703125 0.542969,-1.121094 0.01172,-0.03125 0.02344,-0.0625 0.03125,-0.09375 -0.05078,0.261719 -0.113281,0.492188 -0.1875,0.679688 -0.136719,0.398437 -0.273438,0.621094 -0.273438,0.621094 0,0 0.160157,-0.210938 0.347657,-0.589844 0.1875,-0.378906 0.378906,-0.933594 0.503906,-1.582032 C 53.535156,67 53.410156,67.542969 53.25,68.101562 c -0.125,0.460938 -0.324219,0.933594 -0.605469,1.4375 -0.07422,0.08203 -0.160156,0.15625 -0.230469,0.21875 -0.367187,0.304688 -0.652343,0.398438 -0.652343,0.410157 0,-0.01172 0.292969,-0.0625 0.703125,-0.347657 0.01172,0 0.01172,-0.01172 0.01953,-0.01172 -0.386719,0.621094 -0.898437,1.28125 -1.550781,1.972656 -1.289063,1.34375 -1.226563,3.304688 -1.226563,3.304688 0,0 -0.367187,0.859374 -0.609375,2.140624 -0.242187,1.289063 -0.0625,1.101563 -0.0625,1.773438 0,0.667969 0.125,0.972656 0.0625,1.769531 -0.0625,0.800781 0.0625,0.863281 -0.304687,2.507813 -0.367188,1.65625 0,0.367187 -0.429688,2.632812 -0.429687,2.265625 0.125,1.835938 0.0625,2.507813 -0.0625,0.671875 0,2.085937 -0.671875,4.039062 -0.667968,1.960938 -0.238281,3.554688 -0.125,4.65625 0.125,1.101563 0.492188,2.265625 0.429688,4.039061 -0.0625,1.76954 0.859375,2.75782 1.46875,4.28907 0.609375,1.53125 1.164062,1.59375 2.023437,2.45312 0.863281,0.85938 0.671875,2.9375 0.671875,2.9375 0,0 -0.429687,2.9375 -0.304687,3.36719 0.128906,0.42969 0.800781,0.55469 0.800781,0.55469 0,0 -0.558594,2.02734 0.859375,4.96093 1.402344,2.9375 2.820313,6.6211 5.328125,9.49219 2.503906,2.875 5.203125,12.79688 5.515625,13.41797 0.304687,0.60547 -0.0625,1.70703 -0.125,3.98437 -0.0625,2.26563 -0.609375,6.1875 -0.734375,6.79688 -0.125,0.60937 -0.734375,2.32812 -1.59375,5.39062 -0.859375,3.0625 -1.722656,3.42969 -2.203125,4.89844 -0.492187,1.46875 -0.734375,3.67188 -0.976563,5.02344 -0.242187,1.34375 -1.71875,3.42969 -3.554687,6.36719 -1.835937,2.9375 -3.03125,11.29687 -3.03125,11.48437 0,0.19141 1.070313,0.73438 1.070313,0.73438 0,0 -0.0625,0.1914 0.367187,1.23047 0.429687,1.03515 1.039063,3.39453 1.039063,3.39453 0,0 1.371093,0.1289 1.65625,0 0.273437,-0.125 0.0625,-1.06641 0.304687,-2.07422 0.242187,-1.00781 0.671875,-1.34375 0.671875,-1.34375 0,0 0.269531,0.1875 0.574219,0.60937 0.304687,0.42969 0.859375,0.64063 0.976562,0.89063 0.125,0.24219 0.15625,0.67187 0.15625,1.22656 0,0.54688 1.730469,1.09375 1.730469,1.09375 0,0 1.195312,3.10156 1.238281,3.21875 0.04297,0.10547 1.207031,0.15625 1.34375,0.0625 0.136719,-0.0937 0.386719,-2.82031 0.386719,-2.82031 0,0 2.875,-0.21094 3.03125,-0.16016 0.15625,0.0664 3.828125,2.36328 4.773438,2.42578 0.953124,0.0625 9.398437,-1.07031 9.710937,-1.6289 0.304687,-0.55469 0.160156,-1.19532 -0.1875,-1.59375 -0.335937,-0.39844 -2.023437,-0.92188 -3.273437,-1.19532 -1.257813,-0.27343 -1.5625,-0.1875 -2.234376,-0.42968 -0.667968,-0.24219 -1.59375,-0.97657 -1.59375,-0.97657 0,0 -0.125,-0.73437 -0.429687,-1.32031 -0.304687,-0.57812 -0.546875,-1.19531 -0.671875,-2.23437 -0.125,-1.03907 0.703125,-5.53907 0.640625,-9.09375 -0.0625,-3.55469 0.125,-2.20313 -0.367187,-5.08594 -0.492188,-2.875 -0.125,-2.26563 0.242187,-4.77344 0.367187,-2.50781 3.304687,-13.71875 3.554687,-15.86719 0.242188,-2.14062 -0.125,-2.33203 -0.367187,-3.86328 -0.242187,-1.53125 2.308594,-14.21093 2.308594,-14.21093 l 1.058593,-0.66016 c 0,0 -0.429687,2.42187 -0.367187,4.5 0.0625,2.08594 -0.1875,8.91406 -0.671875,10.625 -0.492188,1.71875 -0.367188,2.82031 -0.609375,5.02344 -0.238281,2.20312 -0.363281,3.55468 -1.226563,7.71875 -0.859374,4.16406 0.367188,3.1914 0.863282,6.36718 0.492187,3.1875 -0.800782,7.35157 -0.800782,7.35157 0,0 -0.300781,1.40625 -0.796874,2.76172 -0.492188,1.33984 0.242187,1.83203 1.292968,2.82031 1.035156,0.97656 1.53125,4.625 1.53125,4.625 0,0 -0.367187,2.10937 -0.367187,2.63281 0,0.52344 0.125,1.28906 0.554687,1.625 0.429688,0.33594 0.921875,0.79688 1.4375,1.19531 0.523438,0.39844 1.929688,0.95703 4.132813,1.07032 2.203125,0.125 6.09375,-0.49219 6.765625,-1.25782 0.671875,-0.76562 0.429687,-1.65625 0.175781,-1.99218 -0.238281,-0.33594 -1.101563,-0.85938 -1.433594,-1.00782 -0.335937,-0.15625 -0.832031,-0.57812 -1.34375,-1.65625 -0.523437,-1.07031 -1.4375,-2.10937 -1.4375,-2.10937 0,0 0.304688,-0.97656 1.039063,-2.20313 0.734375,-1.22656 0.796875,-2.02343 0.492187,-3.98437 -0.304687,-1.96094 -0.1875,-5.88672 -0.554687,-8.94922 -0.367188,-3.0625 0.972656,-12.00781 1.226562,-12.98438 0.242188,-0.97265 0.671875,10.48047 0.429688,12.98438 -0.242188,2.50781 -0.492188,2.20312 -0.125,4.03906 0.367187,1.83594 2.390625,6 2.632812,6.0625 0.238282,0.0625 0.367188,0.46094 0.335938,0.73438 -0.03125,0.27343 -0.160156,1.00781 -0.273438,1.53125 -0.125,0.52343 -0.210937,1.22656 -0.210937,1.22656 0,0 -0.15625,0.17969 -0.398438,1.69141 -0.242187,1.5 1.195313,2.35937 1.867188,2.35937 0.671875,0 4.804687,0.36719 6.335942,0.1875 1.53125,-0.1875 2.02343,0 4.625,-0.0937 2.60156,-0.0937 8.69531,0.0625 8.69531,0.0625 v 0.33594 c 0,0.21094 0.0625,0.33594 0.46094,0.55469 0.39843,0.21093 2.50781,0.76562 5.39062,0.92578 2.875,0.15625 6.22266,-0.36719 7.32031,-0.89453 1.10157,-0.52344 1.16797,-0.85938 1.86719,-1.13282 0.70313,-0.26953 0.94531,0.16016 1.4375,0.21094 0.49219,0.0625 4.5,-0.27344 4.86719,-0.58594 0.36719,-0.30468 0.125,-1.19531 0.125,-1.77343 0,-0.57813 -0.36719,-0.39844 -0.52344,-0.85938 -0.15625,-0.46094 -0.24219,-4.13281 -0.30469,-3.52344 -0.0625,0.61719 0,-0.0664 0.0625,-0.60937 0.0625,-0.55469 0.79688,-1.40625 0.73438,-2.50781 -0.0625,-1.10157 0.1914,-0.79688 0.0625,-1.53125 -0.125,-0.73438 -0.30078,-0.60938 -0.42969,-1.34375 -0.125,-0.73438 1.34375,-2.20313 1.83594,-6.73438 0.49219,-4.52734 -0.36719,-4.89453 -2.32813,-9.1875 -1.96093,-4.28906 -0.79687,-15.1875 -0.97656,-15.61719 -0.1875,-0.42968 0.19141,-1.83593 0.36719,-3.49218 0.17969,-1.65625 -0.23828,-1.28907 -0.36719,-2.07813 -0.125,-0.79687 0.67188,-10.28906 0.73438,-10.78125 0.0664,-0.49219 3.1289,13.28906 3.55859,14.88281 0.42969,1.59375 0.60547,3.55469 0.79687,5.26563 0.1875,1.72265 1.16407,1.46875 1.96094,2.26562 0.79688,0.79688 0.36719,0.79688 0.60938,3.36719 0.23828,2.57031 0.60547,5.14063 1.33984,6.92188 0.73438,1.77343 1.03906,7.22656 1.16406,9 0.12891,1.77343 0,3.36718 0.0625,4.65625 0.0664,1.29296 -0.49218,2.45703 -0.61718,3.55859 -0.125,1.10156 0.79687,5.08594 1.07031,5.42187 0.27344,0.33594 0.46094,0.82813 0.46094,1.03907 0,0.20703 -0.0312,0.49218 -0.76563,1.96093 -0.73437,1.46875 -3.79687,2.96875 -4.71875,3.82813 -0.92578,0.85937 -0.62109,0.85937 -0.85937,1.03906 -0.24219,0.1875 -0.80079,0.60547 -0.86329,1.13281 -0.0625,0.52344 -0.20703,1.00391 2.96875,1.25782 3.19141,0.24218 8.69532,0.125 9.28516,-0.0937 0.57422,-0.21094 1.40234,-1.62891 1.40234,-1.62891 l 0.54688,-0.1875 c 0,0 1.625,-0.73437 1.80469,-1.03906 0.1875,-0.30469 0.54687,-1.99219 0.49218,-3.46094 -0.0625,-1.46875 -0.30468,-1.22656 -0.36718,-1.96094 -0.0625,-0.73437 0.42968,-0.55468 0.79687,-1.46875 0.36719,-0.92187 -0.1875,-2.69531 -0.42969,-3.49218 -0.24218,-0.79688 0.54688,-1.28907 0.97657,-2.63282 0.42968,-1.34375 0.85937,-2.9375 0.60937,-5.63281 -0.24219,-2.69531 -0.60937,-2.14844 -0.73437,-5.02344 -0.12891,-2.875 -0.0664,-4.35156 -1.53125,-10.10937 -1.28125,-5.00391 -3.52735,-13.42578 -4.13282,-16.07031 1.25782,0.79687 3.3125,2.02343 3.3125,2.02343 0,0 0.0937,6.15625 0.39844,7.625 0.30469,1.46875 1.00781,2.45703 1.07031,2.63282 0.0625,0.1914 -0.1875,3.46093 1.16407,8.66406 1.34375,5.20312 4.16406,17.94531 4.46875,20.46484 0.30468,2.50781 -0.73438,3.98438 -1.83594,6.67188 -1.10156,2.69531 -0.85938,3.30078 -2.08594,4.03515 -1.22656,0.73438 -3.125,1.59375 -3.70312,2.23438 -0.58985,0.64062 -0.67188,1.22656 -0.0312,1.59375 0.64062,0.36719 7.44531,0.42969 8.42187,-0.0625 0.97656,-0.49219 1.32031,-3.63672 2.90625,-4.59375 1.59375,-0.94141 1.99219,-0.97656 1.99219,-0.97656 l 0.0312,3.58984 c 0,0 -1.19531,1.40625 -2.23438,2.14062 -1.03906,0.73438 -1.6875,0.82813 -1.92968,1.46485 -0.24219,0.64062 -0.0625,0.86328 0,1.13281 0.0625,0.27344 -0.0937,0.36719 0.57812,0.67188 0.67188,0.30468 8.72656,-0.0625 9.79688,-0.57422 1.0664,-0.52735 1.13281,-0.86328 1.6875,-2.53907 0.55468,-1.6875 0.89062,-2.08593 0.89062,-2.08593 0,0 0.125,1.02734 0.0937,2.16015 -0.0312,1.13282 -0.0937,1.3711 0.0312,1.46875 0.12891,0.0937 1.02735,0.23047 1.10156,0.0703 0.0742,-0.15625 -0.0625,-3.35547 0.79688,-5.16016 0.86328,-1.80469 1.77344,-3.03125 1.83594,-4.00391 0.11718,-0.85156 -1.35157,-3.97656 -1.8125,-4.64843 z M 172.03906,57.246094 c 0.0195,0.01953 0.0312,0.03906 0.0508,0.05078 0.0195,0.0625 0.043,0.136719 0.0625,0.199219 -0.043,-0.09375 -0.0937,-0.199219 -0.14453,-0.304688 0,0.02344 0.0195,0.03125 0.0312,0.05469 z m -2.33203,2.304687 c -0.008,-0.0078 -0.0312,-0.01953 -0.0508,-0.03906 0.0195,0.01953 0.0312,0.03125 0.0508,0.03906 z m 0.36719,-1.855469 c 0.0117,0 0.0117,0.01172 0,0 z m 2.02734,-0.01953 c 0.0508,0.0625 0.0937,0.113281 0.13672,0.167969 0.008,0.03125 0.0195,0.07422 0.0195,0.105469 0,0.0078 0.0117,0.01953 0.0117,0.03906 -0.0547,-0.101562 -0.10547,-0.207031 -0.16797,-0.3125 z M 172.5,57.539062 c -0.0117,-0.08594 -0.0234,-0.15625 -0.0312,-0.242187 0.0508,0.15625 0.0937,0.292969 0.125,0.421875 -0.0195,-0.05469 -0.0625,-0.105469 -0.0937,-0.179688 z M 54.046875,97.59375 c 0,-0.03125 0.03516,-0.921875 -0.0625,-1.433594 -0.09375,-0.527344 -0.238281,-0.976562 0,-1.5 0.242187,-0.527344 -0.1875,-2.824218 -0.207031,-3.128906 l -0.0625,-1.5625 c 0,0 0.429687,2.089844 0.554687,2.9375 0.125,0.859375 0.335938,1.007812 0.335938,1.53125 0,0.523438 -0.558594,3.1875 -0.558594,3.15625 z m 19.6875,-51.035156 c 0.179687,0.898437 0.222656,1.832031 0.160156,2.664062 -0.01172,0.101563 -0.01172,0.199219 -0.02344,0.300782 -0.125,-1.078126 -0.136719,-2.097657 -0.144532,-3.03125 0.0078,0.02344 0.0078,0.04297 0.0078,0.06641 z m 26.402345,-8.140625 c 0,-0.05469 0,-0.136719 0,-0.21875 -0.0117,-0.160157 -0.0508,-0.367188 -0.13672,-0.601563 0.0742,0.03516 0.14844,0.07422 0.21094,0.117188 0,0.01172 0,0.01953 0,0.03125 0.0195,0.25 -0.0234,0.492187 -0.0742,0.671875 z M 98.332031,34.085938 C 98.121094,34 97.890625,33.917969 97.660156,33.855469 c 0.261719,0.04297 0.484375,0.113281 0.640625,0.210937 0.01172,0.0078 0.01953,0.0078 0.03125,0.01953 z m -8.882812,-0.902344 c -0.05469,0.01953 -0.105469,0.05078 -0.148438,0.08203 0.02344,-0.01953 0.04297,-0.03906 0.05469,-0.0625 0.03125,-0.0078 0.0625,-0.0078 0.09375,-0.01953 z m -0.828125,0.292968 c 0.01953,-0.0078 0.03906,-0.01953 0.0625,-0.03125 -0.105469,0.105469 -0.210938,0.199219 -0.316406,0.304688 -0.136719,0.07422 -0.273438,0.148438 -0.40625,0.230469 0.207031,-0.1875 0.4375,-0.367188 0.660156,-0.503907 z m -2.203125,18 c 0.01953,-0.03125 0.04297,-0.07422 0.0625,-0.105468 -0.01953,0.09375 -0.05078,0.179687 -0.09375,0.261718 -0.01172,0.03125 -0.03125,0.0625 -0.05469,0.09375 -0.05078,0.01172 -0.105469,0.01172 -0.167969,0.02344 0.09766,-0.07422 0.179688,-0.167969 0.253907,-0.273438 z m 0.261719,0.210938 c 0.01953,-0.03125 0.04297,-0.06641 0.0625,-0.09766 0.03125,0.05469 0.0625,0.07422 0.0625,0.07422 0,0 -0.04297,0.01172 -0.125,0.02344 z M 121.51172,32.605469 c 0.043,0.01172 0.0937,0.02344 0.14844,0.03125 -0.0547,0.01172 -0.10547,0.01172 -0.15625,0.02344 0,-0.02344 0,-0.04297 0,-0.05469 z m 0.14844,0.398437 c -0.0117,0.02344 -0.0195,0.04297 -0.0312,0.07422 -0.0117,0.02344 -0.0117,0.04297 -0.0234,0.0625 -0.0195,-0.05078 -0.0391,-0.09375 -0.0625,-0.144531 0.043,0 0.0859,0 0.11719,0.0078 z m 4.04687,-2.925781 c 0.0625,-0.01953 0.13672,-0.04297 0.22266,-0.05078 -0.0547,0.03125 -0.0937,0.0625 -0.13672,0.09375 -0.0625,0.01172 -0.11719,0.01953 -0.17969,0.01953 0.0117,-0.0078 0.0117,-0.01953 0.0117,-0.01953 0,0 -0.0234,0.01172 -0.0547,0.03125 -0.0391,0 -0.0703,0.01172 -0.11328,0.01953 0.0508,-0.01953 0.13672,-0.0625 0.25,-0.09375 z m -1.60156,0.683594 c 0.15625,0.0078 0.36328,0.01953 0.58594,0.01953 0.0195,0.01172 0.043,0.01172 0.0742,0.01953 -0.0117,0.01172 -0.0234,0.03516 -0.043,0.04297 -0.0859,0.02344 -0.17969,0.03125 -0.25391,0.05469 l -0.13281,0.01953 c 0,-0.0625 0,-0.105469 0,-0.105469 0,0 -0.0234,0.05469 -0.0664,0.125 l -0.15625,0.03125 c -0.008,-0.101562 -0.008,-0.167969 -0.008,-0.207031 z m -1.44922,0.902343 c 0.0195,0.0078 0.043,0.0078 0.0625,0.01953 -0.0312,0.01172 -0.0508,0.01172 -0.082,0.01953 0,-0.0078 0.008,-0.03125 0.0195,-0.03906 z m -1.45703,0.847657 c 0.0742,0.03125 0.15625,0.05469 0.25,0.07422 -0.0117,0.01953 -0.0195,0.04297 -0.0195,0.07422 -0.0312,0 -0.0625,0.0078 -0.0859,0.0078 -0.0312,0 -0.0625,0.01172 -0.0937,0.01172 -0.0312,-0.07422 -0.043,-0.136719 -0.0508,-0.167969 z m -0.0742,0.367187 c 0,0.01172 0,0.02344 0,0.03125 -0.0117,-0.0078 -0.0195,-0.03125 -0.0312,-0.04297 0.0117,0.01172 0.0195,0.01172 0.0312,0.01172 z m 36.51172,29.273438 c -0.043,-0.230469 -0.0937,-0.460938 -0.15625,-0.703125 -0.0117,-0.144531 -0.0234,-0.292969 -0.043,-0.4375 0.082,0.304687 0.14453,0.597656 0.1875,0.878906 0.043,0.253906 0.0547,0.492187 0.0625,0.703125 0,-0.144531 -0.0195,-0.292969 -0.0508,-0.441406 z m -1.20703,-0.199219 c 0,-0.03906 0,-0.08203 0,-0.113281 0.0547,0.167968 0.0937,0.34375 0.125,0.511718 -0.0391,-0.113281 -0.082,-0.238281 -0.125,-0.367187 0,-0.0078 0,-0.01953 0,-0.03125 z m 0.2539,1.125 c -0.0664,-0.09766 -0.13672,-0.210937 -0.21093,-0.335937 0.0625,0.0625 0.125,0.105468 0.1875,0.15625 0,0 0.0117,0.01172 0.0117,0.01172 0,0.0625 0,0.113282 0.0117,0.167969 z m 0.19922,0.03906 c 0,0 0,-0.0078 0,-0.0078 0.008,0 0.008,0.0078 0,0.0078 0.008,0 0.008,0 0,0 z m 1.875,-3.566407 c 0.0625,0.105469 0.13672,0.210938 0.19922,0.316407 0.0547,0.08203 0.10547,0.15625 0.14844,0.242187 0.0195,0.05078 0.043,0.105469 0.0508,0.144531 0.0117,0.01172 0.0117,0.03125 0.0234,0.04297 -0.13672,-0.230469 -0.28516,-0.480469 -0.42188,-0.746094 z m 8.28516,120.035162 c -0.46094,-0.42969 -0.58594,-0.21094 -0.58594,-0.21094 0,0 -0.46094,-1.00391 -0.85937,-2.66406 -0.39844,-1.65625 -0.52344,-4.4336 -0.52344,-4.4336 l -0.36719,-1.74218 c 0,0 1.59375,3.55468 2.07422,5.14843 0.49609,1.59375 0.85937,4.5 0.85937,4.5 0,0 -0.13281,-0.16797 -0.59765,-0.59765 z m 0,0"
       fill-opacity="1"
       fill-rule="nonzero"
       id="path2" />
  </g>
</svg>
