<?xml version="1.0" encoding="UTF-8" standalone="no"?>
<svg
   width="163.78168"
   zoomAndPan="magnify"
   viewBox="0 0 122.77074 162.86256"
   height="217.15009"
   preserveAspectRatio="xMidYMid"
   version="1.0"
   id="svg2"
   sodipodi:docname="dog-konsultacje-behawioralne-hover.svg"
   inkscape:version="1.4 (86a8ad7, 2024-10-11)"
   xmlns:inkscape="http://www.inkscape.org/namespaces/inkscape"
   xmlns:sodipodi="http://sodipodi.sourceforge.net/DTD/sodipodi-0.dtd"
   xmlns="http://www.w3.org/2000/svg"
   xmlns:svg="http://www.w3.org/2000/svg">
  <sodipodi:namedview
     id="namedview2"
     pagecolor="#ffffff"
     bordercolor="#000000"
     borderopacity="0.25"
     inkscape:showpageshadow="2"
     inkscape:pageopacity="0.0"
     inkscape:pagecheckerboard="0"
     inkscape:deskcolor="#d1d1d1"
     inkscape:zoom="3.89"
     inkscape:cx="94.858612"
     inkscape:cy="107.58355"
     inkscape:window-width="2560"
     inkscape:window-height="1369"
     inkscape:window-x="-8"
     inkscape:window-y="-8"
     inkscape:window-maximized="1"
     inkscape:current-layer="svg2" />
  <defs
     id="defs1">
    <clipPath
       id="b3553678c7">
      <path
         d="M 41.066406,31 H 164.00391 V 195 H 41.066406 Z m 0,0"
         clip-rule="nonzero"
         id="path1" />
    </clipPath>
  </defs>
  <g
     clip-path="url(#b3553678c7)"
     id="g2"
     transform="translate(-41.227658,-31.839628)">
    <path
       fill="#f5ded2"
       d="m 123.92188,143.95703 c -0.9375,1.38672 -0.76563,3.38281 -0.85547,5.02734 -0.0977,1.875 -0.21875,3.76954 -0.1211,5.6211 0.1875,3.52344 1.19141,7.0664 1.55469,10.55859 0.16406,1.5586 0.72266,2.9961 0.72266,4.59375 -0.004,1.59766 -0.625,3.125 -0.35938,4.81641 0.41797,2.69922 0.57031,5.79297 2.34375,8.10156 -0.5625,-2.64062 -0.1914,-5.48437 -1.02734,-7.99219 -0.51953,-1.57812 -0.41406,-2.80859 -0.24219,-4.47265 0.16016,-1.53516 -0.125,-2.9336 -0.11719,-4.47266 0.008,-3.69141 -0.36328,-7.45703 -0.93359,-11.01562 -0.55469,-3.49219 -0.0898,-7.04297 -0.0312,-10.58204 -0.27734,-0.14843 -0.59375,-0.21875 -0.93359,-0.18359 z m 36.42578,-74.503905 c 0.51171,-0.207031 1.21875,0.109375 1.59375,0.523437 -0.375,-0.01953 -0.96875,-0.195312 -1.22657,0.03906 0.4961,0.1875 1.03125,0.515625 1.42188,0.863281 -0.30078,0.02734 -0.60547,0 -0.90235,-0.04687 0.21875,0.07422 0.21485,0.59375 0.48829,0.804688 0.39062,0.300781 1.14062,0.496093 1.61328,0.703125 -0.32813,0.1875 -0.90235,0.234375 -1.3086,0.222656 0.39844,0.382812 1.08985,0.421875 1.42188,0.78125 -0.32422,0.117188 -0.69922,0.07031 -1.04688,0.06641 0.85938,0.515625 1.4375,1.175782 1.66016,2.164063 -0.16016,-0.328125 -0.54688,-0.5625 -0.89453,-0.664063 0.35937,0.660156 0.43359,1.488282 0.64062,2.21875 -0.23047,-0.308594 -0.54297,-0.570312 -0.76172,-0.886718 0.1836,0.554687 0.36329,1.164062 0.41407,1.742187 -0.22266,-0.238281 -0.625,-0.273437 -1.03907,-0.253906 0.39844,0.417969 0.75391,1.027343 0.73438,1.539062 -0.25391,-0.234375 -0.56641,-0.519531 -0.93359,-0.523437 0.29687,0.265625 0.5,0.746094 0.44531,1.132812 -0.17578,-0.175781 -0.39453,-0.289062 -0.64063,-0.363281 0.0898,0.226563 0.25391,0.453125 0.22266,0.71875 -0.77734,-0.292969 -1.36328,0.07813 -2.0625,0.347656 0.44531,0.277344 1.18359,0.628907 1.41016,1.082031 -0.47657,-0.0078 -0.95313,0.125 -1.41016,0.238282 0.35937,0.144531 1.13281,0.675781 1.28906,0.96875 -0.48437,0.109375 -0.98437,0.101562 -1.48047,0.132812 0.125,0.691406 0.875,1.320313 0.87891,2.050782 -0.33984,-0.08203 -0.55469,-0.492188 -0.87891,-0.664063 0.16797,0.378906 0.44141,0.878906 0.39844,1.296875 -0.082,-0.08984 -0.33203,-0.214844 -0.39844,-0.277344 0.0781,0.292969 0.3086,0.539063 0.28125,0.847656 -0.5664,0.03125 -1.05859,0.08594 -1.57031,0.179688 0.33203,0.214844 0.63281,0.621094 0.67969,0.96875 -0.28906,-0.02344 -0.54297,-0.183594 -0.82813,-0.253906 0.26953,0.230468 0.53125,0.625 0.46094,0.988281 -0.24219,-0.136719 -0.49219,-0.28125 -0.76172,-0.316406 0.29297,0.207031 0.48828,0.472656 0.46485,0.84375 -0.28907,-0.03516 -0.57422,-0.144531 -0.88282,-0.09766 0.13282,0.257813 0.21485,0.585938 0.16407,0.902344 -0.16407,-0.07813 -0.38672,-0.136718 -0.58204,-0.15625 0.19532,0.640625 0.25,1.273438 0.64454,1.875 -0.33985,0.04687 -0.69141,-0.113281 -1.00391,-0.15625 0.125,0.339844 0.26172,0.746094 0.34375,1.078125 -0.22656,-0.101562 -0.45313,-0.253906 -0.70313,-0.332031 -0.043,0.308594 0.0703,0.601562 0.043,0.90625 -0.19922,-0.136719 -0.40625,-0.347656 -0.64062,-0.445312 0.0703,0.21875 0.14453,0.476562 0.10156,0.71875 -0.0508,-0.0625 -0.11328,-0.101563 -0.15625,-0.144532 -0.13672,1.101563 -1.37109,2.160156 -1.79297,3.207032 -0.26562,0.667968 -0.29297,2.613281 -0.89062,3.535156 0.23437,0.328125 0.46484,0.656243 0.66406,0.996093 0.84766,1.4414 1.39844,2.97656 1.22656,4.70703 -0.1914,1.95312 -2.6289,6.62109 -5.51953,6.09375 -0.10156,1.62891 0.32813,5.19531 0.0469,5.98437 -0.70313,1.96875 -1.98438,4.73829 0.16796,6.375 -0.48437,0.004 -0.67187,0.0117 -1.01562,-0.3125 -0.0977,0.85157 0.44922,1.55469 0.92578,2.16016 -0.43359,-0.13281 -0.83594,-0.35937 -1.19531,-0.63672 0.0234,0.73047 0.33203,1.39844 0.22265,2.12891 -0.25,-0.30469 -0.6289,-0.6836 -1.01171,-0.78125 0.80468,0.79297 0.33203,2.17968 0.5664,3.16797 -0.21875,-0.57422 -0.6289,-1.14063 -1.18359,-1.32813 0.21484,0.89063 0.67187,2.12109 0.1289,2.96875 -0.1914,-0.49609 -0.39453,-0.98047 -0.6289,-1.45703 0.008,0.75781 0.13281,1.75391 -0.21094,2.37109 -0.11328,-0.40234 -0.23047,-0.9375 -0.35547,-1.25 -0.37109,1.3711 -0.39062,2.84375 -0.39062,4.28125 0,-0.89843 -0.60157,-1.67187 -0.58985,-2.53515 -0.2539,0.69922 -0.35156,1.50781 -0.39062,2.2539 -0.14063,-0.3125 -0.25391,-0.84765 -0.42578,-1.23047 -0.15625,0.60157 -0.40235,1.21094 -0.60157,1.78125 -0.0234,-0.26171 -0.18359,-0.41406 -0.2539,-0.64843 -0.44531,0.21875 -0.76953,0.87109 -1.16797,0.72656 -1.72656,5.76953 -4.28906,11.36328 -5.54297,17.28125 -0.66016,3.08984 -1.10156,5.99609 -1.43359,9.18359 -0.3125,2.96485 -0.51172,5.54297 -1.55469,8.26172 0.004,2.76172 0.082,5.74219 0.82422,8.26953 0.46094,1.54688 1.0664,4.58203 2.44922,6.32813 0,0 0,0 0.004,0 2.44141,-0.25781 6.03907,1.27344 7.33594,3.1914 2.28906,3.36329 -3.01172,3.60157 -5.55078,3.57032 -0.87891,0.73047 -2.57813,0.82422 -3.39063,0.21484 l -0.15625,-0.004 c -0.0352,1.44532 -1.55859,2.76172 -3.4375,1.83985 l -0.0937,-0.0234 c -0.39843,1.60156 -3.89453,1.46094 -5.36328,0.48828 -1.91015,1.5 -6.45703,-1.15625 -7.34765,-3.10156 -0.75391,-1.64063 -0.77735,-3.58594 -1.20313,-5.27344 -0.39062,-1.55859 -0.68359,-3.14062 -0.98047,-4.75781 -0.54296,-0.625 -1.04687,-1.25391 -1.26171,-2.04688 -0.23047,-0.84375 -0.11719,-1.80078 -0.17188,-2.70312 -0.10547,-1.76563 -0.42578,-3.71094 -0.78516,-5.44531 -0.67578,-3.26953 -1.48828,-6.60157 -2.32812,-9.84375 -0.86719,-3.35157 -1.39063,-6.87891 -2.12891,-10.21485 -0.40234,-1.82031 -0.61328,-3.74609 -0.98047,-5.59765 -0.26953,-1.36328 -0.30468,-3.25 -1.12109,-4.47266 -1.00781,2.22656 -1.12109,5.0625 -1.82031,7.45703 -0.89063,3.06641 -3.48047,5.11719 -4.69531,8.00781 -1.22266,2.89454 -1.789068,6.87891 -0.94922,10.09766 0.82422,3.16016 2.83203,5.39063 4.75,8.05859 0.92968,1.29688 1.64062,2.09766 2.78125,2.92969 1.3164,0.25 2.45703,0.69531 3.38281,1.72266 0.92969,1.03125 1.63672,2.94531 -0.26953,3.47265 l -0.0547,-0.0234 c -0.59375,1.21875 -3.11328,1.48828 -4.48437,0.36328 -1.02344,0.35547 -2.88672,0.0703 -3.47657,-0.22656 -1.67187,-0.82813 -2.78515,-2.16407 -3.35156,-3.78907 -0.527344,-1.54687 -1.390625,-3.1875 -2.484375,-4.5 -1.265625,-1.52734 -1.539063,-2.67578 -2.035156,-4.47265 -0.898438,-3.25 -3.554688,-6.70703 -2.394531,-10.1875 1.101562,-3.29688 2.445312,-5.96094 2.011718,-9.52735 -0.02734,-0.25781 -0.09375,-0.47656 -0.113281,-0.73047 -0.351563,0.6836 -0.769531,1.72266 -0.941406,2.09766 -0.09375,-1.06641 0.414062,-2.1875 0.796875,-3.16797 -0.5625,0.46485 -0.792969,1.17969 -1.1875,1.76172 -0.03516,-0.82031 0.445312,-1.51953 0.488281,-2.33203 -0.433594,0.36328 -0.738281,0.85937 -1.089844,1.30469 0.05469,-0.74219 0.105469,-1.91797 0.46875,-2.5625 -0.347656,0.66797 -0.988281,0.94922 -1.492187,1.4375 0.691406,-0.92188 1.421875,-2.35547 1.277344,-3.51172 -0.464844,0.52734 -0.90625,1.08594 -1.457032,1.52734 0.558594,-0.62109 0.765625,-1.44531 0.960938,-2.21484 -0.710938,0.57422 -1.214844,1.13281 -1.667969,1.8789 0.261719,-0.94531 0.71875,-1.80468 0.84375,-2.79687 -0.339844,0.86719 -1.042969,1.59766 -1.445313,2.45312 -0.07422,-1.0039 0.46875,-2.53515 0.792969,-3.48828 -0.394531,0.65625 -0.953125,1.1836 -1.269531,1.88282 0.01563,-0.9336 0.203125,-1.87891 0.125,-2.80079 -0.230469,0.79297 -0.394531,1.6836 -0.8125,2.36719 -0.01563,-0.69531 -0.472656,-1.39453 -0.75,-2.02344 0.03125,0.78516 -0.214844,1.73438 -0.445312,2.45704 -0.09375,-0.47657 -0.265626,-0.9375 -0.601563,-1.30469 0.02344,0.69531 -0.136719,1.35547 -0.382813,1.98828 -0.136718,-0.36328 -0.171874,-0.78516 -0.113281,-1.18359 -0.210937,0.5625 -0.257812,1.33203 -0.699219,1.78515 -0.04297,-0.33594 -0.148437,-0.64062 -0.144531,-0.98828 -0.132812,0.57422 -0.335937,1.24219 -0.695312,1.67969 -0.02734,-0.34375 -0.148438,-0.64063 -0.140625,-0.99219 -0.28125,0.59766 -0.429688,1.25781 -0.601563,1.88281 -0.125,-0.41406 -0.15625,-0.89062 -0.144531,-1.33203 -0.789062,0.75391 -1.066406,3 -1.292969,4.08594 0.0078,-0.87891 -0.132812,-1.84766 0.128907,-2.67969 -0.261719,0.54688 -0.550782,1.17578 -0.726563,1.76563 0.01563,-0.39844 0.0039,-0.8125 -0.01953,-1.19922 -0.261719,0.53906 -0.542969,1.1289 -0.917969,1.6289 -0.269531,0.91407 -0.925781,2.06641 -1.25,2.78907 -0.589844,1.32812 -0.953125,2.66015 -1.402344,4.04687 -0.429687,1.34375 -0.921875,2.63672 -1.34375,3.98828 -0.277343,0.88672 -0.441406,1.77735 -0.578125,2.6875 0.320313,0.88282 0.660156,1.75782 0.488282,2.84766 -0.269532,1.74219 -0.363282,3.51172 -0.363282,5.39453 0,3.70313 -0.417968,7.53125 0.988282,10.87109 0.605468,1.42969 1.316406,3.10938 0.773437,4.70313 -0.597656,1.76562 -1.960937,2.56641 -3.5625,1.87891 -0.6875,0.6914 -1.917969,0.65625 -2.421875,-0.28907 -0.484375,0.39063 -1.441406,0.39063 -1.976562,0.0156 -0.640626,-0.44922 -0.882813,-1.48047 -0.984376,-2.14844 -0.273437,-1.87109 0.546876,-3.42969 0.722657,-5.16406 0.359375,-3.57031 0.5,-7.67188 0.121093,-11.2461 -0.238281,-2.21875 -0.300781,-4.24609 0.238282,-6.42578 0.507812,-2.03515 0.226562,-3.98047 0.0625,-6.01953 -0.40625,0.6836 -0.9375,1.3125 -1.449219,1.96485 0.441406,-0.64063 0.648437,-1.33985 0.671875,-2.10157 -0.507812,0.75 -1.070312,1.61719 -1.441406,2.44922 0.02344,-0.6289 0.238281,-1.27734 0.375,-1.88672 -0.617188,1.23438 -1.601563,3.09766 -2.503906,4.08985 -0.07031,-0.60547 0.136718,-1.35938 0.441406,-2.00782 0.164062,-0.26953 0.328125,-0.53906 0.476562,-0.8164 -0.167968,0.23047 -0.332031,0.51172 -0.476562,0.8164 -0.382813,0.6211 -0.792969,1.23829 -1.160156,1.86719 -0.01563,-0.63672 0.0039,-1.51172 0.195312,-2.10156 -0.410156,0.71875 -0.8125,1.64844 -1.390625,2.24219 0.07031,-0.53125 0.109375,-1.10547 0.09766,-1.67578 -0.394531,1.26562 -1.554687,2.64453 -2.5,3.50781 0.332031,-0.71875 0.652344,-1.55469 0.554688,-2.36328 -0.386719,0.88281 -0.953125,2.01172 -1.78125,2.5664 0.335937,-0.625 0.242187,-1.30078 0.257812,-1.99218 -0.582031,1.09765 -1.429687,1.89843 -2.140625,2.82812 0.242188,-0.6875 0.496094,-1.38672 0.464844,-2.13281 -0.871094,1.38672 -2.199219,2.28515 -3.1875,3.50781 0.429688,-0.76953 0.621094,-1.46484 0.660156,-2.28125 -0.90625,1.73828 -3.035156,2.71484 -4.640625,3.65625 0.367188,-0.87891 1.210938,-1.47656 1.972657,-2.0625 -0.996094,0.38672 -2.777344,1.24219 -3.164063,2.26953 -0.06641,-0.8125 0.574219,-1.51562 1.035156,-2.125 -1.144531,0.39844 -1.960937,0.9375 -2.589843,1.92188 -0.105469,-0.60547 -0.0625,-1.19532 0.433593,-1.57813 -0.761719,0.41406 -1.5625,1.0625 -2.109375,1.69141 -0.109375,-0.59766 0.167969,-1.15625 0.40625,-1.69922 -0.628906,0.37891 -1.492187,0.59766 -2.082031,1.04297 -0.699219,0.53906 -1.007813,1.48047 -1.921875,1.79687 0.558594,-0.71875 0.992188,-1.57031 1.039062,-2.47265 -0.40625,0.55468 -1,1.05078 -1.515624,1.44531 -0.08594,-0.49219 -0.04688,-1 0.292968,-1.375 -2.125,0.94922 -3.039062,3.08594 -3.304687,5.13672 -0.1875,-0.75391 -0.117188,-1.57813 -0.117188,-2.3711 0,-0.60156 -0.08594,-1.26171 -0.0039,-1.85546 0.04687,-0.40235 0.160156,-0.78125 0.304687,-1.14454 0.390626,-2.74609 2.179688,-5.76562 4.035157,-7.64453 2.128906,-2.14843 5.207031,-3.92578 7.753906,-5.74218 3.101563,-2.20704 6.496094,-4.34766 9.0625,-7.17188 2.351563,-2.58594 3.957031,-6.32812 5.175781,-9.49609 l -0.07813,-0.0859 c -0.503906,0.39062 -0.835937,0.86719 -1.214843,1.45312 0.01953,-0.85156 0.449218,-1.64453 0.707031,-2.47265 -0.417969,0.33984 -0.882813,0.76562 -1.070313,1.21094 0.171875,-0.5625 0.390625,-1.14063 0.566406,-1.70313 -0.46875,0.21484 -1.042968,0.45703 -1.375,0.875 0.375,-0.75 0.777344,-1.64844 1.347657,-2.26953 -0.78125,0.26953 -1.777344,0.71094 -2.316407,1.35156 0.5,-0.60156 0.863282,-1.32812 1.386719,-1.89453 -0.527343,0.0859 -1.082031,0.37109 -1.53125,0.70703 0.355469,-0.35547 0.886719,-1.04687 1.144531,-1.63672 -0.488281,0.1211 -0.933593,0.41797 -1.285156,0.75391 0.222656,-0.77344 0.875,-1.5 1.460938,-2.25 -0.402344,0.11719 -0.789063,0.29687 -1.175782,0.41016 0.269532,-0.3125 0.5625,-0.60547 0.878907,-0.87891 -0.410157,0.0859 -0.6875,0.10937 -1.019531,0.33203 0.230468,-0.3125 0.503906,-0.64062 0.6875,-0.99219 -0.207032,0.0156 -0.488282,-0.0781 -0.695313,-0.0469 0.40625,-0.41406 0.832031,-0.88672 1.300781,-1.30078 -0.402344,-0.0859 -0.8125,-0.13672 -1.179687,-0.1836 0.289062,-0.42187 0.910156,-0.51953 1.390625,-0.76171 -0.613282,-0.0664 -1.089844,0.27343 -1.710938,0.32812 0.316406,-0.77734 1.046875,-1.22266 1.738282,-1.59375 -0.574219,-0.0352 -1.171876,-0.0117 -1.738282,-0.0391 0.242188,-0.83985 1.25,-0.91406 1.855469,-1.21875 -0.621094,-0.0469 -1.269531,-0.0117 -1.890625,-0.0508 0.46875,-0.48438 1.097656,-0.70703 1.734375,-0.89453 -0.425781,-0.26954 -0.996094,-0.2461 -1.464844,-0.3125 0.421875,-0.4336 1.128907,-0.41797 1.742188,-0.39844 -0.320313,-0.19531 -0.585938,-0.50781 -0.738281,-0.86719 0.289062,0.22656 0.554687,0.30078 0.855468,0.41016 -0.238281,-0.29297 -0.324218,-0.71094 -0.203125,-1.11719 0.257813,0.23828 0.570313,0.49609 0.898438,0.59766 -0.347657,-3.14844 0.132812,-5.61719 0.640625,-8.64063 0.316406,-1.88672 0.460937,-3.35937 1.578125,-5.01562 0.910156,-1.35157 2.175781,-2.47266 3.109375,-3.79297 0.945312,-1.33985 1.625,-2.94141 2.628906,-4.246095 0.863281,-1.117187 2.195312,-1.632812 3.429688,-2.128906 0.796874,-1.257812 1.664062,-2.328125 3.339843,-3.210937 1.988281,-1.042969 3.921875,-1.578125 6.007813,-2.148438 3.265625,-0.902343 6.570312,-2.226562 9.699218,-3.554687 1.644532,-0.695313 3.363282,-1.449219 5.144532,-1.609375 1.36329,-0.128907 2.75391,0.175781 4.02735,0.214843 0.61719,-0.570312 1.30078,-1.082031 2.19531,-1.476562 0.79297,-0.355469 1.98047,-0.867188 2.98047,-1.117188 0.57422,-0.734374 1.24219,-1.390624 2.16797,-1.953124 0.86328,-0.523438 1.85156,-0.695313 2.74609,-0.964844 0.79688,-1.695313 1.58594,-3.261719 2.72266,-4.835938 0.46875,-0.636718 1.21875,-1.394531 1.70703,-2.199218 -0.69922,-1.8125 -0.70313,-3.746094 -2.15234,-5.457032 -1.4375,-1.699218 -2.88282,-2.671875 -2.02344,-4.695312 -0.0977,-0.15625 -0.19141,-0.3125 -0.28125,-0.464844 -0.80469,-1.390625 -1.54688,-2.988281 -2.1211,-4.476562 -0.73437,-1.902344 -0.57812,-3.734376 -0.47656,-5.742188 0.125,-2.429688 -0.36328,-9.539062 3.23047,-9.523438 3.3125,0.01563 5.68359,3.976563 8.04688,5.941407 1.29687,1.074219 2.85937,2.007812 3.94921,3.210937 0.63282,0.699219 1.15625,2.304688 1.89063,3.109375 0.64062,-0.214843 1.28515,-0.515625 1.8164,-0.644531 1.09766,-0.265625 2.22657,-0.285156 3.32813,-0.601562 1.04297,-0.304688 1.96484,-0.90625 2.98828,-1.261719 0.67969,-0.234375 1.41797,-0.261719 2.08984,-0.433594 0.15235,-1.878906 -0.29296,-3.890625 0.51172,-5.539063 1.5625,-3.191406 1.57032,-6.988281 2.66407,-10.324218 0.79687,-2.464844 2.83593,-7.574219 6.25781,-4.046875 1.08203,1.117187 1.9375,3.226562 2.59765,4.628906 0.66407,1.398437 1.3125,2.800781 1.79297,4.242187 0.96875,2.917969 2.20703,6.179688 2.26953,9.363282 0.73829,0.320312 1.2461,0.636718 1.44532,1.535156 0.17187,0.804688 -0.004,1.867188 -0.125,2.640625 -0.23047,1.480469 -0.66797,2.824219 -1.53125,4.015625 0.49218,-0.0078 0.98047,0.121094 1.39453,0.390625 -0.26563,0.01172 -0.55078,-0.02344 -0.75,0.117187 0.49609,0.06641 1.13281,0.285157 1.48437,0.628907 -0.42578,0.02734 -0.86328,0.01172 -1.29687,0.01172 0.625,0.05469 1.42187,0.484374 1.8164,0.96875 -0.47656,0.03906 -0.96875,-0.125 -1.46875,-0.09375 0.57813,0.07812 1.21485,0.476562 1.71485,0.835937 -0.41797,0.02734 -0.79688,0 -1.19531,0.113281 -0.35938,0.105469 -0.67969,0.285156 -1,0.476563 0.8789,0.113281 1.61718,0.84375 2.5664,0.808593 -0.34765,0.34375 -0.97656,0.277344 -1.47265,0.273438 0.55468,0.226562 1.53515,0.730469 2.1289,0.703125 -0.32422,0.21875 -0.8125,0.234375 -1.23047,0.21875 0.54688,0.222656 1.10547,0.570313 1.69532,0.703125 -0.28125,0.144531 -0.61719,0.08984 -0.92969,0.113281 0.73047,0.347657 1.34375,0.710938 2.25,0.671875 -0.73047,0.398438 -1.24219,0.835938 -2.11719,0.570313 0.43359,0.398437 1.10938,0.535156 1.64844,0.707031 -0.32422,0.261719 -1.02344,0.332031 -1.42188,0.664062 0.50391,0.03516 1.55078,-0.101562 1.78125,0.40625 -0.85156,-0.01562 -1.45703,0.304688 -2.09375,0.683594 z m 0,0"
       fill-opacity="1"
       fill-rule="nonzero"
       id="path2" />
  </g>
</svg>
