
<svg xmlns="http://www.w3.org/2000/svg" xmlns:xlink="http://www.w3.org/1999/xlink" width="300" zoomAndPan="magnify" viewBox="0 0 224.87999 225" height="300" preserveAspectRatio="xMidYMid meet" version="1.0"><defs><clipPath id="1dc6cc825a"><path d="M 73 40 L 152 40 L 152 186.808594 L 73 186.808594 Z M 73 40 " clip-rule="nonzero"/></clipPath></defs><g clip-path="url(#1dc6cc825a)"><path fill="#22c55e" d="M 90.835938 73.578125 C 91.109375 73.351562 90.917969 73.042969 91 72.785156 C 91 72.742188 90.929688 72.671875 90.878906 72.601562 C 91.074219 71.992188 90.945312 71.785156 90.011719 68.929688 C 89.566406 67.554688 89.070312 67.421875 88.566406 63.628906 C 88.191406 60.769531 88.707031 59.222656 88.363281 58.941406 C 87.914062 59.523438 88.445312 59.816406 87.492188 62.46875 C 87.375 62.777344 87.464844 62.46875 87.023438 64.324219 C 86.480469 66.628906 85.613281 68.4375 84.855469 70.402344 C 84.367188 71.675781 82.867188 74.128906 81.71875 74.519531 C 80.203125 75.039062 81.589844 72.203125 79.414062 69.480469 C 79.164062 69.171875 78.96875 68.800781 78.714844 68.488281 C 76.59375 65.949219 77.28125 67.035156 76.089844 65.121094 C 74.929688 63.265625 74.390625 62.585938 73.597656 58.691406 C 73.085938 56.160156 73.574219 56.355469 73.292969 55.773438 C 73.070312 55.308594 73.835938 54.851562 75.539062 53.015625 C 76.078125 52.429688 76.855469 52.445312 77.960938 51.484375 C 78.808594 50.742188 80.570312 49.648438 81.941406 48.695312 C 84.3125 47.035156 82.996094 47.859375 84.277344 47.085938 C 87.929688 44.886719 88.109375 45.25 89.015625 44.449219 C 89.90625 43.914062 90.824219 43.429688 91.769531 42.996094 C 93.425781 42.277344 93.382812 43.300781 95.425781 42.90625 C 98.425781 42.320312 104.121094 38.464844 111.335938 40.996094 C 113.152344 41.636719 114.820312 42.554688 116.332031 43.753906 C 117.195312 44.464844 118.550781 45.402344 119.308594 46.148438 C 120.335938 47.148438 121.542969 47.828125 122.929688 48.191406 C 123.441406 48.304688 123.511719 48.191406 124.089844 48.636719 C 125.011719 49.386719 125.871094 50.203125 126.667969 51.085938 C 127.226562 51.804688 127.964844 52.257812 128.292969 52.640625 C 134.332031 59.757812 136.253906 62.230469 136.527344 62.566406 C 138.039062 64.367188 137.25 62.769531 138.9375 66.21875 C 139.210938 66.773438 138.910156 66.96875 138.9375 67.328125 C 139.070312 68.722656 136.179688 72.464844 136.179688 72.46875 C 135.515625 73.546875 133.367188 75.53125 131.296875 76.527344 C 130.550781 76.882812 129.359375 77.398438 128.65625 77.753906 C 128.457031 77.875 128.277344 78.015625 128.113281 78.183594 C 126.5625 79.289062 126.867188 80.453125 126.402344 80.820312 C 126.339844 80.898438 126.308594 80.988281 126.304688 81.089844 C 126.25 81.472656 125.769531 81.914062 125.335938 81.617188 C 124.683594 81.074219 124.234375 80.398438 123.988281 79.585938 C 123.15625 76.183594 122.765625 77.527344 122.285156 68.386719 C 122.285156 68.128906 122.214844 67.871094 122.207031 67.613281 C 122.148438 65.742188 122.207031 65.625 122.117188 64.914062 C 121.808594 65.011719 121.789062 65.242188 121.542969 66.019531 C 120.527344 69.207031 120.625 69.011719 120.363281 69.425781 C 119.640625 70.625 119.714844 71.09375 119.429688 71.601562 C 119.40625 71.644531 119.367188 71.699219 119.378906 71.738281 C 119.453125 72.027344 119.253906 72.25 119.214844 72.5 C 119.144531 72.742188 119.046875 72.972656 118.925781 73.191406 C 118.867188 73.363281 118.828125 73.539062 118.773438 73.707031 C 118.628906 74.105469 118.402344 74.628906 118.382812 74.730469 C 118.304688 75.125 118.105469 76.207031 118.105469 76.210938 C 118.070312 78.457031 118.152344 78.527344 117.90625 78.964844 C 117.417969 79.832031 117.90625 80.46875 117.800781 80.636719 C 117.695312 80.808594 117.753906 81.015625 117.785156 81.207031 C 117.929688 82.0625 118.1875 82.878906 118.5625 83.65625 C 122.167969 90.824219 123.292969 90.089844 124.996094 96.257812 C 125.089844 96.609375 125.6875 98.820312 125.710938 99.265625 C 125.742188 99.773438 125.957031 100.25 126.167969 101.503906 C 126.246094 102.089844 126.457031 102.625 126.796875 103.105469 C 127.125 103.546875 127.375 104.046875 127.671875 104.515625 C 131.21875 110.097656 132.195312 110.804688 133.699219 113.929688 C 134.765625 116.152344 135.910156 119.011719 136.285156 119.691406 C 137.203125 121.351562 137.582031 123.941406 137.582031 123.945312 C 138.277344 127.238281 138.261719 125.476562 138.707031 129.097656 C 139.050781 131.90625 139.574219 131.472656 139.527344 133.203125 C 139.445312 135.917969 139.417969 136.742188 140.378906 137.613281 C 140.996094 138.207031 141.679688 138.710938 142.425781 139.125 C 143.375 139.59375 144.066406 140.308594 144.503906 141.269531 C 145.632812 143.859375 144.832031 144.074219 145.484375 145.828125 C 146.226562 147.808594 147.585938 148.425781 148.078125 152.027344 C 148.640625 156.140625 144.496094 164.363281 143.597656 166.570312 C 141.890625 170.777344 141.847656 170.664062 140.941406 172.242188 C 140.464844 173.074219 140.742188 173.011719 140.21875 174.386719 C 139.542969 176.164062 139.496094 176.628906 139.910156 178.558594 C 139.9375 178.703125 140.003906 178.828125 140.109375 178.925781 C 140.21875 179.027344 140.34375 179.089844 140.488281 179.105469 C 141.625 179.3125 145.511719 180.273438 149.222656 179.878906 C 149.695312 179.824219 150.15625 179.886719 150.597656 180.066406 C 151.921875 180.605469 152.070312 180.660156 151.839844 181.167969 C 150.539062 184.046875 145.179688 183.351562 141.269531 183.878906 C 140.503906 183.980469 140.242188 183.761719 140.078125 184.183594 C 139.375 186.019531 137.582031 186.074219 128.898438 185.714844 C 128.355469 185.691406 128.636719 186.328125 127.53125 186.34375 C 123.152344 186.433594 121.832031 186.527344 116.066406 186.496094 C 115.433594 186.496094 115.480469 186.414062 113.523438 186.304688 C 112.945312 186.273438 112.367188 186.253906 111.789062 186.214844 C 111.582031 186.195312 111.382812 186.140625 111.195312 186.050781 C 111.007812 185.957031 110.84375 185.835938 110.699219 185.683594 C 110.558594 185.527344 110.449219 185.355469 110.375 185.160156 C 110.296875 184.964844 110.257812 184.761719 110.257812 184.554688 C 110.257812 184.40625 110.238281 184.261719 110.222656 184.082031 C 109.265625 184.007812 111.9375 184.082031 99.265625 184.011719 C 91.582031 183.960938 91.867188 183.84375 91.742188 184.242188 C 91.242188 185.882812 89.464844 185.339844 86.453125 185.328125 C 77 185.292969 78.675781 185.308594 74.488281 184.878906 C 73.058594 184.726562 73.570312 183.863281 73.117188 183.324219 C 72.832031 183 73.507812 182.589844 73.519531 182.171875 C 73.542969 181.367188 74.050781 180.964844 75.207031 179.3125 C 75.84375 178.390625 76.722656 177.027344 77.128906 176.503906 C 77.992188 175.394531 78.691406 176.039062 79.085938 175.015625 C 79.324219 174.40625 80.570312 172.910156 80.683594 168.554688 C 80.742188 166.152344 80.761719 166.785156 81.109375 165.238281 C 81.421875 162.804688 81.550781 160.359375 81.503906 157.90625 C 81.488281 156.796875 81.269531 154.035156 81.558594 153.003906 C 81.796875 152.152344 81.933594 148.839844 81.917969 148.347656 C 81.816406 145.167969 81.894531 146.078125 81.863281 145.105469 C 81.863281 144.667969 81.707031 144.007812 81.71875 143.898438 C 81.746094 143.285156 81.730469 142.671875 81.671875 142.058594 C 81.648438 141.1875 81.671875 140.3125 81.617188 139.441406 C 81.515625 137.753906 81.128906 135.855469 81.34375 134.261719 C 81.917969 129.996094 80.828125 131.0625 82.175781 127.058594 C 82.433594 126.296875 82.863281 126 82.71875 125.34375 C 82.585938 124.730469 82.609375 123.917969 82.210938 122.640625 C 81.261719 119.984375 80.863281 117.246094 81.011719 114.429688 C 81.011719 114.429688 80.824219 112.71875 81.320312 105.464844 C 81.378906 104.59375 82.101562 100.949219 82.199219 100.683594 C 83.527344 96.953125 83.179688 97.949219 83.828125 96.394531 C 84.59375 94.574219 84.476562 94.8125 84.507812 94.757812 C 87.730469 89.222656 88.136719 89.125 88.246094 88.023438 C 88.347656 87.519531 88.472656 87.019531 88.628906 86.53125 C 88.757812 85.949219 89.332031 85.734375 90.308594 82.296875 C 90.464844 81.867188 90.585938 81.433594 90.675781 80.988281 C 90.746094 80.425781 90.808594 79.863281 90.925781 79.3125 C 91.042969 78.644531 91.027344 77.984375 90.882812 77.320312 C 90.84375 75.976562 91.046875 75.449219 90.882812 74.785156 C 90.839844 74.59375 90.84375 74.40625 90.902344 74.21875 C 90.960938 74.023438 90.738281 73.832031 90.917969 73.652344 Z M 92.890625 164.660156 C 92.867188 164.726562 92.851562 164.792969 92.84375 164.863281 C 92.75 167.535156 92.632812 167.332031 92.5625 167.980469 C 92.078125 172.484375 92.527344 172.847656 92.339844 173.53125 C 92.230469 174.023438 92.308594 174.488281 92.574219 174.917969 C 92.703125 175.183594 92.769531 175.203125 93.074219 175.148438 C 94.320312 174.941406 94.34375 175.148438 95.101562 174.84375 C 97.117188 174.066406 97.488281 173.941406 98.289062 173.796875 C 98.84375 173.695312 98.714844 173.28125 99.105469 173.011719 C 99.699219 172.601562 99.105469 172.183594 99.300781 171.132812 C 99.390625 170.636719 99.152344 170.433594 97.539062 169.027344 C 96.503906 168.128906 96.949219 168.808594 95.625 167.734375 C 95.101562 167.316406 94.53125 166.953125 94.113281 166.390625 C 92.765625 164.578125 93.152344 164.597656 92.890625 164.660156 Z M 112.976562 176.019531 C 113.144531 175.839844 113.105469 176.082031 113.425781 174.59375 C 113.472656 174.382812 113.34375 174.324219 112.550781 173.832031 C 112.449219 173.769531 112.347656 173.722656 112.1875 173.640625 C 112.179688 174.5625 112.558594 175.273438 112.976562 176.019531 Z M 112.976562 176.019531 " fill-opacity="1" fill-rule="nonzero"/></g></svg>
