<?xml version="1.0" encoding="UTF-8" standalone="no"?>
<svg
   width="165.84334"
   zoomAndPan="magnify"
   viewBox="0 0 124.31616 91.890987"
   height="122.52132"
   preserveAspectRatio="xMidYMid"
   version="1.0"
   id="svg2"
   sodipodi:docname="23.svg"
   inkscape:version="1.4 (86a8ad7, 2024-10-11)"
   xmlns:inkscape="http://www.inkscape.org/namespaces/inkscape"
   xmlns:sodipodi="http://sodipodi.sourceforge.net/DTD/sodipodi-0.dtd"
   xmlns="http://www.w3.org/2000/svg"
   xmlns:svg="http://www.w3.org/2000/svg">
  <sodipodi:namedview
     id="namedview2"
     pagecolor="#ffffff"
     bordercolor="#000000"
     borderopacity="0.25"
     inkscape:showpageshadow="2"
     inkscape:pageopacity="0.0"
     inkscape:pagecheckerboard="0"
     inkscape:deskcolor="#d1d1d1"
     inkscape:zoom="3.89"
     inkscape:cx="83.161954"
     inkscape:cy="61.311054"
     inkscape:window-width="2560"
     inkscape:window-height="1369"
     inkscape:window-x="-8"
     inkscape:window-y="-8"
     inkscape:window-maximized="1"
     inkscape:current-layer="svg2" />
  <defs
     id="defs1">
    <clipPath
       id="5c85259a64">
      <path
         d="M 50.003906,66.296875 H 175 V 158.49609 H 50.003906 Z m 0,0"
         clip-rule="nonzero"
         id="path1" />
    </clipPath>
  </defs>
  <g
     clip-path="url(#5c85259a64)"
     id="g2"
     transform="translate(-50.212349,-66.605109)">
    <path
       fill="#f5ded2"
       d="m 50.160156,158.22266 c 3.167969,-0.75782 6.484375,-0.29688 9.726563,0.0664 2.757812,0.3086 11.238281,-0.30469 12.679687,-0.68359 1.175782,-0.3086 2.335938,-0.78516 3.273438,-1.5586 0.308594,-0.25781 0.59375,-0.55078 0.839844,-0.875 0.492187,0.75391 1.003906,1.22266 1.375,1.3086 0.84375,0.20312 1.769531,0.52344 1.808593,0.64453 0.03906,0.11719 0.03906,0.92187 0.683594,1.24609 0.640625,0.32422 2.089844,0.24219 4.019531,0.16407 1.929688,-0.082 5.910156,0.16015 6.269532,0.11328 0.363281,-0.043 0.601562,-0.15235 0.84375,-0.0742 0.242187,0.0781 0.925781,0.12109 1.328124,0 0.402344,-0.1211 0.523438,-0.16406 0.882813,-0.33203 0.363281,-0.16797 0.484375,0.21093 0.925781,0 0.378906,-0.17969 0.402344,-0.19141 0.402344,-0.19141 0.02344,0 0.371094,-0.008 0.601562,-0.24219 0.242188,-0.24218 0.203126,-0.4414 -0.07812,-0.92187 -0.28125,-0.48438 -0.765626,-0.96875 -0.765626,-0.96875 0,0 -0.601562,-0.60156 -1.207031,-0.80078 -0.601562,-0.20313 -2.53125,-0.16407 -2.53125,-0.16407 0,0 0.199219,-0.11718 0.523438,-0.24218 0.320312,-0.11719 1.882812,-0.9336 1.882812,-0.9336 0,0 4.371094,-2.41015 5.589844,-3.15234 1.226561,-0.74219 2.988281,-2.39063 4.292961,-3.84375 1.30079,-1.45313 3.66016,-3.06641 3.66016,-3.06641 0,0 0.33203,1.38282 0.73047,2.67188 0.39453,1.28515 1.35156,4.15625 1.44922,4.8164 0.0977,0.66016 0.11719,0.88672 0.21484,1.07032 0.10156,0.18359 0.67578,0.13281 0.77735,0.10156 0.10156,-0.0312 0.42968,0.57812 1.05468,1.58594 0.62891,1.0039 0.53125,1.46875 0.75782,1.8789 0.23437,0.41407 0.53125,0.52735 1.22265,0.72657 0.69141,0.19921 1.92578,-0.082 2.35938,-0.17969 0.42578,-0.10156 0.54297,-0.16406 0.85547,-0.17969 0.3164,-0.0156 0.64062,0.0156 0.875,0 0.23046,-0.0156 0.3789,-0.082 0.46093,-0.11719 0.082,-0.0312 0.37891,-0.082 0.42969,0 0.0469,0.082 0.0469,-0.0977 0.0977,-0.27734 0.0508,-0.18359 -0.0117,-0.29688 -0.0664,-0.48047 -0.0469,-0.17969 -0.16406,-0.36328 -0.23047,-0.46094 -0.0664,-0.0977 -0.66015,-0.71093 -1.30469,-0.9375 -0.64062,-0.23437 -2.11328,-0.11718 -2.45703,-0.082 -0.34375,0.0312 -0.95703,-2.08203 -1.28906,-2.41015 -0.32812,-0.33204 -0.39453,-0.67579 -0.64062,-1.60157 -0.2461,-0.92187 -0.75782,-3.95703 -0.83985,-6.15234 -0.082,-2.19531 -0.19922,-4.14063 -0.13281,-4.30469 0.0664,-0.16797 0.25,-0.54687 0.57812,-1.30469 0.33204,-0.75781 1.05469,-1.28515 2.03125,-2.88671 0.97266,-1.59766 1.4375,-3.44922 1.53516,-3.48047 0.10156,-0.0352 2.27734,-0.42969 3.09766,-1.15625 0.82422,-0.72657 2.49218,-4.24219 2.80859,-5.13281 0.3125,-0.88672 2.17578,-3.57813 2.44141,-3.875 0.26562,-0.29688 1.26953,-1.26954 2,-1.84766 0.72656,-0.57813 3.33203,-0.92188 4.20703,-1.1875 0.87109,-0.26563 0.9375,-0.29688 1.13672,-0.34766 0.19921,-0.0469 0.36328,0.0664 0.46093,0.26172 0.10157,0.19922 0.71094,-0.0117 1.07422,-0.17969 0.36328,-0.16796 0.41016,-0.9414 0.41016,-0.9414 0,0 0.82812,-0.75781 1.76953,-1.45313 0.9375,-0.6914 5.11328,-3.48047 7.21094,-5.0625 2.09375,-1.58203 4.68359,-3.67578 4.68359,-3.67578 0,0 0.33203,0 0.57813,0.0469 0.25,0.0508 0.18359,-0.11719 0.42968,-0.41407 0.2461,-0.29687 0.21485,-0.87109 0.21485,-0.87109 0,0 0.71484,-1.26953 0.74218,-1.29297 0,0 0,0 0,0.008 -0.0508,0.11719 0.10157,1.91407 0.0664,2.01172 -0.0312,0.0977 -0.51172,1.5 -0.82422,2.75391 -0.3125,1.25391 -0.59375,1.83203 -0.83984,2.42578 -0.25,0.59375 -0.16797,0.42578 -0.66016,1.58203 -0.49609,1.15625 -1.42187,4.60547 -1.48828,5.03516 -0.0664,0.42578 -0.23047,0.98828 -0.17969,1.51953 0.0469,0.52344 0.21485,0.55859 0.32813,0.95703 0.11719,0.39453 -0.0664,0.47656 0.11719,1.28516 0.17968,0.80859 0.16406,0.75781 0.23437,1.32031 0.0664,0.5625 -0.15234,4.78515 -0.23437,6.89453 -0.082,2.11328 -0.082,10.46094 -0.082,10.46094 0,0 -0.13281,1.13672 -0.082,1.35156 0.0469,0.21484 0.0469,0.49609 -0.14843,0.85547 -0.19922,0.36328 -0.15235,1.66797 -0.19922,1.92969 -0.0508,0.26562 0.11328,0.25 0.21093,0.33203 0.10157,0.082 -0.23046,1.67968 -0.23046,1.67968 l -0.37891,-0.22656 c -0.37891,-0.23437 -0.57813,-0.26562 -1.30078,0.11328 -0.72656,0.37891 -0.44922,0.75782 -1.0586,1.45313 -0.60937,0.69531 -0.64062,0.54297 -1.16796,0.85547 -0.53125,0.3125 -0.8125,0.53125 -1.20704,1.00781 -0.39453,0.47656 -0.60546,0.82422 -0.77734,0.90625 -0.16406,0.082 -1.15234,0.53125 -2.71875,0.85547 -1.57031,0.33203 -2.3125,0.39844 -2.78906,0.64453 -0.48047,0.24609 -0.34375,1.33594 -0.23438,1.61719 0.11719,0.28125 0.0859,0.26172 1.30469,0.60937 1.21875,0.35156 5.32813,0.61328 6.87891,0.26563 1.55078,-0.34766 4.125,-0.36328 4.125,-0.36328 0,0 -0.44532,0.18359 -0.625,0.28125 -0.1836,0.0977 -0.33203,0.11328 -0.66407,0.55859 -0.32812,0.44531 -0.19531,1.67969 0.0508,1.93359 0.24609,0.2461 8,0.83985 9.04296,0.74219 1.03907,-0.0977 3.25,-1.00781 4.20704,-1.13672 0.95703,-0.13281 1.67968,-0.0859 2.10937,-0.28125 0.42969,-0.19922 0.38281,-0.42969 0.36719,-1.08984 -0.0156,-0.66016 0.0156,-1.71485 -0.0508,-2.44531 -0.0664,-0.72657 -0.082,-0.57422 -0.23047,-0.83985 -0.14844,-0.26172 -0.0469,-0.5625 -0.2461,-1.03906 -0.19921,-0.48047 -0.71093,-0.55859 -0.77734,-0.79297 -0.0664,-0.22656 0.16406,-2.58984 0.16406,-2.58984 0,0 1.66797,-0.11328 1.78516,-0.16407 0.11719,-0.0469 0.21484,-0.875 0.24609,-1.15625 0.0352,-0.28125 0.0977,-0.80859 0.082,-0.98828 -0.0156,-0.18359 -0.17968,-0.26562 -0.27734,-0.34765 -0.10156,-0.082 0,-0.29688 0.49609,-1.91407 0.4961,-1.61718 0.74219,-5.75781 1.05469,-9.30468 0.3125,-3.54688 -0.10156,-6.02344 -0.46094,-7.60547 -0.36328,-1.58594 -0.36328,-3.91016 -0.41406,-4.17578 -0.0469,-0.26172 -0.17969,-0.36328 -0.23047,-0.66016 -0.0469,-0.29687 0,-0.34375 0.0977,-0.6914 0.10156,-0.34766 -0.0312,-0.3125 -0.0977,-0.67579 -0.0664,-0.36328 0.0352,-0.3125 0.1836,-0.54687 0.14843,-0.22656 0.3789,-0.55859 0.3789,-0.55859 0,0 0.0312,-0.48047 0.082,-0.74219 0.0469,-0.26172 0.60547,-0.77735 1.26954,-1.45313 0.66015,-0.67578 0.85937,-1.03906 1.78125,-2.60937 0.92187,-1.5625 2.90625,-5.80469 4.26953,-7.58594 1.37109,-1.78516 4.35937,-7.640625 4.96875,-9.738281 0.60937,-2.09375 0.42968,-7.257813 -0.0664,-8.695313 -0.49609,-1.433594 -2.35937,-4.15625 -2.35937,-4.15625 0,0 0.28125,-1.074218 0.42578,-1.617187 0.15234,-0.546875 -0.22657,-0.414063 -0.32813,-0.742188 -0.10156,-0.332031 -0.61328,-0.546875 -1.94922,-1.4375 -1.33593,-0.890625 -4.30859,-3.066406 -7.16015,-4.753906 -2.85547,-1.679687 -9.57032,-4.304687 -12.40625,-4.867187 -2.83985,-0.558594 -8.20313,0.296874 -9.6211,0.445312 -1.41797,0.152344 -1.12109,-0.08203 -1.66406,0.01563 -0.54687,0.101563 -3.36328,-0.757813 -3.79687,-0.789063 -0.42579,-0.03516 -0.875,-0.08594 -2.0586,0.148438 -1.1875,0.230469 -1.15625,0.445312 -1.69922,1.121094 -0.54687,0.675781 -1.32422,1.238281 -1.57031,1.269531 -0.24609,0.03516 -0.48047,0.05078 -0.66016,0 -0.17968,-0.04687 -0.79296,-0.363281 -1.03906,-0.59375 -0.25,-0.226563 -0.49609,-0.660156 -0.79297,-1.5 -0.29687,-0.839844 -1.5039,-2.375 -2.21484,-2.933594 -0.70703,-0.558593 -1.875,-1.71875 -4.10547,-1.339843 -2.22656,0.378906 -2.47265,0.730468 -3.21484,1.054687 -4.66406,2.035156 -5.83985,5.785156 -5.70313,7.179687 0.0312,0.332032 0.28516,0.96875 0.84766,1.589844 0.54687,0.601563 0.99219,0.238282 1.08984,0.535156 0.10157,0.292969 1.1211,1.980469 1.53516,2.476563 0.41406,0.492187 1.00781,0.625 1.28906,0.726563 0,0 0.23047,-0.02344 0.375,0.285156 0.14453,0.3125 0.33594,1.632812 0.3125,2.214844 -0.0234,0.585937 0.10156,1.167968 0.56641,1.253906 0.45703,0.08203 0.5625,-0.230469 0.83203,-0.480469 0.27344,-0.25 0.41797,-0.207031 0.50391,-0.144531 0.082,0.05859 0.14453,0.308594 0.16796,0.625 0.0195,0.3125 0.16797,0.398437 0.45704,0.398437 0.28906,0 0.71093,-0.148437 0.71093,-0.148437 0,0 -0.0625,0.167968 -0.0859,0.25 -0.0195,0.08594 0.0234,0.355468 0.33984,0.480468 0.30859,0.125 0.60547,0.08203 1.08203,0.378907 0.48047,0.292969 0.55469,0.582031 0.91016,0.957031 0.35547,0.375 0.89843,0.375 1.51953,-0.08594 0.62109,-0.457031 0.48437,-0.5 0.77734,-1 0.29297,-0.503906 1.41016,-1.378906 1.53516,-1.417968 0.125,-0.04297 1.4375,-0.269532 1.61718,-0.25 0.17579,0.02344 0.63672,0.6875 0.46875,1.210937 -0.16796,0.523438 -0.66406,2.089844 -0.66406,2.714844 0,0.628906 0.28906,0.292969 1.66797,0.191406 1.37891,-0.105469 1.21094,-0.460937 1.52734,-0.566406 0.3086,-0.105469 0.14454,0.08203 0.52344,1.167969 0.375,1.085937 1.6875,2.820312 2.25391,3.613281 0.5664,0.796875 0.54297,0.566406 1.83984,1.441406 1.29297,0.875 2.67188,2.546875 3.00391,2.921875 0.33594,0.375 0.4414,0.417969 0.89844,1.921875 0.46093,1.503907 2.50781,2.027346 2.48828,2.210936 -0.0234,0.19141 -0.27344,0.62891 -0.46094,0.96094 -0.1875,0.33203 -0.25,0.375 -0.58203,0.8789 -0.33985,0.5 -0.48047,2.10938 -0.35547,2.29688 0.125,0.1875 0.1875,0.20703 0.125,0.26953 -0.0625,0.0625 -0.51953,0.73047 -0.76953,1.04687 -0.25391,0.3125 -1.29688,1.25391 -2.57031,2.69532 -1.27344,1.4414 -3.88282,4.08593 -3.88282,4.08593 0,0 -0.23047,-0.64062 -0.66797,-0.91406 -0.4375,-0.27344 -0.60546,-0.23047 -1.75781,-0.1914 -1.14844,0.043 -1.48047,0.52343 -2.8164,0.83593 -1.33594,0.3125 -1.69141,0.39844 -1.73438,0.46094 -0.0391,0.0586 -0.0391,-0.21094 -0.23047,-0.54687 -0.1875,-0.33204 -0.27343,-0.64844 -0.64843,-0.35547 -0.375,0.29297 -0.1875,1.33984 -0.1875,1.33984 0,0 -0.33594,0.125 -0.37891,0.1875 -0.043,0.0625 -0.082,-0.3125 -0.22656,-0.56641 -0.14844,-0.25 -0.21094,-0.375 -0.58985,-0.25781 -0.3789,0.1211 -0.33203,1.15625 -0.47656,1.24219 -0.14844,0.082 -0.73437,0.39453 -1.19141,0.6875 -0.45703,0.28906 -0.92187,0.58203 -0.92187,0.58203 l -0.0586,-0.0195 c -0.0625,-0.0234 -0.50391,-0.37891 -0.64844,0.10156 -0.14844,0.48047 0.125,0.75391 0.125,0.83594 0,0.082 -0.85547,1.44141 -1.75391,2.82031 -0.89844,1.37891 -2.92578,3.47656 -2.92578,3.47656 -0.16016,0.23829 0.043,-0.28125 0.043,-1.32812 0,-1.04688 -0.28125,-1.32813 -0.48438,-2.49219 -0.20312,-1.16406 -0.48437,-0.68359 -0.72656,-1.16406 -0.24219,-0.48438 0.125,-0.80469 0.24219,-1.96875 0.12109,-1.16797 -0.35938,-2.73438 -0.52344,-4.74609 -0.16015,-2.01172 0.92578,-5.02735 1.8125,-6.63282 0.88281,-1.60937 1.40625,-2.45312 1.44531,-3.05859 0.0391,-0.60156 -0.16406,-1.648436 -0.40234,-2.167967 -0.24219,-0.523438 -1.00781,-1.046875 -1.21094,-1.167969 -0.19922,-0.117187 -0.0781,-0.320312 -0.32031,-0.640625 -0.24219,-0.320312 -0.48047,-0.402344 -1.52734,0.320313 -1.04688,0.726562 -2.45313,2.09375 -3.5,2.773438 -1.04297,0.68359 -2.77344,0.20312 -3.41797,0.36328 -0.64063,0.16406 -2.57422,0.88281 -3.73828,2.375 -1.16797,1.48437 -1.48438,2.8125 -1.72657,4.17969 -0.24218,1.36718 -0.125,1.52734 -0.44531,2.57421 -0.32031,1.04297 -0.96484,2.08985 -1.04297,3.89844 -0.082,1.8086 0.36328,3.25391 -0.043,3.4961 -0.40234,0.24218 -0.96484,0.76562 -2.531242,2.2539 -1.566406,1.48438 -1.445313,2.17188 -2.289063,3.66016 -0.84375,1.48437 -3.699219,5.58984 -7.839843,8.64453 -4.140626,3.05469 -8.121094,5.98828 -10.492188,9.20703 -2.261719,3.06641 -3.390625,6.97266 -3.109375,9.94141 -0.195313,0.19531 -0.347656,0.42968 -0.507813,0.65625 -0.574218,0.80468 -1.335937,1.47656 -2.207031,1.95312 0.167969,-0.0391 0.328125,-0.082 0.492188,-0.12109 -1.703125,1.07422 -3.664063,1.73047 -5.671875,1.89843 0.05469,0.043 0.105468,0.082 0.15625,0.125 -0.308594,0.0117 -0.621094,0.0195 -0.929688,0.0312 -0.847656,0.0312 -1.699218,-0.0469 -2.527344,-0.23046 -0.867187,-0.19532 -1.738281,-0.375 -2.621093,-0.47657 -0.464844,-0.0508 -0.9375,-0.082 -1.410157,-0.0742 -0.160156,0 -1.34375,0.20313 -1.40625,0.13282 0.08594,0.0977 0.175782,0.19531 0.261719,0.29297 -3.097656,0.36718 -6.09375,1.53906 -8.617187,3.36718 z M 151.04297,146.94922 c 0.0391,-0.26172 0.12109,-0.5586 0.12109,-0.5586 0,0 0.48047,-0.16015 0.4961,-0.26171 0.0234,-0.10157 0.51953,-2.75391 0.46093,-3.3125 -0.0625,-0.5625 -0.082,-0.76172 0.0391,-1.25782 0.11718,-0.5 1.47656,-6.55078 1.51562,-8.90234 0.0391,-2.35938 0.0781,-6.33203 0.19922,-6.10937 0.12109,0.21875 0.37891,11.67968 0.17969,13.27343 -0.19922,1.60156 -0.17969,1.83985 -0.14063,2.39844 0.0391,0.55859 0.16016,0.71875 0.10156,1.19922 -0.0586,0.48047 -0.0586,0.39844 -0.14062,0.875 -0.0781,0.48047 -0.0625,0.64062 -0.0781,0.71875 -0.0234,0.082 -0.32421,0.10156 -0.5,0.28125 -0.17968,0.17969 -0.25781,0.71875 -0.25781,0.97656 0,0.26172 -0.043,0.37891 0.0391,0.53906 0.0781,0.16016 0.29688,0.35547 0.35547,0.45703 0.0625,0.10157 -0.0156,0.32032 -0.0781,0.67969 -0.0625,0.35938 -0.17969,0.91797 -0.17969,1 0,0.082 0.0195,-0.0391 -0.44141,0.19922 -0.45703,0.23828 -0.91796,0.89844 -0.91796,0.89844 -0.0586,-0.23828 -0.27735,-0.79688 -0.4961,-1.03906 -0.22265,-0.23829 -0.23828,-0.0781 -0.28125,-0.60157 -0.0391,-0.51953 -0.0391,-1.19531 0,-1.45703 z m 0,0"
       fill-opacity="1"
       fill-rule="nonzero"
       id="path2" />
  </g>
</svg>
