<?xml version="1.0" encoding="UTF-8" standalone="no"?>
<svg
   width="188.54517"
   zoomAndPan="magnify"
   viewBox="0 0 141.33345 179.48137"
   height="239.30849"
   preserveAspectRatio="xMidYMid"
   version="1.0"
   id="svg2"
   sodipodi:docname="13.svg"
   inkscape:version="1.4 (86a8ad7, 2024-10-11)"
   xmlns:inkscape="http://www.inkscape.org/namespaces/inkscape"
   xmlns:sodipodi="http://sodipodi.sourceforge.net/DTD/sodipodi-0.dtd"
   xmlns="http://www.w3.org/2000/svg"
   xmlns:svg="http://www.w3.org/2000/svg">
  <sodipodi:namedview
     id="namedview2"
     pagecolor="#ffffff"
     bordercolor="#000000"
     borderopacity="0.25"
     inkscape:showpageshadow="2"
     inkscape:pageopacity="0.0"
     inkscape:pagecheckerboard="0"
     inkscape:deskcolor="#d1d1d1"
     inkscape:zoom="3.89"
     inkscape:cx="94.087404"
     inkscape:cy="119.40874"
     inkscape:window-width="2560"
     inkscape:window-height="1369"
     inkscape:window-x="-8"
     inkscape:window-y="-8"
     inkscape:window-maximized="1"
     inkscape:current-layer="svg2" />
  <defs
     id="defs1">
    <clipPath
       id="3ed7bfed09">
      <path
         d="M 41.265625,22.546875 H 183.69141 V 202.45312 H 41.265625 Z m 0,0"
         clip-rule="nonzero"
         id="path1" />
    </clipPath>
  </defs>
  <g
     clip-path="url(#3ed7bfed09)"
     id="g2"
     transform="translate(-41.843324,-22.872188)">
    <path
       fill="#3e745f"
       d="m 85.699219,168.35156 c -0.558594,-0.85156 -1.902344,-1.74609 -3.046875,-1.58203 1.414062,0.82031 1.632812,2.37891 2.40625,3.66406 -0.886719,-1.375 -2.339844,-1.54297 -3.691406,-1.13281 0.425781,0.60938 0.949218,1.10938 1.136718,1.94141 0.195313,0.88672 -0.01563,1.9414 0.08594,2.89062 l -0.09766,0.004 c -0.05859,-0.625 -0.644532,-1.375 -1.335938,-1.91797 0.05078,0.8125 -0.375,1.81641 -0.445312,2.49219 -0.1875,1.80078 0.05859,3.02343 1.441406,4.24218 -0.800782,-0.082 -1.78125,-0.55859 -2.398438,-1.22265 0.0039,0.004 0.0039,0.0156 0.0078,0.0273 0.199219,0.84766 0.582031,1.37891 1.082031,2.11328 0.710938,1.05078 1.925781,2.56641 3.308594,2.89063 -0.40625,0.11328 -0.820313,0.19922 -1.273438,0.15234 -1.417968,-0.13672 -2.933594,-1.01562 -4.257812,-1.875 0.402344,1.77735 1.042968,4.01953 1.792968,5.39844 -0.816406,-1.39453 -1.707031,-2.71875 -2.699218,-4.01172 0.429687,1.13672 0.476562,3.95703 0.0078,5.07031 -0.195312,-0.96484 -0.582031,-2.60547 -1.605468,-2.98047 0.429687,0.9961 0.242187,2.17969 0.261718,3.25391 -0.371094,-0.94141 -1.132812,-1.85156 -2.019531,-2.19141 0.433594,1.01172 0.554687,2.31641 0.253906,3.38672 -0.25,-0.80078 -0.859375,-1.91406 -1.601562,-2.33593 0.113281,1.23437 -1.007813,2.17578 -0.839844,3.42578 0.07031,0.54297 0.527344,1.05859 0.679687,1.625 0.125,0.45703 0.136719,0.90234 0.09766,1.33984 1.363281,-0.35156 2.976562,-0.44531 3.957031,-0.58984 4.117188,-0.60547 8.074219,-1.91016 11.523438,-4.51953 3.042968,-2.30079 6.117187,-6.88672 6.128906,-10.57813 0.0039,-2.24219 -0.445313,-4.33203 -0.980469,-6.45703 -0.511719,-2.00391 -1.804687,-3.56641 -2.84375,-5.42188 -0.347656,-0.61718 -0.628906,-1.24609 -0.886719,-1.88281 -0.558594,-1.39844 -0.96875,-2.82422 -1.550781,-4.20703 -0.3125,-0.73828 -0.648437,-1.89844 -1.101563,-2.9375 -0.308593,0.64453 -0.65625,1.29688 -0.765624,1.75781 -0.152344,0.60547 -0.292969,2.57032 -0.691407,3.42578 1.171875,0.0117 2.234375,0.69532 2.992188,1.67188 -1.386719,-0.80469 -2.496094,-0.72266 -3.925781,-0.5625 0.851562,0.54297 1.660156,1.47656 2.335937,2.22266 -1.261719,-0.40235 -3.191406,-0.10157 -4.03125,0.44531 1.4375,0.33594 1.828125,1.9414 2.589844,2.96484 z m 77.781251,-24.17969 c 0.3125,1.89844 0.96484,3.74219 1.33203,5.67579 0.42187,2.21093 0.625,4.21484 1.41797,6.34765 1.55859,4.20703 4.46875,6.81641 7.42187,10.05469 2.78907,3.05078 2.78516,7.76562 2.57422,11.76953 -0.19922,3.65234 -0.0586,7.3125 1.35156,10.57422 0.60547,1.39453 1.26172,2.86719 2.13672,4.13281 0.51953,0.75781 1.19532,1.42578 1.69922,2.19531 0.15235,0.23829 0.27735,0.48047 0.38281,0.73047 0.63672,0.66797 1.1836,1.38282 1.33985,2.20703 0.45703,2.36719 -2.00781,3.05469 -3.79297,3.3086 -2.12891,0.30078 -3.98828,1.16015 -6.23438,1.18359 -2.20703,0.0312 -4.32421,-0.3125 -6.5039,-0.52734 -1.375,-0.14063 -2.82031,-0.28125 -4.0625,-0.89063 -1.20703,-0.58984 -1.66016,-1.23047 -1.8125,-2.02343 -0.5586,-0.58594 -0.90625,-1.32813 -0.79297,-2.00782 0.14844,-0.89453 0.79687,-1.8789 1.41797,-2.58203 1.28906,-1.46875 3.39453,-2.17969 4.01953,-4.00781 0.62891,-1.8125 0.29297,-4.5 -0.15625,-6.33984 -0.49609,-2.00391 -0.92578,-4.21094 -1.62891,-6.1875 -0.96093,-2.71485 -2.66406,-5.13282 -4.26562,-7.51954 -1.7461,-1.13281 -3.48047,-2.28906 -4.95313,-3.71875 -1.48047,-1.4414 -2.64843,-3.20312 -3.91797,-4.79296 -1.60546,-2.00391 -3.67187,-3.39844 -5.53515,-5.13282 C 143.17969,155 141.5,153.41797 140.6875,151.17187 c -0.58594,-1.63671 -0.75391,-3.43359 -1.33594,-5.0625 -0.10156,0.0977 -0.19922,0.1875 -0.28515,0.26563 -1.65625,1.51562 -3.51563,2.8125 -5.15235,4.37109 -1.60937,1.53516 -2.79297,3.41407 -3.34375,5.58594 -0.32422,1.27734 -0.25781,2.63672 -0.57812,3.93359 -0.56641,2.33204 -2.95313,3.94922 -4.92578,5.24219 0.36328,-0.42969 0.75,-0.84375 1.1914,-1.24219 0.70703,-0.63281 1.40625,-1.22265 1.97266,-1.98437 0.6914,-0.92969 1.29297,-2.39453 1.01953,-3.63281 -0.9375,3.28515 -4.49219,5.50781 -7.08203,7.5625 -1.52734,1.20703 -3.32422,2.8125 -4.03516,4.69922 -1.25781,3.34765 0.8125,7.79687 4.59766,8.57812 -0.57031,0.0859 -1.17188,0.12891 -1.73047,0.0664 0.64063,0.45703 1.35156,0.85937 2.25391,1.21484 2.14453,0.83984 3.47265,1.64844 4.23828,3.03516 -2.52344,-2.38672 -6.34766,-2.26953 -9.52735,-4.23047 -1.17578,-0.72656 -1.93359,-1.80078 -2.59765,-2.94141 -0.0117,0.37891 -0.008,0.75 0.0273,1.1211 0.082,0.92968 0.46094,2.26562 1.16016,3.23828 -1.36719,-0.6836 -2.32422,-1.88282 -3.0586,-3.76953 -0.58203,-1.48438 -0.51953,-3.20704 -0.26562,-4.75782 0.41797,-2.54687 1.77734,-4.99609 2.43359,-7.52734 -0.71484,0.57812 -1.4375,1.11328 -1.89843,1.58594 -0.70704,0.72656 -1.8711,2.25781 -2.125,3.60937 -0.46875,-2.67969 2.44921,-7.15625 3.61718,-8.91015 1.41016,-2.13282 2.88282,-4.42579 3.08985,-7.00782 -0.63672,0.51172 -1.25,0.98438 -1.60157,1.32422 -1.26171,1.23047 -1.91015,2.3125 -2.29296,3.77344 0.0859,-3.43359 0.8789,-5.27344 3.64843,-7.48047 1.32813,-1.05859 2.67578,-2.13672 4.06641,-3.17187 1.44531,-1.07813 3.02734,-2.63282 3.62891,-4.33594 0.21093,-0.60938 0.53125,-1.63281 0.6289,-2.60156 -0.71094,1.00781 -1.46094,1.95703 -1.92578,2.4375 -0.77344,0.80078 -1.56641,1.62109 -2.46094,2.28125 -1.33593,0.97656 -3.00781,1.16406 -4.20703,2.33984 0.0781,-0.34766 0.53516,-0.74609 1.05078,-1.14063 -0.24609,0.12891 -0.46875,0.25 -0.64062,0.35938 -1.73047,1.10937 -2.79688,2.0625 -3.26953,3.82422 -0.0859,-0.58594 0.0312,-1.16797 0.18359,-1.7461 -1.35547,1.54297 -3.47266,2.59375 -2.79297,5.01954 -0.72265,-0.8711 -0.91015,-1.75782 -0.82812,-2.90235 -1.92188,2.3086 -0.94532,4.59766 -0.20703,7.70703 l -0.12891,0.0547 c -0.51563,-1.18359 -1.62891,-2.19922 -2.23047,-3.32422 -0.71484,1.46485 -1.52344,2.67188 -1.70703,4.45703 -0.21875,2.125 0.0273,4.52344 0.53516,6.48047 1.0664,4.09375 2.5,8.28906 3.15625,12.40625 0.66406,4.1875 -2.86719,6.57031 -6.01954,8.72266 -3.42968,2.34375 -6.984371,5.01562 -10.031246,7.80078 -0.08594,0.0781 -0.171875,0.15625 -0.257813,0.23437 -0.171875,0.94922 -0.335937,1.90235 -0.765625,2.47657 -1.027344,1.39843 -3.035156,2.41797 -4.769531,2.75781 -2.144531,0.40625 -4.550781,0.25391 -6.773437,0.25391 -2.238282,0 -4.550782,0.21875 -6.640626,-0.39844 -1.652343,-0.48828 -3.328124,-0.76172 -4.710937,-2.01953 -1.046875,-0.94141 -1.738281,-2.35547 -2.117187,-3.83203 -0.429688,0.0898 -0.84375,0.13281 -1.164063,0.16796 C 65.5,196.35156 63.230469,196.03906 61.0625,195.875 c -2.234375,-0.16797 -4.503906,-0.0312 -6.773438,-0.13281 -2.695312,-0.125 -3.648437,-1.09766 -3.25,-3.70313 0.3125,-2.0625 1.84375,-3.5039 3.792969,-4.40234 3.863281,-1.78906 6.496094,-4.375 7.859375,-8.41797 0.609375,-1.81641 1.457032,-3.44531 2,-5.19531 0.632813,-2.03516 0.933594,-4.1836 1.753906,-6.1875 1.761719,-4.3086 3.898438,-7.6836 4.371094,-12.30078 0.21875,-2.10157 0.460938,-4.21094 0.679688,-6.34766 0.113281,-1.10938 0.21875,-2.21094 0.4375,-3.30078 -0.988282,-1.21875 -1.855469,-2.53906 -2.632813,-3.57031 -0.523437,-0.69141 -1.128906,-1.75782 -1.773437,-2.72266 -1,1.42187 -2.699219,2.55078 -3.125,4.26562 l -0.128906,-0.0273 c 0.195312,-0.76172 0.492187,-1.50391 0.472656,-2.16016 -0.316406,0.64454 -0.863282,1.17969 -1.210938,1.82813 -0.597656,1.12109 -0.839844,2.625 -0.507812,3.87109 -0.398438,-0.72265 -0.6875,-1.51953 -0.746094,-2.3125 -0.01563,-0.23828 0.0078,-0.48828 0.03906,-0.73437 -0.277343,0.42578 -0.546874,0.85156 -0.746093,1.29297 -0.921875,2.01562 -0.441407,3.50781 0.03125,5.55468 l -0.01563,0.0195 c -1.753906,-1.39844 -1.316406,-3.48829 -1.402344,-5.33594 -0.359375,0.48437 -0.734375,0.96484 -0.992188,1.47265 -0.878906,1.77344 -1.097656,3.27344 -0.304687,4.80079 -0.75,-0.64063 -1.386719,-1.48438 -1.722656,-2.28125 -0.03125,-0.0664 -0.05859,-0.14063 -0.07813,-0.20704 -0.308594,0.67579 -0.636719,1.34375 -0.777344,1.92188 -0.355469,1.46484 -0.04297,3.47266 -0.769531,4.91016 0.574219,0.9414 1.125,1.93359 1.824219,2.67187 2.183593,2.29297 1.589843,3.85547 -0.160157,5.4375 0.554688,1.51953 1.203125,3.27734 0.875,4.84375 -0.371093,1.78125 -1.484375,2.92188 -2.855469,3.84375 0.160157,1.65625 -1.765624,2.96484 -2.996093,3.92188 -1.886719,1.46484 -4.488281,2.23437 -6.617188,0.85937 -1.640625,-1.05469 -2.945312,-2.46484 -3.527343,-4.25391 -0.796876,-2.44921 0.140624,-3.91796 0.960937,-6.22656 1.476563,-4.15234 1.085937,-8.42578 0.433594,-12.6914 -0.335938,-2.20313 -0.757813,-4.30079 -0.171875,-6.49219 0.519531,-1.94922 1.199218,-4.26953 2.039062,-6.07422 0.542969,-1.17188 1.316406,-2.30859 1.871094,-3.44141 0.398438,-0.80859 0.769531,-1.62109 1.101562,-2.47265 0.210938,-0.54297 0.464844,-1.08594 0.730469,-1.63672 0.113281,-2.25391 0.457031,-4.23828 1.203125,-6.46875 0.640625,-1.91016 0.5625,-3.79688 0.273438,-5.71484 -0.578125,-3.82032 -1.804688,-7.40235 -2.882813,-11.07422 -1.207031,-4.09375 0.972657,-8.30469 2.820313,-11.812504 0.523437,-1 1.050781,-2.042968 1.617187,-3.042968 0.433594,-1.882813 0.996094,-3.746094 2.375,-5.230469 1.492188,-1.597657 2.804688,-2.832031 4,-4.660157 1.070313,-1.644531 2.402344,-3.109374 3.457031,-4.75 1.214844,-1.882812 1.183594,-4.152343 1.183594,-6.351562 0,-1.105469 0,-2.207031 0,-3.308594 -0.0039,-1.144531 0.382813,-1.886718 0.632813,-2.859375 -0.5625,0.167969 -1.210938,0.207031 -1.71875,0.480469 -0.742188,0.402344 -1.125,0.882812 -1.316407,1.503906 C 60.480469,69.8125 61.796875,69.4375 62.855469,68.152344 63.375,67.519531 64.378906,66.421875 64.171875,65.546875 63.386719,66.183594 62.113281,66.492188 62,67.734375 l -0.125,-0.01563 c -0.0078,-1.164062 0.621094,-2.789062 1.257812,-3.777344 0.265626,-0.40625 1.003907,-0.917968 1.15625,-1.273437 0.550782,-1.300781 -0.515624,-2.773438 -1.335937,-3.652344 -0.75,-0.800781 -1.632813,-1.4375 -2.058594,-2.507813 -0.480469,-1.195312 -0.46875,-2.078124 -1.558593,-3.105468 -1.46875,-1.382813 -3.429688,-2.023438 -4.882813,-3.441406 -1.273437,-1.238282 -2.507813,-3.0625 -3.386719,-4.621094 -0.820312,-1.46875 -1.5625,-4.363282 -0.609375,-5.921875 0.886719,-1.445313 2.058594,-1.042969 3.097657,-0.28125 -0.03906,-0.117188 -0.07422,-0.234375 -0.109376,-0.351563 -0.195312,-0.71875 -0.8125,-3.417968 0.476563,-3.109375 0.789063,0.191407 1.535156,2.222657 2.023437,2.816407 0.34375,0.417968 1.179688,1.378906 1.890626,1.949218 -2.324219,-2.984375 -3.765626,-7.121094 -3.277344,-10.28125 0.285156,-1.875 0.8125,-4 1.867187,-5.59375 1.316407,-1.988281 2.808594,-2.019531 4.914063,-1.152344 3.636718,1.496094 6.554687,4.035157 9.882812,6.214844 1.636719,1.074219 3.402344,2.128906 5.421875,2.117188 2.160157,-0.01172 3.578125,-1.945313 5.691407,-1.851563 1.902343,0.08203 3.890624,1.546875 5.660156,2.277344 1.820312,0.75 3.558594,1.75 5.167968,2.914063 1.269532,0.914062 6.488282,6.125 6.890628,8.875 1.17969,1.652343 1.97656,4.050781 2.33203,5.375 0.4375,1.628906 0.0234,3.359374 0.40234,5.027343 0.0508,0.222657 0.14844,0.441407 0.28516,0.652344 l -0.0117,0.0078 c 0,0.523437 0.0312,1.015624 0.0898,1.480468 0.17579,1.609375 0.64844,2.957032 1.16797,4.628906 0.10547,0.339844 0.13282,0.683594 0.125,1.023438 -0.0273,0.988281 -0.34375,1.960938 0.10547,2.816406 0.76953,1.457032 3.40625,2.464844 5.20313,2.351563 v 0.0039 c -2.81641,0.179687 -5.17969,-0.351563 -6.41797,-2.917969 -0.0937,-0.191406 -0.16016,-0.398437 -0.20703,-0.613281 -0.16407,0.726563 -0.29297,1.449219 -0.10938,2.199219 L 102.66016,66 c -0.0977,0.898438 0.30078,1.816406 0.57812,2.726562 -0.20703,-0.238281 -0.41797,-0.488281 -0.61719,-0.742187 l -0.50781,0.132813 c -0.29297,0.140624 -0.50781,0.496093 -0.67578,0.945312 -0.33203,0.878906 -0.47266,2.117188 -0.67578,2.765625 -0.22656,0.742187 -0.41406,1.476563 -0.58203,2.230469 -0.13281,0.5625 -0.246096,1.132812 -0.363284,1.726562 -0.421875,2.152344 -0.328125,4.683594 0.503904,6.863282 1.35547,1.003906 2.99219,1.585937 4.09766,2.925781 0.40625,0.488281 0.67969,1.226562 1.21875,1.589843 0.64844,0.445313 1.55078,0.324219 2.30469,0.558594 1.03125,0.324219 2.10547,0.980469 3.12109,1.6875 7.97266,0.02734 16.48047,0.578125 23.84766,3.398438 1.69531,0.652344 3.33203,1.871094 4.875,2.847656 1.52734,0.972656 3.19921,1.863281 4.6289,2.972656 3.13672,2.449224 5.1875,5.566404 5.76953,9.324224 0.60938,3.96093 0.94141,8.11328 2.69922,11.77343 0.88672,1.83594 2.71875,2.90625 3.79297,4.62891 1.05469,1.6875 1.66406,3.27344 2.07422,5.25781 0.27344,1.30859 0.46094,2.55859 0.97656,3.80859 0.25,0.59766 0.64844,1.16407 0.92578,1.78907 1.91797,2.51562 2.35547,6.07812 2.82813,8.96093 z m 0,0"
       fill-opacity="1"
       fill-rule="nonzero"
       id="path2" />
  </g>
</svg>
