<?xml version="1.0" encoding="UTF-8" standalone="no"?>
<svg
   width="243.30099"
   zoomAndPan="magnify"
   viewBox="0 0 182.37841 146.71785"
   height="195.62379"
   preserveAspectRatio="xMidYMid"
   version="1.0"
   id="svg2"
   sodipodi:docname="dog-spacery-socjalizacyjne.svg"
   inkscape:version="1.4 (86a8ad7, 2024-10-11)"
   xmlns:inkscape="http://www.inkscape.org/namespaces/inkscape"
   xmlns:sodipodi="http://sodipodi.sourceforge.net/DTD/sodipodi-0.dtd"
   xmlns="http://www.w3.org/2000/svg"
   xmlns:svg="http://www.w3.org/2000/svg">
  <sodipodi:namedview
     id="namedview2"
     pagecolor="#ffffff"
     bordercolor="#000000"
     borderopacity="0.25"
     inkscape:showpageshadow="2"
     inkscape:pageopacity="0.0"
     inkscape:pagecheckerboard="0"
     inkscape:deskcolor="#d1d1d1"
     inkscape:zoom="3.89"
     inkscape:cx="109.2545"
     inkscape:cy="98.329049"
     inkscape:window-width="2560"
     inkscape:window-height="1369"
     inkscape:window-x="-8"
     inkscape:window-y="-8"
     inkscape:window-maximized="1"
     inkscape:current-layer="svg2" />
  <defs
     id="defs1">
    <clipPath
       id="f64e79d2d4">
      <path
         d="M 30.449219,38.847656 H 194.61328 V 186 H 30.449219 Z m 0,0"
         clip-rule="nonzero"
         id="path1" />
    </clipPath>
  </defs>
  <g
     clip-path="url(#f64e79d2d4)"
     id="g2"
     transform="translate(-30.520943,-38.848716)">
    <path
       fill="#3e745f"
       d="m 174.21094,81.148438 c -0.9375,-0.402344 -1.96485,-0.703126 -2.76563,-1.082032 -0.82031,-0.382812 -1.71875,-0.789062 -2.63281,-1.097656 -0.82422,-2.289062 -3.23828,-3.410156 -5.04297,-4.9375 -0.66406,-1.734375 -1.07031,-3.164062 -2.55078,-4.605469 -1.60547,-1.558593 -3.16406,-2.609375 -3.82813,-4.734375 -0.98046,-3.136718 -2.20312,-6.9375 -4.26171,-9.746094 1.79296,-2.484374 4.83593,-4.070312 5.80859,-7.042968 0.64453,-1.957032 0.67187,-4.824219 -1.69922,-5.773438 -2.24609,-0.898437 -3.07031,0.539063 -4.23437,1.660156 -1.78125,0.0078 -3.54688,0.01953 -5.2461,-0.300781 -1.71094,-0.332031 -2.57812,-0.40625 -3.76562,-0.132812 -1.49219,-0.890625 -3.69141,-1.109375 -5.2461,-1.40625 -2.33203,-0.449219 -4.88672,-0.328125 -7.25,0 -1.89453,0.265625 -4.48437,0.652343 -6.13281,1.714843 -1.90625,1.230469 -2.46484,2.753907 -3.16406,4.5625 -3.16406,0.476563 -10.83594,2.097657 -8.91016,4.699219 -0.77343,1.554688 -0.28125,4.050781 0.78125,5.203125 1.58203,1.710938 4.13672,0.488282 4.45703,3.496094 0.11329,1.039062 -0.082,2.035156 -0.74218,2.949219 -0.64844,0.910156 -1.67578,1.089843 -1.58203,2.390625 0.12109,1.652344 1.78125,4.039062 3.4375,4.496094 1.51953,0.421874 2.91406,0.121093 4.26562,-0.464844 0.55078,-0.234375 1.29297,-0.4375 2.03516,-0.679688 0.5039,0.410156 0.99218,0.847656 1.58984,0.996094 1.17187,0.296875 2.26953,-0.53125 3.375,0.09766 0.83203,0.476563 1.69922,1.460938 2.39062,2.554688 0.16407,0.84375 0.25391,1.703125 0.2461,2.566406 -0.0273,2.09375 -1.07422,4.296875 -1.61328,6.269531 -1.20313,4.390625 -1.65235,9.109375 -1.10547,13.871094 0.24609,2.15625 0.71484,4.199211 1.30859,6.300781 0.53906,1.93359 1.47656,3.42187 2.35938,5.22656 0.80468,1.64844 2.0039,3.66797 1.73437,5.53516 -0.1914,1.36328 -0.79687,2.9375 -1.37109,4.48437 -0.75,-1.09766 -2.00781,-2.37891 -2.53516,-3.13281 -1.18359,-1.70703 -1.91015,-3.76172 -2.92578,-5.6211 -0.80859,-1.48437 -1.72656,-2.91796 -2.64453,-4.33984 -0.61719,-0.96094 -1.24609,-2.1875 -1.98828,-3.28125 0.082,-1.67187 0.15625,-3.359371 -0.37891,-4.874996 -2.54297,-7.207031 -8.14062,-13.089844 -11.55859,-19.914062 -0.23047,-3.59375 0.35547,-7.394532 -0.32422,-10.789063 -0.53125,-2.660156 -1.34375,-5.5 -2.15625,-8.164063 1.52734,-2.085937 -3.86328,-9.632812 -5.11328,-10.894531 -1.52344,-1.539062 -3.78125,-2.332031 -5.21875,-3.851562 -0.972658,-1.03125 -2.703126,-4.429688 -4.367189,-4.5 -0.25,-0.0078 -0.539062,-0.01953 -0.773437,0.03516 -0.441406,1.777344 1.835937,3.21875 2.625,4.617187 1,1.78125 0.648437,3.34375 0.535156,5.140626 -1.136719,0.07031 -2.398438,-0.125 -3.464844,0.40625 -1.117187,0.554687 -2.011718,1.496093 -2.917968,2.378906 -1.765626,1.71875 -3.960938,2.527344 -5.507813,4.292968 -2.070313,-0.695312 -3.875,0.417969 -5.398437,2.007813 -0.386719,0.40625 -0.8125,1.042969 -1.265626,1.726563 -1.390624,0.828124 -2.664062,1.949218 -4.183593,2.65625 -1.683594,0.785156 -4.242188,1.234374 -5.722657,2.421874 -2.179687,1.753907 2.203126,2.964844 3.792969,2.886719 1.0625,-0.05078 3.164063,-1.144531 4.351563,-2.382812 1.234375,1.011719 2.398437,2.816406 3.738281,3.449219 1.386719,0.660156 2.066406,0.488281 3.402344,0.0078 0.785156,-0.285156 1.480469,-0.429688 2.222656,-0.503906 -0.0078,0.714844 0.05078,1.417968 0.378906,2.042968 0.433594,0.824219 1.425781,1.367188 1.859375,2.179688 0.765625,1.433594 0.675782,3.191406 0.261719,4.835938 -1.429687,0.804687 -2.96875,1.886718 -4.167969,3.097656 C 81.707031,80.554688 67.433594,82.710938 57.742188,92.65625 56.8125,89.390625 53.894531,85.871094 50.898438,84.710938 48.691406,83.859375 46.046875,84.175781 43.820312,83.605469 41.78125,83.089844 40,81.796875 37.984375,81.148438 c -2.53125,-0.820313 -5.183594,-0.257813 -7.523437,-1.558594 2.492187,3.378906 6.398437,7.367187 10.523437,8.164062 C 45.511719,88.625 51.101562,87.863281 51.6875,93.75 c 0.1875,1.882812 0.25,5.628906 1.1875,8.30859 -0.125,1.65625 0.207031,3.6875 -0.04687,4.91407 -0.457031,2.26562 -1.375,4.35937 -0.957031,6.92578 0.304687,1.86328 1.566406,3.97656 2.253906,5.79687 0.867188,2.28907 1.355469,4.33985 1.582031,6.76563 0.230469,2.45703 1.050781,4.92578 1.847657,7.42578 -0.03125,2.95312 -0.175782,5.8125 -0.78125,8.59375 -0.441407,2.00781 -1.394532,4.24609 -1.101563,6.30859 0.335937,2.35156 1.0625,4.69141 1.78125,6.90625 0.738281,2.28906 0.800781,4.59766 1.21875,6.92969 0.25,1.39062 2.175781,4.48047 3.597656,2.94922 0.566407,0.51953 1.277344,0.63672 2.246094,0.58594 0.636719,-0.0352 1.636719,-0.1875 1.90625,-0.64063 0.503906,0.28906 1.078125,0.47656 1.570313,0.41016 0.628906,-0.0859 0.894531,-0.39063 0.972656,-0.78516 0.664062,0.004 1.207031,-0.69141 1.242187,-1.44531 0.03516,-0.69531 -0.628906,-1.91797 -1.109375,-2.46094 C 67.929688,159.9375 66.625,158.98437 65.5,157.51562 c -2.515625,-3.28906 -2.484375,-7.67578 -2.078125,-11.64062 0.246094,-2.42969 0.15625,-4.89063 0.789063,-7.22656 0.566406,-2.10938 1.324218,-4.17578 2.007812,-6.19141 1.273438,-3.76172 2.734375,-7.2539 2.503906,-11.08203 1.28125,0.80469 2.546875,2.08594 3.414063,2.92578 1.488281,1.44141 2.738281,3.42969 2.804687,5.42188 0.07031,2.07031 -1.410156,4.82031 -2.371094,6.61328 -1,1.87109 -2.949218,3.39453 -1.859374,5.65234 0.8125,1.68359 2.539062,3.11328 3.476562,4.76172 1.152344,2.02344 1.792969,3.79297 3.753906,5.14844 1.609375,1.12109 3.21875,2.21093 4.582032,3.65234 1.726562,1.82031 1.921874,3.375 4.738281,3.53516 1.464843,0.0859 2.671875,0.23437 4.109375,0.30859 0.457031,0.0234 0.878906,-0.0391 1.222656,-0.16797 1.328125,0.52344 3.023438,0.49219 4.304688,0.0156 1.230468,-0.45703 1.3125,-0.92188 0.898437,-1.4375 1.53125,-0.41407 -2.015625,-2.90625 -2.636719,-3.17578 -0.925781,-0.40235 -2.34375,0.004 -3.523437,0.0937 -2.703125,-0.48829 -5.859375,-3.45313 -7.496094,-5.20313 -2.578125,-2.76172 -4.550781,-5.01953 -3.636719,-9.15234 0.902344,-4.0625 5.207032,-6.55469 6.957032,-10.45313 0.921874,-2.04687 1.726562,-4.14843 2.167968,-6.33984 0.382813,-1.87109 -0.265625,-3.62109 -0.539062,-5.40625 1.492187,0.99219 3.476562,1.6875 4.773437,2.52734 2.152344,1.40235 3.117188,2.92578 2.722657,5.5 -0.378907,2.46875 0.02344,4.34375 0.980468,6.72266 0.230469,0.57812 1.285156,2.33203 2.199219,3.01562 0.476565,1.13282 2.882815,2.39844 3.937505,1.63672 0.004,0 0.004,0 0.004,0 1.16016,0.41016 2.125,-1.54687 2.28906,-2.88672 1.9961,-0.97265 0.23047,-8.125 -0.0625,-9.57421 -0.39453,-1.96875 -0.8125,-4.22657 -1.55859,-6.29688 2.70313,-1.14062 5.3125,-1.57031 7.33594,-4.1875 1.64062,-2.12891 2.7539,-5.66797 5.40234,-6.8125 0.42578,0.88672 0.86719,1.76563 1.38672,2.57422 2.27734,3.55859 5.82422,5.92578 8.28516,9.30859 2.19531,3.02735 2.64843,6.5 4.28125,9.61719 -0.64454,1.22656 -1.37891,2.39844 -2.10547,3.49609 -1.47266,2.21875 -2.10938,3.08594 -1.70313,5.83203 0.33203,2.22657 0.75,4.6875 2.13672,6.61329 1.33984,1.85156 2.76563,3.55078 3.48047,5.68359 0.70703,2.10937 0.77734,4.80078 0.98047,7.07422 0.18359,1.98828 0.0625,4.61719 1.9375,5.95703 3.64062,2.60156 8.37109,-5.49609 6.73828,-7.84766 1.79687,-1.98828 -1.83594,-5.51562 -2.71875,-7.14453 -1.09766,-2.03906 -1.19922,-4.73828 -3.25781,-6.1914 0.45703,-1.11719 0.42187,-2.59375 -0.19922,-3.45704 0.5039,-0.42187 0.92187,-0.85546 1.39844,-1.44531 0.55468,0.60938 1.23828,1.11328 1.98437,1.33985 0.81641,0.24609 2.38281,-0.17969 2.85156,-0.73047 1.34375,0.41406 2.07422,-2.13672 1.1875,-3.5 1.33985,-0.73438 -0.15234,-3.39844 -1.40625,-4.4336 1.9375,-3.54687 5.41407,-7.39062 6.58203,-10.98828 0.8711,0.77735 1.46094,2.21094 1.6836,3.19922 0.53906,2.42969 0.13672,4.8711 0.28125,7.41406 0.26562,4.75782 1.4414,9.73828 2.84375,14.13672 0.8789,2.7461 2.12109,5.36719 3.7539,7.72656 0.60547,0.87891 1.41016,1.76563 2.23829,2.67579 0.33203,1.08984 0.55859,2.23046 0.76562,3.01562 0.57813,2.24609 0.57813,4.57813 0.69922,7.00391 0.21484,4.33203 -0.6875,8.99218 -2.24219,12.8789 -0.97265,0.51953 -2.14062,0.89063 -2.54297,1.73828 -0.10156,0.0391 -0.20312,0.0898 -0.30468,0.13672 -2.40625,1.16407 -2.84766,3.92188 -0.62891,5.38282 1.92187,1.2539 4.84375,0.42578 7.10547,0.34375 2.76953,-0.10157 4.42969,-0.61719 5.05469,-3.38282 0.40234,-1.7539 0.19921,-3.45703 0.0742,-5.24218 0.32032,-1.09375 0.55469,-2.22657 0.75,-3.17969 0.89454,-4.46485 2.23438,-8.74219 2.17579,-13.5625 -0.0312,-2.73438 -1.19141,-3.9375 -2.36719,-6.15235 -0.88672,-1.67578 -1.875,-3.875 -2.33594,-5.71875 -1.13281,-4.52343 0.32422,-9.4414 1.85938,-13.49609 1.18359,-3.15234 3.02343,-7.19531 6.57812,-8.41015 0.23047,0.13671 0.46875,0.26562 0.72656,0.38281 1.14063,0.48828 2.49219,0.0312 3.39453,0.84375 1.25391,1.13281 1.98438,4.27343 2.84375,5.84375 2.11329,3.85156 2.78516,8.57812 3.21094,12.86328 0.21875,2.25 0.10938,4.5039 0.0391,6.78125 -0.34375,1.03906 -0.67968,2.08594 -0.67968,3.21875 -0.004,2.46484 0.63281,4.78515 0.63281,7.3789 0,2.60547 -0.31641,4.72657 -0.98438,7.07422 -0.46093,1.60547 -1.8125,5.5625 -0.004,6.80078 0.47656,0.32422 1.27344,0.3125 2,0.23829 0.96094,0.79296 1.84375,1.8164 3.09375,1.875 0.86328,0.043 2.48437,-0.55469 3.52344,-1.16016 0.77734,0.0898 1.54296,-0.28906 1.84765,-0.99219 0.39063,-0.90234 -0.0937,-2.71094 -0.30859,-3.54297 -0.54688,-2.14453 -1.39844,-4.09765 -1.42969,-6.44922 -0.0312,-2.47265 0.18359,-5.01953 0.3125,-7.53515 0.125,-2.46485 -0.12891,-4.56641 -0.63672,-6.90625 -0.26562,-1.21485 -0.70703,-2.33203 -1.05469,-3.48828 0.0391,-1.51563 0.11719,-3.01953 0.27344,-4.51563 0.25391,-2.40625 1.0586,-4.55859 1.42188,-6.91797 0.36328,-2.375 0.58593,-4.67968 0.46484,-7.07031 -0.0977,-1.85937 -0.47656,-3.68359 -0.59375,-5.47656 0.84766,-3.05469 0.90625,-6.57813 0.75,-9.58203 -0.20312,-3.98438 -0.50781,-7.75 -1.10547,-11.69141 -0.3164,-2.11719 -1.24609,-3.74609 -2.20312,-5.683592 -0.9375,-1.890626 -1.60547,-4.003907 -2.87891,-5.808594 -1.97266,-2.785156 -5.03516,-5.15625 -7.52344,-7.542969 0.28516,-1.078125 0.59766,-2.121094 0.60938,-3.257813 0.0312,-2.277343 -0.51563,-4.839843 -0.75391,-7.105468 -0.42969,-4.082032 -2.10547,-9.613282 -0.97656,-13.359375 -1.19922,3.613281 -4.09766,5.960937 -4.11328,10.011719 -0.004,1.921874 0.47656,3.777343 0.47656,5.84375 0,1.457031 -0.17578,2.75 -0.55859,4 z m 0,0"
       fill-opacity="1"
       fill-rule="nonzero"
       id="path2" />
  </g>
</svg>
