<?xml version="1.0" encoding="UTF-8" standalone="no"?>
<svg
   width="161.24596"
   zoomAndPan="magnify"
   viewBox="0 0 120.86996 180.05235"
   height="240.06979"
   preserveAspectRatio="xMidYMid"
   version="1.0"
   id="svg2"
   sodipodi:docname="dog-psia-szkolka-hover.svg"
   inkscape:version="1.4 (86a8ad7, 2024-10-11)"
   xmlns:inkscape="http://www.inkscape.org/namespaces/inkscape"
   xmlns:sodipodi="http://sodipodi.sourceforge.net/DTD/sodipodi-0.dtd"
   xmlns="http://www.w3.org/2000/svg"
   xmlns:svg="http://www.w3.org/2000/svg">
  <sodipodi:namedview
     id="namedview2"
     pagecolor="#ffffff"
     bordercolor="#000000"
     borderopacity="0.25"
     inkscape:showpageshadow="2"
     inkscape:pageopacity="0.0"
     inkscape:pagecheckerboard="0"
     inkscape:deskcolor="#d1d1d1"
     inkscape:zoom="3.89"
     inkscape:cx="91.25964"
     inkscape:cy="119.15167"
     inkscape:window-width="2560"
     inkscape:window-height="1369"
     inkscape:window-x="-8"
     inkscape:window-y="-8"
     inkscape:window-maximized="1"
     inkscape:current-layer="svg2" />
  <defs
     id="defs1">
    <clipPath
       id="afe3e955ff">
      <path
         d="M 43.773438,23 H 165 V 203.95312 H 43.773438 Z m 0,0"
         clip-rule="nonzero"
         id="path1" />
    </clipPath>
  </defs>
  <g
     clip-path="url(#afe3e955ff)"
     id="g2"
     transform="translate(-43.922468,-23.123461)">
    <path
       fill="#f5ded2"
       d="m 126.01563,190.65625 c -1.19922,2.66797 -1.12891,5.70312 -1.28125,8.52734 -0.082,1.51563 -0.17188,2.81641 1.51953,3.2461 1.11718,0.27734 2.33984,-0.14063 3.10156,-0.91016 1.08984,2.23828 4.98047,2.16406 5.83984,0.043 0.98828,1.00781 1.78516,1.58984 3.39844,0.99609 0.65625,-0.24218 1.42578,-0.72656 1.80078,-1.29687 1.03125,0.30469 2.31641,0.0195 2.90625,-0.85547 0.41406,-0.625 0.4375,-2.08594 0.28516,-3.19922 0.64843,0.10156 1.4414,-0.10156 2.02734,-0.48437 3.29688,1.05859 3.35156,-3.57422 2.84766,-5.46875 -0.57422,-2.16407 -2.8086,-3.10547 -3.76172,-5.06641 1.63281,-0.66797 2.46875,-2.94531 2.60547,-4.58594 2.90625,-0.75 4.82812,-1.57031 6.90234,-3.82812 1.99609,-2.16797 2.47656,-4.42578 3.17578,-7.07422 0.71485,-2.71094 2.30078,-5.40625 1.71094,-8.29688 -0.53125,-2.61718 -2.58203,-4.35937 -3.79297,-6.67187 -0.90234,-1.71875 -1.44922,-5.40235 -3.21875,-6.63281 0.0781,-1.50391 -0.92969,-2.92969 -2.53125,-3.23438 0.0352,-0.42187 0.0508,-0.85937 0.0508,-1.3125 -0.0117,-5.94922 -0.1875,-11.83984 -0.1875,-17.84765 0,-2.97657 -0.39453,-5.34766 -1.71094,-7.94141 -0.33984,-0.67578 -0.69531,-1.35938 -1.04296,-2.05469 0.53515,-3.25781 0.64843,-6.41015 0.47656,-9.84375 -0.27344,-5.69922 -2.41016,-10.562499 -3.5625,-16.085936 -0.54688,-2.613282 -0.85938,-5.574219 -1.89453,-8.074219 -0.75391,-1.824219 -1.86719,-2.808594 -2.46875,-4.261719 1.43359,-3.703125 1.21093,-7.339844 1.25,-11.3125 1.30468,-2.605468 1.58593,-5.199218 1.93359,-8.582031 0.29688,-2.925781 2.26563,-6.082031 3.89063,-8.769531 1.01171,-0.570313 1.99609,-1.226563 2.9375,-1.515625 1.27734,-0.386719 3.35937,-0.96875 5.03125,-1.023438 -0.23438,1.039063 0.10156,1.964844 0.85546,2.878907 0.88672,1.074218 2.04688,1.6875 2.91016,2.796874 0.70313,0.90625 1.10156,2.023438 1.80078,2.96875 1.48047,2.019532 4.99219,4.519532 4.97656,0.316407 -0.0117,-2.492188 -1.73828,-4.667969 -2.80468,-6.847657 -0.55469,-1.136718 -1.2461,-3.207031 -2.1211,-4.722656 -0.54687,-1.652344 -1.27343,-3.253906 -2.42578,-4.480468 -1.83594,-1.949219 -5.13672,-2.960938 -7.51172,-4.152344 -1.90234,-1.34375 -3.44531,-3.054688 -5.30859,-4.449219 -4.72266,-3.542969 -9.30078,-6.078125 -15.14063,-6.902344 -4.07812,-0.578125 -8.02734,-0.324219 -11.92578,0.441407 -0.74609,-2.007813 -4.14453,-2.542969 -6.25781,-1.289063 -0.8164,0.484375 -1.61328,1.234375 -2.35547,2.105469 -2.51172,1.832031 -7.36328,2.570312 -8.64843,5.605468 -0.851568,2 1.40625,6.976563 3.90234,8.320313 -0.13672,1.90625 0.16797,4.371094 1.78516,2.351563 0.58593,-0.730469 1.28906,-2.097657 1.76171,-3.328126 0.65625,2.789063 -0.85937,5.964844 -0.85546,8.875 0.004,2.738282 0.53125,4.941407 1.08984,7.289063 -0.63281,1.90625 -1.57422,3.796875 -2.41406,5.515625 -1.32813,2.730469 -1.83203,4.527344 -1.27735,6.929688 -2.0039,0.351562 -4.38281,1.3125 -5.324216,1.765624 -2.242188,1.082032 -3.996094,2.808594 -5.59375,4.605469 -3.457032,3.886719 -6.300782,8.316407 -9.972656,11.984375 -0.261719,0.261719 -0.546876,0.515625 -0.84375,0.757813 -1.207032,-1.246094 -2.164063,-3.453125 -2.765626,-4.808594 -1.15625,-2.617187 -1.425781,-5.371094 -1.566406,-8.257813 -0.273437,-5.800781 -1.433594,-10.019531 -4.699218,-14.820312 -1.449219,-2.125 -3.351563,-3.347656 -5.316407,-5.0625 -2.007812,-1.742188 -3.5625,-3.523438 -5.746093,-4.949219 -4.476563,-2.9375 -10.597657,-4.3125 -15.230469,-0.632812 -2.042969,1.621093 -3.40625,4.085937 -3.367188,6.535156 0.04297,2.945313 2.371094,3.484375 4.832031,3.148437 1.527344,3.003907 5.492188,2.707032 8.117188,0.582032 1.945312,1.238281 3.0625,4.523437 4.539062,6.578125 -0.773437,1.753906 0.820313,3.820312 2.441407,5.363281 -0.01953,2.414062 0.0078,4.558594 1.09375,6.730469 1.3125,2.617187 2.011719,4.695312 2.316406,7.527343 0.3125,2.902344 0.421875,5.867188 0.726563,8.699219 0.15625,1.414063 0.0625,2.824219 0.230468,4.28125 0.160156,1.355469 0.78125,2.589849 0.996094,3.929689 0.417969,2.64062 -0.703125,6.19531 1.140625,8.46875 1.757813,2.16797 4.761719,2.33203 7.167969,1.84375 5.605468,-1.12109 11.378906,-2.47266 17.078125,-1.21875 0.03516,0.008 0.07031,0.0156 0.101562,0.0273 0.726563,1.76172 0.871094,4.32422 1.003907,5.73828 0.273437,2.94141 -0.0078,5.78516 -0.160157,8.60938 -0.304687,5.80078 0.859375,11.59375 1.714844,17.13672 0.417969,2.67578 0.953125,4.95312 1.992187,7.08203 -4.207031,1.41406 -8.976562,6.11719 -9.574218,9.6875 -0.988282,5.89844 1.195312,10.3125 4.128906,15.14453 2.015625,3.32031 4.78125,6.92969 8.73047,8.44922 -2.17578,0.39062 -4.460939,0.53906 -6.269532,-0.46094 -1.921876,-1.07031 -4.316407,-1.87109 -5.265626,1.03516 -1.332031,4.08203 6.347657,4.82422 10.874998,5.08593 -1.61718,1.39063 -2.515622,4.10157 -2.335935,5.90625 0.160156,1.60547 2.687505,4.45313 4.195315,2.71094 1.30078,1.60156 4.3789,1.67969 5.375,0.125 2.64844,2.04297 5.20312,-1.80859 6.90234,-3.23828 1.51563,-1.28125 6.19531,-1.47656 6.06641,-3.91016 0.88281,1.16797 2.71094,1.71875 3.99219,1.01563 z m 0,0"
       fill-opacity="1"
       fill-rule="nonzero"
       id="path2" />
  </g>
</svg>
