<?xml version="1.0" encoding="UTF-8" standalone="no"?>
<svg
   width="105.17632"
   zoomAndPan="magnify"
   viewBox="0 0 78.840168 146.35859"
   height="195.14479"
   preserveAspectRatio="xMidYMid"
   version="1.0"
   id="svg2"
   sodipodi:docname="dog-psie-przedszkole.svg"
   inkscape:version="1.4 (86a8ad7, 2024-10-11)"
   xmlns:inkscape="http://www.inkscape.org/namespaces/inkscape"
   xmlns:sodipodi="http://sodipodi.sourceforge.net/DTD/sodipodi-0.dtd"
   xmlns="http://www.w3.org/2000/svg"
   xmlns:svg="http://www.w3.org/2000/svg">
  <sodipodi:namedview
     id="namedview2"
     pagecolor="#ffffff"
     bordercolor="#000000"
     borderopacity="0.25"
     inkscape:showpageshadow="2"
     inkscape:pageopacity="0.0"
     inkscape:pagecheckerboard="0"
     inkscape:deskcolor="#d1d1d1"
     inkscape:zoom="3.89"
     inkscape:cx="52.442159"
     inkscape:cy="96.529563"
     inkscape:window-width="1920"
     inkscape:window-height="1009"
     inkscape:window-x="2552"
     inkscape:window-y="-8"
     inkscape:window-maximized="1"
     inkscape:current-layer="svg2" />
  <defs
     id="defs1">
    <clipPath
       id="e77f3bcfed">
      <path
         d="m 73,40 h 79 V 186.80859 H 73 Z m 0,0"
         clip-rule="nonzero"
         id="path1" />
    </clipPath>
  </defs>
  <g
     clip-path="url(#e77f3bcfed)"
     id="g2"
     transform="matrix(0.8,0,0,0.8,-50.570453,-2.8431919)">
    <path
       fill="#3e745f"
       d="M 90.835938,73.578125 C 91.109375,73.351562 90.917969,73.042969 91,72.785156 c 0,-0.04297 -0.07031,-0.113281 -0.121094,-0.183594 0.195313,-0.609374 0.06641,-0.816406 -0.867187,-3.671874 -0.445313,-1.375 -0.941407,-1.507813 -1.445313,-5.300782 -0.375,-2.859375 0.140625,-4.40625 -0.203125,-4.6875 -0.449219,0.582032 0.08203,0.875 -0.871093,3.527344 -0.117188,0.308594 -0.02734,0 -0.46875,1.855469 -0.542969,2.304687 -1.410157,4.113281 -2.167969,6.078125 -0.488281,1.273437 -1.988281,3.726562 -3.136719,4.117187 -1.515625,0.519531 -0.128906,-2.316406 -2.304688,-5.039062 -0.25,-0.308594 -0.445312,-0.679688 -0.699218,-0.992188 -2.121094,-2.539062 -1.433594,-1.453125 -2.625,-3.367187 -1.160156,-1.855469 -1.699219,-2.535156 -2.492188,-6.429688 -0.511718,-2.53125 -0.02344,-2.335937 -0.304687,-2.917968 -0.222657,-0.464844 0.542969,-0.921876 2.246093,-2.757813 0.539063,-0.585937 1.316407,-0.570313 2.421876,-1.53125 0.847656,-0.742187 2.609374,-1.835937 3.980468,-2.789063 2.371094,-1.660156 1.054688,-0.835937 2.335938,-1.609374 3.652344,-2.199219 3.832031,-1.835938 4.738281,-2.636719 0.890625,-0.535157 1.808594,-1.019531 2.753906,-1.453125 1.65625,-0.71875 1.613281,0.304687 3.65625,-0.08984 3,-0.585938 8.695309,-4.441406 15.910159,-1.910156 1.8164,0.640625 3.48437,1.558594 4.99609,2.757812 0.86328,0.710938 2.21875,1.648438 2.97656,2.394532 1.02735,1 2.23438,1.679687 3.6211,2.042968 0.51172,0.113282 0.58203,0 1.16015,0.445313 0.92188,0.75 1.78125,1.566406 2.57813,2.449219 0.55859,0.71875 1.29687,1.171874 1.625,1.554687 6.03906,7.117187 7.96094,9.589844 8.23437,9.925781 1.51172,1.800782 0.72266,0.203125 2.41016,3.652344 0.27344,0.554688 -0.0273,0.75 0,1.109375 0.13281,1.394531 -2.75781,5.136719 -2.75781,5.140625 -0.66407,1.078125 -2.8125,3.0625 -4.88282,4.058594 -0.74609,0.355468 -1.9375,0.871094 -2.64062,1.226562 -0.19922,0.121094 -0.37891,0.261719 -0.54297,0.429688 -1.55078,1.105468 -1.24609,2.269531 -1.71094,2.636718 -0.0625,0.07813 -0.0937,0.167969 -0.0977,0.269532 -0.0547,0.382812 -0.53516,0.824218 -0.96875,0.527344 -0.65235,-0.542969 -1.10156,-1.21875 -1.34766,-2.03125 -0.83203,-3.402344 -1.22265,-2.058594 -1.70312,-11.199219 0,-0.257813 -0.0703,-0.515625 -0.0781,-0.773438 -0.0586,-1.871093 0,-1.988281 -0.0898,-2.699219 -0.3086,0.09766 -0.32813,0.328126 -0.57422,1.105469 -1.01563,3.1875 -0.91797,2.992188 -1.17969,3.40625 -0.72265,1.199219 -0.64844,1.667969 -0.93359,2.175781 -0.0234,0.04297 -0.0625,0.09766 -0.0508,0.136719 0.0742,0.289063 -0.125,0.511719 -0.16407,0.761719 -0.0703,0.242188 -0.16796,0.472656 -0.28906,0.691406 -0.0586,0.171875 -0.0977,0.347656 -0.15234,0.515625 -0.14453,0.398438 -0.3711,0.921875 -0.39063,1.023438 -0.0781,0.394531 -0.27734,1.476562 -0.27734,1.480469 -0.0352,2.246093 0.0469,2.316406 -0.19922,2.753906 -0.48828,0.867187 0,1.503906 -0.10547,1.671875 -0.10547,0.171875 -0.0469,0.378906 -0.0156,0.570312 0.14453,0.855469 0.40234,1.671875 0.77734,2.449219 3.60547,7.167969 4.73047,6.433594 6.43359,12.601562 0.0937,0.351563 0.69141,2.5625 0.71485,3.007813 0.0312,0.507813 0.24609,0.984371 0.45703,2.238281 0.0781,0.58593 0.28906,1.12109 0.62891,1.60156 0.32812,0.44141 0.57812,0.94141 0.875,1.41016 3.54687,5.58203 4.52343,6.28906 6.02734,9.41406 1.0664,2.22265 2.21094,5.08203 2.58594,5.76172 0.91796,1.66015 1.29687,4.25 1.29687,4.2539 0.69531,3.29297 0.67969,1.53125 1.125,5.15235 0.34375,2.80859 0.86719,2.375 0.82031,4.10546 -0.082,2.71485 -0.10937,3.53907 0.85157,4.41016 0.61718,0.59375 1.30078,1.09766 2.04687,1.51172 0.94922,0.46875 1.64063,1.18359 2.07813,2.14453 1.1289,2.58984 0.32812,2.80469 0.98046,4.55859 0.74219,1.98047 2.10157,2.59766 2.59375,6.19922 0.5625,4.11328 -3.58203,12.33594 -4.48046,14.54297 -1.70704,4.20703 -1.75,4.09375 -2.65625,5.67188 -0.47657,0.83203 -0.19922,0.76953 -0.72266,2.14453 -0.67578,1.77734 -0.72266,2.24219 -0.30859,4.17187 0.0273,0.14453 0.0937,0.26953 0.19921,0.36719 0.10938,0.10156 0.23438,0.16406 0.37891,0.17969 1.13672,0.20703 5.02344,1.16797 8.73438,0.77344 0.47265,-0.0547 0.93359,0.008 1.375,0.1875 1.32421,0.53906 1.47265,0.59375 1.24218,1.10156 -1.30078,2.8789 -6.66015,2.18359 -10.57031,2.71094 -0.76562,0.10156 -1.02734,-0.11719 -1.19141,0.30468 -0.70312,1.83594 -2.49609,1.89063 -11.17968,1.53125 -0.54297,-0.0234 -0.26172,0.61328 -1.36719,0.62891 -4.37891,0.0898 -5.69922,0.18359 -11.46484,0.15234 -0.63282,0 -0.58594,-0.082 -2.54297,-0.1914 -0.57813,-0.0312 -1.15625,-0.0508 -1.73438,-0.0898 -0.20703,-0.0195 -0.40625,-0.0742 -0.59375,-0.16406 -0.1875,-0.0937 -0.35156,-0.21484 -0.49609,-0.36719 -0.14063,-0.15625 -0.25,-0.32812 -0.32422,-0.52343 -0.0781,-0.19532 -0.11719,-0.39844 -0.11719,-0.60547 0,-0.14844 -0.0195,-0.29297 -0.0352,-0.47266 -0.95703,-0.0742 1.71484,0 -10.957035,-0.0703 -7.683594,-0.0508 -7.398437,-0.16797 -7.523437,0.23047 -0.5,1.64062 -2.277344,1.09765 -5.289063,1.08593 -9.453125,-0.0352 -7.777344,-0.0195 -11.964844,-0.44921 -1.429687,-0.15235 -0.917969,-1.01563 -1.371093,-1.55469 -0.285157,-0.32422 0.390624,-0.73438 0.402343,-1.15235 0.02344,-0.80468 0.53125,-1.20703 1.6875,-2.85937 0.636719,-0.92188 1.515625,-2.28516 1.921875,-2.80859 0.863282,-1.10938 1.5625,-0.46485 1.957032,-1.48829 0.238281,-0.60937 1.484374,-2.10546 1.597656,-6.46093 0.05859,-2.40235 0.07813,-1.76953 0.425781,-3.31641 0.3125,-2.43359 0.441406,-4.87891 0.394531,-7.33203 -0.01563,-1.10938 -0.234375,-3.87109 0.05469,-4.90234 0.238281,-0.85157 0.375,-4.16407 0.359375,-4.65625 -0.101563,-3.17969 -0.02344,-2.26954 -0.05469,-3.24219 0,-0.4375 -0.15625,-1.09766 -0.144531,-1.20703 0.02734,-0.61328 0.01172,-1.22657 -0.04687,-1.83985 -0.02344,-0.87109 0,-1.74609 -0.05469,-2.61718 -0.101563,-1.6875 -0.488282,-3.58594 -0.273438,-5.17969 0.574219,-4.26563 -0.515625,-3.19922 0.832031,-7.20313 0.257813,-0.76171 0.6875,-1.05859 0.542969,-1.71484 -0.132812,-0.61328 -0.109375,-1.42578 -0.507812,-2.70312 -0.949219,-2.65625 -1.347657,-5.39454 -1.199219,-8.21094 0,0 -0.1875,-1.71094 0.308593,-8.96485 0.05859,-0.87109 0.78125,-4.51562 0.878907,-4.78125 1.328125,-3.730461 0.980469,-2.734367 1.628906,-4.289055 0.765625,-1.820312 0.648437,-1.582031 0.679687,-1.636719 3.222657,-5.535156 3.628907,-5.632812 3.738282,-6.734374 0.101562,-0.503907 0.226562,-1.003907 0.382812,-1.492188 0.128906,-0.582031 0.703125,-0.796875 1.679688,-4.234375 0.15625,-0.429687 0.277344,-0.863281 0.367187,-1.308594 0.07031,-0.5625 0.132813,-1.125 0.25,-1.675781 0.117188,-0.667969 0.101563,-1.328125 -0.04297,-1.992188 -0.03906,-1.34375 0.164063,-1.871093 0,-2.535156 -0.04297,-0.191406 -0.03906,-0.378906 0.01953,-0.566406 0.05859,-0.195312 -0.164063,-0.386719 0.01563,-0.566406 z m 2.054687,91.082035 c -0.02344,0.0664 -0.03906,0.13281 -0.04687,0.20312 -0.09375,2.67188 -0.210938,2.46875 -0.28125,3.11719 -0.484375,4.5039 -0.03516,4.86719 -0.222656,5.55078 -0.109375,0.49219 -0.03125,0.95703 0.234375,1.38672 0.128906,0.26562 0.195312,0.28515 0.5,0.23047 1.246093,-0.20703 1.269531,0 2.027343,-0.30469 2.015626,-0.77734 2.386719,-0.90234 3.1875,-1.04688 0.554688,-0.10156 0.425782,-0.51562 0.816407,-0.78515 0.59375,-0.41016 0,-0.82813 0.195312,-1.87891 0.08984,-0.49609 -0.148437,-0.69922 -1.761719,-2.10547 -1.035156,-0.89843 -0.589843,-0.21875 -1.914062,-1.29297 -0.523438,-0.41796 -1.09375,-0.78125 -1.511719,-1.34375 -1.347656,-1.8125 -0.960937,-1.79296 -1.222656,-1.73046 z m 20.085935,11.35937 c 0.16797,-0.17969 0.12891,0.0625 0.44922,-1.42578 0.0469,-0.21094 -0.082,-0.26953 -0.875,-0.76172 -0.10156,-0.0625 -0.20312,-0.10937 -0.36328,-0.19141 -0.008,0.92188 0.37109,1.63282 0.78906,2.37891 z m 0,0"
       fill-opacity="1"
       fill-rule="nonzero"
       id="path2" />
  </g>
</svg>
