<svg xmlns="http://www.w3.org/2000/svg" xmlns:xlink="http://www.w3.org/1999/xlink" width="300" zoomAndPan="magnify" viewBox="0 0 224.87999 225" height="300" preserveAspectRatio="xMidYMid meet" version="1.0"><defs><clipPath id="b3553678c7"><path d="M 41.066406 31 L 164.003906 31 L 164.003906 195 L 41.066406 195 Z M 41.066406 31 " clip-rule="nonzero"/></clipPath></defs><g clip-path="url(#b3553678c7)"><path fill="#f5ded2" d="M 123.921875 143.957031 C 122.984375 145.34375 123.15625 147.339844 123.066406 148.984375 C 122.96875 150.859375 122.847656 152.753906 122.945312 154.605469 C 123.132812 158.128906 124.136719 161.671875 124.5 165.164062 C 124.664062 166.722656 125.222656 168.160156 125.222656 169.757812 C 125.21875 171.355469 124.597656 172.882812 124.863281 174.574219 C 125.28125 177.273438 125.433594 180.367188 127.207031 182.675781 C 126.644531 180.035156 127.015625 177.191406 126.179688 174.683594 C 125.660156 173.105469 125.765625 171.875 125.9375 170.210938 C 126.097656 168.675781 125.8125 167.277344 125.820312 165.738281 C 125.828125 162.046875 125.457031 158.28125 124.886719 154.722656 C 124.332031 151.230469 124.796875 147.679688 124.855469 144.140625 C 124.578125 143.992188 124.261719 143.921875 123.921875 143.957031 Z M 160.347656 69.453125 C 160.859375 69.246094 161.566406 69.5625 161.941406 69.976562 C 161.566406 69.957031 160.972656 69.78125 160.714844 70.015625 C 161.210938 70.203125 161.746094 70.53125 162.136719 70.878906 C 161.835938 70.90625 161.53125 70.878906 161.234375 70.832031 C 161.453125 70.90625 161.449219 71.425781 161.722656 71.636719 C 162.113281 71.9375 162.863281 72.132812 163.335938 72.339844 C 163.007812 72.527344 162.433594 72.574219 162.027344 72.5625 C 162.425781 72.945312 163.117188 72.984375 163.449219 73.34375 C 163.125 73.460938 162.75 73.414062 162.402344 73.410156 C 163.261719 73.925781 163.839844 74.585938 164.0625 75.574219 C 163.902344 75.246094 163.515625 75.011719 163.167969 74.910156 C 163.527344 75.570312 163.601562 76.398438 163.808594 77.128906 C 163.578125 76.820312 163.265625 76.558594 163.046875 76.242188 C 163.230469 76.796875 163.410156 77.40625 163.460938 77.984375 C 163.238281 77.746094 162.835938 77.710938 162.421875 77.730469 C 162.820312 78.148438 163.175781 78.757812 163.15625 79.269531 C 162.902344 79.035156 162.589844 78.75 162.222656 78.746094 C 162.519531 79.011719 162.722656 79.492188 162.667969 79.878906 C 162.492188 79.703125 162.273438 79.589844 162.027344 79.515625 C 162.117188 79.742188 162.28125 79.96875 162.25 80.234375 C 161.472656 79.941406 160.886719 80.3125 160.1875 80.582031 C 160.632812 80.859375 161.371094 81.210938 161.597656 81.664062 C 161.121094 81.65625 160.644531 81.789062 160.1875 81.902344 C 160.546875 82.046875 161.320312 82.578125 161.476562 82.871094 C 160.992188 82.980469 160.492188 82.972656 159.996094 83.003906 C 160.121094 83.695312 160.871094 84.324219 160.875 85.054688 C 160.535156 84.972656 160.320312 84.5625 159.996094 84.390625 C 160.164062 84.769531 160.4375 85.269531 160.394531 85.6875 C 160.3125 85.597656 160.0625 85.472656 159.996094 85.410156 C 160.074219 85.703125 160.304688 85.949219 160.277344 86.257812 C 159.710938 86.289062 159.21875 86.34375 158.707031 86.4375 C 159.039062 86.652344 159.339844 87.058594 159.386719 87.40625 C 159.097656 87.382812 158.84375 87.222656 158.558594 87.152344 C 158.828125 87.382812 159.089844 87.777344 159.019531 88.140625 C 158.777344 88.003906 158.527344 87.859375 158.257812 87.824219 C 158.550781 88.03125 158.746094 88.296875 158.722656 88.667969 C 158.433594 88.632812 158.148438 88.523438 157.839844 88.570312 C 157.972656 88.828125 158.054688 89.15625 158.003906 89.472656 C 157.839844 89.394531 157.617188 89.335938 157.421875 89.316406 C 157.617188 89.957031 157.671875 90.589844 158.066406 91.191406 C 157.726562 91.238281 157.375 91.078125 157.0625 91.035156 C 157.1875 91.375 157.324219 91.78125 157.40625 92.113281 C 157.179688 92.011719 156.953125 91.859375 156.703125 91.78125 C 156.660156 92.089844 156.773438 92.382812 156.746094 92.6875 C 156.546875 92.550781 156.339844 92.339844 156.105469 92.242188 C 156.175781 92.460938 156.25 92.71875 156.207031 92.960938 C 156.15625 92.898438 156.09375 92.859375 156.050781 92.816406 C 155.914062 93.917969 154.679688 94.976562 154.257812 96.023438 C 153.992188 96.691406 153.964844 98.636719 153.367188 99.558594 C 153.601562 99.886719 153.832031 100.214844 154.03125 100.554688 C 154.878906 101.996094 155.429688 103.53125 155.257812 105.261719 C 155.066406 107.214844 152.628906 111.882812 149.738281 111.355469 C 149.636719 112.984375 150.066406 116.550781 149.785156 117.339844 C 149.082031 119.308594 147.800781 122.078125 149.953125 123.714844 C 149.46875 123.71875 149.28125 123.726562 148.9375 123.402344 C 148.839844 124.253906 149.386719 124.957031 149.863281 125.5625 C 149.429688 125.429688 149.027344 125.203125 148.667969 124.925781 C 148.691406 125.65625 149 126.324219 148.890625 127.054688 C 148.640625 126.75 148.261719 126.371094 147.878906 126.273438 C 148.683594 127.066406 148.210938 128.453125 148.445312 129.441406 C 148.226562 128.867188 147.816406 128.300781 147.261719 128.113281 C 147.476562 129.003906 147.933594 130.234375 147.390625 131.082031 C 147.199219 130.585938 146.996094 130.101562 146.761719 129.625 C 146.769531 130.382812 146.894531 131.378906 146.550781 131.996094 C 146.4375 131.59375 146.320312 131.058594 146.195312 130.746094 C 145.824219 132.117188 145.804688 133.589844 145.804688 135.027344 C 145.804688 134.128906 145.203125 133.355469 145.214844 132.492188 C 144.960938 133.191406 144.863281 134 144.824219 134.746094 C 144.683594 134.433594 144.570312 133.898438 144.398438 133.515625 C 144.242188 134.117188 143.996094 134.726562 143.796875 135.296875 C 143.773438 135.035156 143.613281 134.882812 143.542969 134.648438 C 143.097656 134.867188 142.773438 135.519531 142.375 135.375 C 140.648438 141.144531 138.085938 146.738281 136.832031 152.65625 C 136.171875 155.746094 135.730469 158.652344 135.398438 161.839844 C 135.085938 164.804688 134.886719 167.382812 133.84375 170.101562 C 133.847656 172.863281 133.925781 175.84375 134.667969 178.371094 C 135.128906 179.917969 135.734375 182.953125 137.117188 184.699219 C 137.117188 184.699219 137.117188 184.699219 137.121094 184.699219 C 139.5625 184.441406 143.160156 185.972656 144.457031 187.890625 C 146.746094 191.253906 141.445312 191.492188 138.90625 191.460938 C 138.027344 192.191406 136.328125 192.285156 135.515625 191.675781 L 135.359375 191.671875 C 135.324219 193.117188 133.800781 194.433594 131.921875 193.511719 L 131.828125 193.488281 C 131.429688 195.089844 127.933594 194.949219 126.464844 193.976562 C 124.554688 195.476562 120.007812 192.820312 119.117188 190.875 C 118.363281 189.234375 118.339844 187.289062 117.914062 185.601562 C 117.523438 184.042969 117.230469 182.460938 116.933594 180.84375 C 116.390625 180.21875 115.886719 179.589844 115.671875 178.796875 C 115.441406 177.953125 115.554688 176.996094 115.5 176.09375 C 115.394531 174.328125 115.074219 172.382812 114.714844 170.648438 C 114.039062 167.378906 113.226562 164.046875 112.386719 160.804688 C 111.519531 157.453125 110.996094 153.925781 110.257812 150.589844 C 109.855469 148.769531 109.644531 146.84375 109.277344 144.992188 C 109.007812 143.628906 108.972656 141.742188 108.15625 140.519531 C 107.148438 142.746094 107.035156 145.582031 106.335938 147.976562 C 105.445312 151.042969 102.855469 153.09375 101.640625 155.984375 C 100.417969 158.878906 99.851562 162.863281 100.691406 166.082031 C 101.515625 169.242188 103.523438 171.472656 105.441406 174.140625 C 106.371094 175.4375 107.082031 176.238281 108.222656 177.070312 C 109.539062 177.320312 110.679688 177.765625 111.605469 178.792969 C 112.535156 179.824219 113.242188 181.738281 111.335938 182.265625 L 111.28125 182.242188 C 110.6875 183.460938 108.167969 183.730469 106.796875 182.605469 C 105.773438 182.960938 103.910156 182.675781 103.320312 182.378906 C 101.648438 181.550781 100.535156 180.214844 99.96875 178.589844 C 99.441406 177.042969 98.578125 175.402344 97.484375 174.089844 C 96.21875 172.5625 95.945312 171.414062 95.449219 169.617188 C 94.550781 166.367188 91.894531 162.910156 93.054688 159.429688 C 94.15625 156.132812 95.5 153.46875 95.066406 149.902344 C 95.039062 149.644531 94.972656 149.425781 94.953125 149.171875 C 94.601562 149.855469 94.183594 150.894531 94.011719 151.269531 C 93.917969 150.203125 94.425781 149.082031 94.808594 148.101562 C 94.246094 148.566406 94.015625 149.28125 93.621094 149.863281 C 93.585938 149.042969 94.066406 148.34375 94.109375 147.53125 C 93.675781 147.894531 93.371094 148.390625 93.019531 148.835938 C 93.074219 148.09375 93.125 146.917969 93.488281 146.273438 C 93.140625 146.941406 92.5 147.222656 91.996094 147.710938 C 92.6875 146.789062 93.417969 145.355469 93.273438 144.199219 C 92.808594 144.726562 92.367188 145.285156 91.816406 145.726562 C 92.375 145.105469 92.582031 144.28125 92.777344 143.511719 C 92.066406 144.085938 91.5625 144.644531 91.109375 145.390625 C 91.371094 144.445312 91.828125 143.585938 91.953125 142.59375 C 91.613281 143.460938 90.910156 144.191406 90.507812 145.046875 C 90.433594 144.042969 90.976562 142.511719 91.300781 141.558594 C 90.90625 142.214844 90.347656 142.742188 90.03125 143.441406 C 90.046875 142.507812 90.234375 141.5625 90.15625 140.640625 C 89.925781 141.433594 89.761719 142.324219 89.34375 143.007812 C 89.328125 142.3125 88.871094 141.613281 88.59375 140.984375 C 88.625 141.769531 88.378906 142.71875 88.148438 143.441406 C 88.054688 142.964844 87.882812 142.503906 87.546875 142.136719 C 87.570312 142.832031 87.410156 143.492188 87.164062 144.125 C 87.027344 143.761719 86.992188 143.339844 87.050781 142.941406 C 86.839844 143.503906 86.792969 144.273438 86.351562 144.726562 C 86.308594 144.390625 86.203125 144.085938 86.207031 143.738281 C 86.074219 144.3125 85.871094 144.980469 85.511719 145.417969 C 85.484375 145.074219 85.363281 144.777344 85.371094 144.425781 C 85.089844 145.023438 84.941406 145.683594 84.769531 146.308594 C 84.644531 145.894531 84.613281 145.417969 84.625 144.976562 C 83.835938 145.730469 83.558594 147.976562 83.332031 149.0625 C 83.339844 148.183594 83.199219 147.214844 83.460938 146.382812 C 83.199219 146.929688 82.910156 147.558594 82.734375 148.148438 C 82.75 147.75 82.738281 147.335938 82.714844 146.949219 C 82.453125 147.488281 82.171875 148.078125 81.796875 148.578125 C 81.527344 149.492188 80.871094 150.644531 80.546875 151.367188 C 79.957031 152.695312 79.59375 154.027344 79.144531 155.414062 C 78.714844 156.757812 78.222656 158.050781 77.800781 159.402344 C 77.523438 160.289062 77.359375 161.179688 77.222656 162.089844 C 77.542969 162.972656 77.882812 163.847656 77.710938 164.9375 C 77.441406 166.679688 77.347656 168.449219 77.347656 170.332031 C 77.347656 174.035156 76.929688 177.863281 78.335938 181.203125 C 78.941406 182.632812 79.652344 184.3125 79.109375 185.90625 C 78.511719 187.671875 77.148438 188.472656 75.546875 187.785156 C 74.859375 188.476562 73.628906 188.441406 73.125 187.496094 C 72.640625 187.886719 71.683594 187.886719 71.148438 187.511719 C 70.507812 187.0625 70.265625 186.03125 70.164062 185.363281 C 69.890625 183.492188 70.710938 181.933594 70.886719 180.199219 C 71.246094 176.628906 71.386719 172.527344 71.007812 168.953125 C 70.769531 166.734375 70.707031 164.707031 71.246094 162.527344 C 71.753906 160.492188 71.472656 158.546875 71.308594 156.507812 C 70.902344 157.191406 70.371094 157.820312 69.859375 158.472656 C 70.300781 157.832031 70.507812 157.132812 70.53125 156.371094 C 70.023438 157.121094 69.460938 157.988281 69.089844 158.820312 C 69.113281 158.191406 69.328125 157.542969 69.464844 156.933594 C 68.847656 158.167969 67.863281 160.03125 66.960938 161.023438 C 66.890625 160.417969 67.097656 159.664062 67.402344 159.015625 C 67.566406 158.746094 67.730469 158.476562 67.878906 158.199219 C 67.710938 158.429688 67.546875 158.710938 67.402344 159.015625 C 67.019531 159.636719 66.609375 160.253906 66.242188 160.882812 C 66.226562 160.246094 66.246094 159.371094 66.4375 158.78125 C 66.027344 159.5 65.625 160.429688 65.046875 161.023438 C 65.117188 160.492188 65.15625 159.917969 65.144531 159.347656 C 64.75 160.613281 63.589844 161.992188 62.644531 162.855469 C 62.976562 162.136719 63.296875 161.300781 63.199219 160.492188 C 62.8125 161.375 62.246094 162.503906 61.417969 163.058594 C 61.753906 162.433594 61.660156 161.757812 61.675781 161.066406 C 61.09375 162.164062 60.246094 162.964844 59.535156 163.894531 C 59.777344 163.207031 60.03125 162.507812 60 161.761719 C 59.128906 163.148438 57.800781 164.046875 56.8125 165.269531 C 57.242188 164.5 57.433594 163.804688 57.472656 162.988281 C 56.566406 164.726562 54.4375 165.703125 52.832031 166.644531 C 53.199219 165.765625 54.042969 165.167969 54.804688 164.582031 C 53.808594 164.96875 52.027344 165.824219 51.640625 166.851562 C 51.574219 166.039062 52.214844 165.335938 52.675781 164.726562 C 51.53125 165.125 50.714844 165.664062 50.085938 166.648438 C 49.980469 166.042969 50.023438 165.453125 50.519531 165.070312 C 49.757812 165.484375 48.957031 166.132812 48.410156 166.761719 C 48.300781 166.164062 48.578125 165.605469 48.816406 165.0625 C 48.1875 165.441406 47.324219 165.660156 46.734375 166.105469 C 46.035156 166.644531 45.726562 167.585938 44.8125 167.902344 C 45.371094 167.183594 45.804688 166.332031 45.851562 165.429688 C 45.445312 165.984375 44.851562 166.480469 44.335938 166.875 C 44.25 166.382812 44.289062 165.875 44.628906 165.5 C 42.503906 166.449219 41.589844 168.585938 41.324219 170.636719 C 41.136719 169.882812 41.207031 169.058594 41.207031 168.265625 C 41.207031 167.664062 41.121094 167.003906 41.203125 166.410156 C 41.25 166.007812 41.363281 165.628906 41.507812 165.265625 C 41.898438 162.519531 43.6875 159.5 45.542969 157.621094 C 47.671875 155.472656 50.75 153.695312 53.296875 151.878906 C 56.398438 149.671875 59.792969 147.53125 62.359375 144.707031 C 64.710938 142.121094 66.316406 138.378906 67.535156 135.210938 L 67.457031 135.125 C 66.953125 135.515625 66.621094 135.992188 66.242188 136.578125 C 66.261719 135.726562 66.691406 134.933594 66.949219 134.105469 C 66.53125 134.445312 66.066406 134.871094 65.878906 135.316406 C 66.050781 134.753906 66.269531 134.175781 66.445312 133.613281 C 65.976562 133.828125 65.402344 134.070312 65.070312 134.488281 C 65.445312 133.738281 65.847656 132.839844 66.417969 132.21875 C 65.636719 132.488281 64.640625 132.929688 64.101562 133.570312 C 64.601562 132.96875 64.964844 132.242188 65.488281 131.675781 C 64.960938 131.761719 64.40625 132.046875 63.957031 132.382812 C 64.3125 132.027344 64.84375 131.335938 65.101562 130.746094 C 64.613281 130.867188 64.167969 131.164062 63.816406 131.5 C 64.039062 130.726562 64.691406 130 65.277344 129.25 C 64.875 129.367188 64.488281 129.546875 64.101562 129.660156 C 64.371094 129.347656 64.664062 129.054688 64.980469 128.78125 C 64.570312 128.867188 64.292969 128.890625 63.960938 129.113281 C 64.191406 128.800781 64.464844 128.472656 64.648438 128.121094 C 64.441406 128.136719 64.160156 128.042969 63.953125 128.074219 C 64.359375 127.660156 64.785156 127.1875 65.253906 126.773438 C 64.851562 126.6875 64.441406 126.636719 64.074219 126.589844 C 64.363281 126.167969 64.984375 126.070312 65.464844 125.828125 C 64.851562 125.761719 64.375 126.101562 63.753906 126.15625 C 64.070312 125.378906 64.800781 124.933594 65.492188 124.5625 C 64.917969 124.527344 64.320312 124.550781 63.753906 124.523438 C 63.996094 123.683594 65.003906 123.609375 65.609375 123.304688 C 64.988281 123.257812 64.339844 123.292969 63.71875 123.253906 C 64.1875 122.769531 64.816406 122.546875 65.453125 122.359375 C 65.027344 122.089844 64.457031 122.113281 63.988281 122.046875 C 64.410156 121.613281 65.117188 121.628906 65.730469 121.648438 C 65.410156 121.453125 65.144531 121.140625 64.992188 120.78125 C 65.28125 121.007812 65.546875 121.082031 65.847656 121.191406 C 65.609375 120.898438 65.523438 120.480469 65.644531 120.074219 C 65.902344 120.3125 66.214844 120.570312 66.542969 120.671875 C 66.195312 117.523438 66.675781 115.054688 67.183594 112.03125 C 67.5 110.144531 67.644531 108.671875 68.761719 107.015625 C 69.671875 105.664062 70.9375 104.542969 71.871094 103.222656 C 72.816406 101.882812 73.496094 100.28125 74.5 98.976562 C 75.363281 97.859375 76.695312 97.34375 77.929688 96.847656 C 78.726562 95.589844 79.59375 94.519531 81.269531 93.636719 C 83.257812 92.59375 85.191406 92.058594 87.277344 91.488281 C 90.542969 90.585938 93.847656 89.261719 96.976562 87.933594 C 98.621094 87.238281 100.339844 86.484375 102.121094 86.324219 C 103.484375 86.195312 104.875 86.5 106.148438 86.539062 C 106.765625 85.96875 107.449219 85.457031 108.34375 85.0625 C 109.136719 84.707031 110.324219 84.195312 111.324219 83.945312 C 111.898438 83.210938 112.566406 82.554688 113.492188 81.992188 C 114.355469 81.46875 115.34375 81.296875 116.238281 81.027344 C 117.035156 79.332031 117.824219 77.765625 118.960938 76.191406 C 119.429688 75.554688 120.179688 74.796875 120.667969 73.992188 C 119.96875 72.179688 119.964844 70.246094 118.515625 68.535156 C 117.078125 66.835938 115.632812 65.863281 116.492188 63.839844 C 116.394531 63.683594 116.300781 63.527344 116.210938 63.375 C 115.40625 61.984375 114.664062 60.386719 114.089844 58.898438 C 113.355469 56.996094 113.511719 55.164062 113.613281 53.15625 C 113.738281 50.726562 113.25 43.617188 116.84375 43.632812 C 120.15625 43.648438 122.527344 47.609375 124.890625 49.574219 C 126.1875 50.648438 127.75 51.582031 128.839844 52.785156 C 129.472656 53.484375 129.996094 55.089844 130.730469 55.894531 C 131.371094 55.679688 132.015625 55.378906 132.546875 55.25 C 133.644531 54.984375 134.773438 54.964844 135.875 54.648438 C 136.917969 54.34375 137.839844 53.742188 138.863281 53.386719 C 139.542969 53.152344 140.28125 53.125 140.953125 52.953125 C 141.105469 51.074219 140.660156 49.0625 141.464844 47.414062 C 143.027344 44.222656 143.035156 40.425781 144.128906 37.089844 C 144.925781 34.625 146.964844 29.515625 150.386719 33.042969 C 151.46875 34.160156 152.324219 36.269531 152.984375 37.671875 C 153.648438 39.070312 154.296875 40.472656 154.777344 41.914062 C 155.746094 44.832031 156.984375 48.09375 157.046875 51.277344 C 157.785156 51.597656 158.292969 51.914062 158.492188 52.8125 C 158.664062 53.617188 158.488281 54.679688 158.367188 55.453125 C 158.136719 56.933594 157.699219 58.277344 156.835938 59.46875 C 157.328125 59.460938 157.816406 59.589844 158.230469 59.859375 C 157.964844 59.871094 157.679688 59.835938 157.480469 59.976562 C 157.976562 60.042969 158.613281 60.261719 158.964844 60.605469 C 158.539062 60.632812 158.101562 60.617188 157.667969 60.617188 C 158.292969 60.671875 159.089844 61.101562 159.484375 61.585938 C 159.007812 61.625 158.515625 61.460938 158.015625 61.492188 C 158.59375 61.570312 159.230469 61.96875 159.730469 62.328125 C 159.3125 62.355469 158.933594 62.328125 158.535156 62.441406 C 158.175781 62.546875 157.855469 62.726562 157.535156 62.917969 C 158.414062 63.03125 159.152344 63.761719 160.101562 63.726562 C 159.753906 64.070312 159.125 64.003906 158.628906 64 C 159.183594 64.226562 160.164062 64.730469 160.757812 64.703125 C 160.433594 64.921875 159.945312 64.9375 159.527344 64.921875 C 160.074219 65.144531 160.632812 65.492188 161.222656 65.625 C 160.941406 65.769531 160.605469 65.714844 160.292969 65.738281 C 161.023438 66.085938 161.636719 66.449219 162.542969 66.410156 C 161.8125 66.808594 161.300781 67.246094 160.425781 66.980469 C 160.859375 67.378906 161.535156 67.515625 162.074219 67.6875 C 161.75 67.949219 161.050781 68.019531 160.652344 68.351562 C 161.15625 68.386719 162.203125 68.25 162.433594 68.757812 C 161.582031 68.742188 160.976562 69.0625 160.339844 69.441406 Z M 160.347656 69.453125 " fill-opacity="1" fill-rule="nonzero"/></g></svg>