
<svg xmlns="http://www.w3.org/2000/svg" xmlns:xlink="http://www.w3.org/1999/xlink" width="300" zoomAndPan="magnify" viewBox="0 0 224.87999 225" height="300" preserveAspectRatio="xMidYMid meet" version="1.0"><defs><clipPath id="ab2449085c"><path d="M 30.449219 38.847656 L 194.613281 38.847656 L 194.613281 186 L 30.449219 186 Z M 30.449219 38.847656 " clip-rule="nonzero"/></clipPath></defs><g clip-path="url(#ab2449085c)"><path fill="#22c55e" d="M 174.210938 81.148438 C 173.273438 80.746094 172.246094 80.445312 171.445312 80.066406 C 170.625 79.683594 169.726562 79.277344 168.8125 78.96875 C 167.988281 76.679688 165.574219 75.558594 163.769531 74.03125 C 163.105469 72.296875 162.699219 70.867188 161.21875 69.425781 C 159.613281 67.867188 158.054688 66.816406 157.390625 64.691406 C 156.410156 61.554688 155.1875 57.753906 153.128906 54.945312 C 154.921875 52.460938 157.964844 50.875 158.9375 47.902344 C 159.582031 45.945312 159.609375 43.078125 157.238281 42.128906 C 154.992188 41.230469 154.167969 42.667969 153.003906 43.789062 C 151.222656 43.796875 149.457031 43.808594 147.757812 43.488281 C 146.046875 43.15625 145.179688 43.082031 143.992188 43.355469 C 142.5 42.464844 140.300781 42.246094 138.746094 41.949219 C 136.414062 41.5 133.859375 41.621094 131.496094 41.949219 C 129.601562 42.214844 127.011719 42.601562 125.363281 43.664062 C 123.457031 44.894531 122.898438 46.417969 122.199219 48.226562 C 119.035156 48.703125 111.363281 50.324219 113.289062 52.925781 C 112.515625 54.480469 113.007812 56.976562 114.070312 58.128906 C 115.652344 59.839844 118.207031 58.617188 118.527344 61.625 C 118.640625 62.664062 118.445312 63.660156 117.785156 64.574219 C 117.136719 65.484375 116.109375 65.664062 116.203125 66.964844 C 116.324219 68.617188 117.984375 71.003906 119.640625 71.460938 C 121.160156 71.882812 122.554688 71.582031 123.90625 70.996094 C 124.457031 70.761719 125.199219 70.558594 125.941406 70.316406 C 126.445312 70.726562 126.933594 71.164062 127.53125 71.3125 C 128.703125 71.609375 129.800781 70.78125 130.90625 71.410156 C 131.738281 71.886719 132.605469 72.871094 133.296875 73.964844 C 133.460938 74.808594 133.550781 75.667969 133.542969 76.53125 C 133.515625 78.625 132.46875 80.828125 131.929688 82.800781 C 130.726562 87.191406 130.277344 91.910156 130.824219 96.671875 C 131.070312 98.828125 131.539062 100.871094 132.132812 102.972656 C 132.671875 104.90625 133.609375 106.394531 134.492188 108.199219 C 135.296875 109.847656 136.496094 111.867188 136.226562 113.734375 C 136.035156 115.097656 135.429688 116.671875 134.855469 118.21875 C 134.105469 117.121094 132.847656 115.839844 132.320312 115.085938 C 131.136719 113.378906 130.410156 111.324219 129.394531 109.464844 C 128.585938 107.980469 127.667969 106.546875 126.75 105.125 C 126.132812 104.164062 125.503906 102.9375 124.761719 101.84375 C 124.84375 100.171875 124.917969 98.484375 124.382812 96.96875 C 121.839844 89.761719 116.242188 83.878906 112.824219 77.054688 C 112.59375 73.460938 113.179688 69.660156 112.5 66.265625 C 111.96875 63.605469 111.15625 60.765625 110.34375 58.101562 C 111.871094 56.015625 106.480469 48.46875 105.230469 47.207031 C 103.707031 45.667969 101.449219 44.875 100.011719 43.355469 C 99.039062 42.324219 97.308594 38.925781 95.644531 38.855469 C 95.394531 38.847656 95.105469 38.835938 94.871094 38.890625 C 94.429688 40.667969 96.707031 42.109375 97.496094 43.507812 C 98.496094 45.289062 98.144531 46.851562 98.03125 48.648438 C 96.894531 48.71875 95.632812 48.523438 94.566406 49.054688 C 93.449219 49.609375 92.554688 50.550781 91.648438 51.433594 C 89.882812 53.152344 87.6875 53.960938 86.140625 55.726562 C 84.070312 55.03125 82.265625 56.144531 80.742188 57.734375 C 80.355469 58.140625 79.929688 58.777344 79.476562 59.460938 C 78.085938 60.289062 76.8125 61.410156 75.292969 62.117188 C 73.609375 62.902344 71.050781 63.351562 69.570312 64.539062 C 67.390625 66.292969 71.773438 67.503906 73.363281 67.425781 C 74.425781 67.375 76.527344 66.28125 77.714844 65.042969 C 78.949219 66.054688 80.113281 67.859375 81.453125 68.492188 C 82.839844 69.152344 83.519531 68.980469 84.855469 68.5 C 85.640625 68.214844 86.335938 68.070312 87.078125 67.996094 C 87.070312 68.710938 87.128906 69.414062 87.457031 70.039062 C 87.890625 70.863281 88.882812 71.40625 89.316406 72.21875 C 90.082031 73.652344 89.992188 75.410156 89.578125 77.054688 C 88.148438 77.859375 86.609375 78.941406 85.410156 80.152344 C 81.707031 80.554688 67.433594 82.710938 57.742188 92.65625 C 56.8125 89.390625 53.894531 85.871094 50.898438 84.710938 C 48.691406 83.859375 46.046875 84.175781 43.820312 83.605469 C 41.78125 83.089844 40 81.796875 37.984375 81.148438 C 35.453125 80.328125 32.800781 80.890625 30.460938 79.589844 C 32.953125 82.96875 36.859375 86.957031 40.984375 87.753906 C 45.511719 88.625 51.101562 87.863281 51.6875 93.75 C 51.875 95.632812 51.9375 99.378906 52.875 102.058594 C 52.75 103.714844 53.082031 105.746094 52.828125 106.972656 C 52.371094 109.238281 51.453125 111.332031 51.871094 113.898438 C 52.175781 115.761719 53.4375 117.875 54.125 119.695312 C 54.992188 121.984375 55.480469 124.035156 55.707031 126.460938 C 55.9375 128.917969 56.757812 131.386719 57.554688 133.886719 C 57.523438 136.839844 57.378906 139.699219 56.773438 142.480469 C 56.332031 144.488281 55.378906 146.726562 55.671875 148.789062 C 56.007812 151.140625 56.734375 153.480469 57.453125 155.695312 C 58.191406 157.984375 58.253906 160.292969 58.671875 162.625 C 58.921875 164.015625 60.847656 167.105469 62.269531 165.574219 C 62.835938 166.09375 63.546875 166.210938 64.515625 166.160156 C 65.152344 166.125 66.152344 165.972656 66.421875 165.519531 C 66.925781 165.808594 67.5 165.996094 67.992188 165.929688 C 68.621094 165.84375 68.886719 165.539062 68.964844 165.144531 C 69.628906 165.148438 70.171875 164.453125 70.207031 163.699219 C 70.242188 163.003906 69.578125 161.78125 69.097656 161.238281 C 67.929688 159.9375 66.625 158.984375 65.5 157.515625 C 62.984375 154.226562 63.015625 149.839844 63.421875 145.875 C 63.667969 143.445312 63.578125 140.984375 64.210938 138.648438 C 64.777344 136.539062 65.535156 134.472656 66.21875 132.457031 C 67.492188 128.695312 68.953125 125.203125 68.722656 121.375 C 70.003906 122.179688 71.269531 123.460938 72.136719 124.300781 C 73.625 125.742188 74.875 127.730469 74.941406 129.722656 C 75.011719 131.792969 73.53125 134.542969 72.570312 136.335938 C 71.570312 138.207031 69.621094 139.730469 70.710938 141.988281 C 71.523438 143.671875 73.25 145.101562 74.1875 146.75 C 75.339844 148.773438 75.980469 150.542969 77.941406 151.898438 C 79.550781 153.019531 81.160156 154.109375 82.523438 155.550781 C 84.25 157.371094 84.445312 158.925781 87.261719 159.085938 C 88.726562 159.171875 89.933594 159.320312 91.371094 159.394531 C 91.828125 159.417969 92.25 159.355469 92.59375 159.226562 C 93.921875 159.75 95.617188 159.71875 96.898438 159.242188 C 98.128906 158.785156 98.210938 158.320312 97.796875 157.804688 C 99.328125 157.390625 95.78125 154.898438 95.160156 154.628906 C 94.234375 154.226562 92.816406 154.632812 91.636719 154.722656 C 88.933594 154.234375 85.777344 151.269531 84.140625 149.519531 C 81.5625 146.757812 79.589844 144.5 80.503906 140.367188 C 81.40625 136.304688 85.710938 133.8125 87.460938 129.914062 C 88.382812 127.867188 89.1875 125.765625 89.628906 123.574219 C 90.011719 121.703125 89.363281 119.953125 89.089844 118.15625 C 88.816406 116.367188 89.089844 114.566406 89.265625 112.753906 C 89.714844 110.046875 89.445312 108.144531 90.207031 105.566406 C 90.851562 103.378906 91.933594 100.707031 93.417969 99 C 94.542969 97.699219 96.039062 96.429688 97.683594 95.90625 C 99.953125 95.179688 100.933594 95.433594 103.035156 97.425781 C 105.074219 99.332031 105.5625 100.75 108.089844 102.597656 C 110.445312 104.332031 112.289062 104.707031 114.816406 106.675781 C 116.671875 108.128906 118.296875 109.59375 119.808594 111.3125 C 122.335938 114.183594 122.71875 117.460938 123.988281 120.714844 C 125.253906 123.988281 126.566406 127.28125 126.921875 130.742188 C 127.363281 135.039062 124.195312 138.410156 121.671875 141.652344 C 121.707031 141.882812 121.761719 142.121094 121.847656 142.359375 C 122.304688 143.566406 122.820312 144.742188 123.703125 145.609375 C 124.585938 146.480469 125.917969 147.167969 127.117188 146.839844 C 129.308594 146.234375 130.753906 143.925781 132.972656 143.429688 C 135.984375 142.765625 138.851562 144.480469 141.820312 144.726562 C 144.5 144.949219 146.824219 144.085938 149.375 143.253906 C 151.804688 142.460938 152.996094 142.300781 155.574219 141.9375 C 158.257812 141.554688 160.460938 139.828125 162.246094 138.015625 C 163.425781 136.816406 164.660156 135.238281 165.234375 133.585938 C 166.308594 130.605469 167.023438 127.417969 165.613281 124.527344 C 164.984375 123.125 163.878906 121.796875 162.519531 120.714844 C 161.167969 119.640625 159.539062 118.804688 158.148438 117.882812 C 155.203125 116 154.375 113.863281 153.03125 110.9375 C 153.03125 110.9375 153.03125 110.9375 153.03125 110.933594 C 152.804688 110.234375 152.507812 109.582031 152.300781 108.917969 C 151.101562 105.425781 151.148438 101.066406 152.863281 98.042969 C 154.207031 95.703125 156.5625 94.101562 158.570312 92.671875 C 159.71875 91.839844 160.859375 90.941406 161.457031 89.636719 C 162.0625 88.324219 161.96875 86.800781 161.816406 85.335938 C 161.355469 80.695312 160.746094 76.0625 159.824219 71.5 C 159.136719 67.984375 158.078125 64.328125 156.042969 61.375 C 154.046875 58.472656 151.058594 56.402344 148.21875 54.335938 C 147.003906 53.460938 145.652344 52.675781 144.640625 51.582031 C 143.558594 50.421875 142.894531 48.964844 142.269531 47.53125 C 141.042969 44.859375 140.003906 42.039062 137.914062 40.160156 C 138.835938 44.53125 143.132812 46.839844 146.734375 49.597656 C 150.40625 52.410156 153.519531 56.175781 155.234375 60.464844 C 156.953125 64.761719 157.414062 69.46875 158.253906 74.035156 C 158.378906 74.742188 158.441406 75.539062 158.042969 76.125 C 157.753906 76.554688 157.28125 76.855469 156.808594 77.125 C 155.386719 77.921875 153.960938 78.792969 152.828125 80 C 151.695312 81.203125 150.890625 82.792969 150.835938 84.457031 C 150.78125 86.128906 151.664062 87.570312 152.644531 88.925781 C 153.625 90.28125 154.75 91.640625 155.128906 93.25 C 155.558594 95.070312 154.835938 97.066406 153.554688 98.421875 C 152.273438 99.78125 150.527344 100.589844 148.996094 101.632812 C 147.742188 102.820312 146.703125 104.808594 146.558594 106.890625 C 146.632812 108.101562 147 109.269531 147.191406 110.476562 C 147.273438 111.023438 147.371094 111.570312 147.433594 112.125 C 147.542969 113.089844 147.554688 114.066406 147.480469 115.023438 C 147.34375 116.945312 147.015625 118.84375 146.773438 120.769531 C 146.53125 122.660156 146.375 124.558594 146.605469 126.453125 C 146.847656 128.386719 147.640625 130.28125 148.84375 131.859375 C 150.0625 133.457031 151.816406 134.808594 153.570312 136.128906 C 154.644531 136.929688 155.8125 137.675781 157.089844 138.121094 C 158.984375 138.757812 162.121094 137.75 162.972656 139.941406 C 163.769531 141.953125 160.695312 143.800781 159.226562 145.054688 C 157.246094 147.054688 155.289062 149.917969 155.6875 152.761719 C 156.144531 155.957031 159.203125 158.089844 161.117188 160.328125 C 162.6875 162.140625 163.660156 164.441406 164.164062 166.808594 C 164.390625 167.992188 164.558594 169.28125 164.179688 170.417969 C 163.921875 171.15625 163.371094 171.980469 162.878906 172.546875 C 162.933594 172.609375 162.984375 172.683594 163.019531 172.769531 C 163.277344 173.722656 163.792969 174.503906 164.214844 175.339844 C 164.542969 176.125 164.804688 177.042969 165.742188 177.324219 C 166.671875 177.597656 167.542969 177.136719 168.421875 176.960938 C 170.203125 176.597656 172.183594 177.28125 173.769531 176.289062 C 174.59375 175.75 175.25 174.839844 175.597656 173.933594 C 175.941406 173.023438 176.007812 172.054688 176.089844 171.085938 C 176.320312 168.605469 176.574219 165.660156 174.886719 163.863281 C 173.519531 162.398438 171.058594 162.097656 168.996094 161.3125 C 167.527344 160.757812 166.074219 160.03125 164.953125 158.953125 C 162.820312 156.90625 162.183594 154.082031 161.953125 151.3125 C 161.625 147.496094 162.246094 143.359375 164.285156 140.066406 C 165.863281 137.523438 169.679688 136.949219 172.769531 136.789062 C 174.933594 136.679688 177.289062 136.6875 179.1875 135.714844 C 181.113281 134.734375 182.210938 132.855469 183.253906 131.046875 C 185.304688 127.472656 187.226562 123.355469 187.0625 119.171875 C 186.996094 117.332031 186.53125 115.515625 186.050781 113.742188 C 185.632812 112.21875 185.347656 110.675781 185.292969 109.105469 C 185.183594 105.960938 186.296875 103.109375 186.941406 100.109375 C 187.558594 97.238281 187.925781 94.316406 188.046875 91.378906 C 188.15625 88.734375 188.097656 85.988281 187.125 83.535156 C 186.15625 81.085938 183.894531 79.507812 181.410156 79.003906 C 178.949219 78.5 176.382812 79.003906 174.210938 81.148438 Z M 174.210938 81.148438 " fill-opacity="1" fill-rule="nonzero"/></g></svg>
